<svg width="140" height="70" viewBox="0 0 140 70" fill="none" xmlns="http://www.w3.org/2000/svg">
<path d="M21.6926 28.6628L22.3642 28.2191C22.4625 27.6808 22.2659 27.4146 21.7909 27.4146C21.103 27.4146 20.759 27.9884 20.759 29.1301C20.759 29.5797 20.8136 30.1003 20.9282 30.6919C22.1458 31.5733 22.7518 32.7091 22.7518 34.0874C22.7518 35.4657 22.3096 36.5365 21.4306 37.2996C20.5515 38.0627 19.3558 38.4413 17.8543 38.4413C17.2319 38.4413 16.5822 38.3703 15.9106 38.2342C15.2063 38.7193 14.8568 39.0861 14.8568 39.3286C14.8568 39.5712 15.3701 39.6954 16.3911 39.6954H18.8426C22.4734 39.6954 24.2915 41.1092 24.2915 43.9369C24.2915 45.4631 23.7455 46.6699 22.6481 47.5631C21.5507 48.4564 19.8417 48.9 17.5213 48.9C13.5683 48.9 11.5918 47.9713 11.5918 46.1197C11.5918 45.1141 12.2088 44.4219 13.4427 44.0374L14.8841 44.7414C14.7531 45.2442 14.693 45.7234 14.693 46.1729C14.693 47.6637 15.7195 48.409 17.7669 48.409C19.0173 48.409 19.9782 48.1547 20.6498 47.6518C21.3213 47.149 21.6599 46.522 21.6599 45.7766C21.6599 45.0312 21.4579 44.5343 21.0484 44.28C20.6389 44.0256 19.8253 43.9014 18.6132 43.9014H16.2873C14.9933 43.9014 14.0651 43.6647 13.5028 43.1974C12.9404 42.7301 12.662 42.1503 12.662 41.4701C12.662 40.7838 12.864 40.21 13.2625 39.7545C13.6611 39.2931 14.3763 38.7252 15.3974 38.0508C13.541 37.477 12.6128 36.1638 12.6128 34.0992C12.6128 32.7978 13.0441 31.7508 13.9068 30.9521C14.7695 30.1535 16.0689 29.7572 17.7943 29.7572C18.8316 29.7572 19.7216 29.9761 20.4587 30.4079C20.3604 29.9406 20.3167 29.5147 20.3167 29.1361C20.3167 28.1659 20.557 27.462 21.0374 27.0301C21.5179 26.5983 22.053 26.3794 22.6481 26.3794C23.2432 26.3794 23.7182 26.5509 24.0786 26.8881C24.439 27.2253 24.6191 27.6927 24.6191 28.2783C24.6191 28.8699 24.4772 29.3076 24.1878 29.5916C23.8984 29.8755 23.549 30.0234 23.145 30.0234C22.7355 30.0234 22.4024 29.9051 22.1349 29.6744C21.851 29.4318 21.709 29.1006 21.6926 28.6628ZM16.604 33.5313V34.9333C16.604 36.0928 16.6968 36.8855 16.8824 37.2996C17.0681 37.7137 17.3465 37.9207 17.7233 37.9207C18.1 37.9207 18.373 37.7196 18.5368 37.3114C18.7061 36.9032 18.788 36.0691 18.788 34.8032V33.5313C18.788 32.1767 18.7061 31.2893 18.5477 30.8634C18.3894 30.4375 18.1219 30.2245 17.7451 30.2245C17.3684 30.2245 17.0845 30.4434 16.8934 30.8871C16.6968 31.3307 16.604 32.2122 16.604 33.5313Z" fill="#7D7D7D"/>
<path d="M35.0148 30.7448C34.4196 30.7448 33.9009 31.1589 33.4532 31.993C33.0055 32.8271 32.7816 33.815 32.7816 34.9567V41.9253H34.4852V42.3926H26.9941V41.9253H28.3154V30.4786H26.9941V30.0113H32.7816V32.5076C32.9891 31.6262 33.3877 30.9459 33.9828 30.4668C34.5725 29.9876 35.2495 29.751 35.9975 29.751C36.751 29.751 37.3625 29.9817 37.8321 30.4431C38.3016 30.9045 38.5419 31.5552 38.5419 32.3952C38.5419 33.2353 38.3672 33.8801 38.0123 34.3356C37.6574 34.7852 37.1223 35.0099 36.3907 35.0099C35.659 35.0099 35.124 34.7497 34.78 34.2291C34.436 33.7085 34.3923 32.9868 34.6489 32.0699H35.5116C35.9211 31.1885 35.7519 30.7448 35.0148 30.7448Z" fill="#7D7D7D"/>
<path d="M42.8284 40.9318C41.7964 39.7782 41.2832 38.1751 41.2832 36.1224C41.2832 34.0697 41.862 32.4962 43.0249 31.4018C44.1824 30.3074 45.6621 29.7632 47.4529 29.7632C51.0837 29.7632 52.8309 31.739 52.689 35.6906H45.9187V36.7081C45.9187 38.4058 46.1207 39.6895 46.5193 40.5591C46.9178 41.4287 47.6167 41.8605 48.6104 41.8605C50.4668 41.8605 51.6843 40.7839 52.2576 38.6365L52.689 38.7134C52.3832 39.9616 51.8372 40.9318 51.0455 41.6239C50.2538 42.316 49.0636 42.665 47.4802 42.665C45.4109 42.6591 43.8603 42.0794 42.8284 40.9318ZM45.9405 35.17H48.4138V33.8982C48.4138 32.4962 48.3374 31.5379 48.1845 31.0232C48.0317 30.5145 47.7259 30.2542 47.2727 30.2542C46.8141 30.2542 46.481 30.5263 46.2626 31.0705C46.0442 31.6148 45.9405 32.5553 45.9405 33.8922V35.17V35.17Z" fill="#7D7D7D"/>
<path d="M57.619 40.9318C56.5871 39.7782 56.0684 38.1751 56.0684 36.1224C56.0684 34.0697 56.6471 32.4962 57.8101 31.4018C58.9676 30.3074 60.4472 29.7632 62.2381 29.7632C65.8689 29.7632 67.6161 31.739 67.4687 35.6906H60.6984V36.7081C60.6984 38.4058 60.9004 39.6895 61.299 40.5591C61.6975 41.4287 62.3964 41.8605 63.3847 41.8605C65.241 41.8605 66.4586 40.7839 67.0319 38.6365L67.4632 38.7134C67.1575 39.9616 66.6115 40.9318 65.8198 41.6239C65.0281 42.316 63.8378 42.665 62.2545 42.665C60.1961 42.6591 58.6509 42.0794 57.619 40.9318ZM60.7257 35.17H63.199V33.8982C63.199 32.4962 63.1226 31.5379 62.9697 31.0232C62.8168 30.5145 62.5111 30.2542 62.0579 30.2542C61.5993 30.2542 61.2662 30.5263 61.0478 31.0705C60.8294 31.6148 60.7257 32.5553 60.7257 33.8922V35.17V35.17Z" fill="#7D7D7D"/>
<path d="M70.7832 30.0176H76.5707V32.4075C76.8273 31.6089 77.2205 30.97 77.7446 30.4849C78.2742 29.9999 79.0714 29.7573 80.147 29.7573C82.6258 29.7573 83.8707 31.2066 83.8707 34.0993V41.9256H85.2138V42.3929H78.4217V41.9256H79.4044V33.4723C79.4044 32.4311 79.3389 31.7627 79.2134 31.4551C79.0878 31.1534 78.853 30.9996 78.5199 30.9996C78.0067 30.9996 77.5535 31.3663 77.1659 32.094C76.7728 32.8216 76.5762 33.7089 76.5762 34.7441V41.9256H77.6081V42.3929H70.7832V41.9256H72.1045V30.479H70.7832V30.0176Z" fill="#7D7D7D"/>
<path d="M89.5926 40.9318C88.5607 39.7782 88.042 38.1751 88.042 36.1224C88.042 34.0697 88.6207 32.4962 89.7837 31.4018C90.9412 30.3074 92.4208 29.7632 94.2117 29.7632C97.8425 29.7632 99.5897 31.739 99.4477 35.6906H92.6774V36.7081C92.6774 38.4058 92.8795 39.6895 93.278 40.5591C93.6766 41.4287 94.3755 41.8605 95.3692 41.8605C97.2255 41.8605 98.4431 40.7839 99.0164 38.6365L99.4477 38.7134C99.142 39.9616 98.596 40.9318 97.8043 41.6239C97.0126 42.316 95.8223 42.665 94.239 42.665C92.1751 42.6591 90.6245 42.0794 89.5926 40.9318ZM92.7047 35.17H95.1781V33.8982C95.1781 32.4962 95.1016 31.5379 94.9488 31.0232C94.7959 30.5145 94.4901 30.2542 94.037 30.2542C93.5783 30.2542 93.2453 30.5263 93.0269 31.0705C92.8085 31.6148 92.7047 32.5553 92.7047 33.8922V35.17Z" fill="#7D7D7D"/>
<path d="M110.734 30.7448C110.144 30.7448 109.62 31.1589 109.172 31.993C108.724 32.8271 108.5 33.815 108.5 34.9567V41.9253H110.204V42.3926H102.713V41.9253H104.034V30.4786H102.713V30.0113H108.5V32.5076C108.708 31.6262 109.106 30.9459 109.702 30.4668C110.291 29.9876 110.968 29.751 111.716 29.751C112.47 29.751 113.081 29.9817 113.551 30.4431C114.02 30.9045 114.261 31.5552 114.261 32.3952C114.261 33.2353 114.086 33.8801 113.731 34.3356C113.382 34.7852 112.841 35.0099 112.109 35.0099C111.383 35.0099 110.843 34.7497 110.499 34.2291C110.155 33.7085 110.111 32.9868 110.368 32.0699H111.23C111.634 31.1885 111.465 30.7448 110.734 30.7448Z" fill="#7D7D7D"/>
<path d="M116.514 30.4849V30.0176H123.476V30.4849H122.182L124.797 39.1216L127.582 30.4849H125.971V30.0176H129.356V30.4849H128.155L123.667 44.5048C123.137 46.1316 122.548 47.2733 121.892 47.924C121.237 48.5747 120.435 48.9 119.49 48.9C118.545 48.9 117.803 48.6634 117.257 48.1961C116.711 47.7288 116.443 47.1313 116.443 46.4037C116.443 45.6761 116.618 45.12 116.973 44.7414C117.322 44.3569 117.786 44.1676 118.365 44.1676C119.692 44.1676 120.358 44.7651 120.358 45.96C120.358 46.2203 120.309 46.5338 120.216 46.8947H119.375C119.244 47.291 119.233 47.6223 119.326 47.8826C119.424 48.1429 119.637 48.273 119.976 48.273C120.631 48.273 121.215 47.924 121.729 47.22C122.242 46.5161 122.728 45.4454 123.192 44.0079L123.721 42.3929H121.608L117.503 30.479H116.514V30.4849Z" fill="#7D7D7D"/>
<path d="M69.8007 14.7972C69.7352 14.7972 69.6697 14.7795 69.6096 14.7322C69.4513 14.6198 69.413 14.3891 69.5168 14.2175C70.7289 12.289 70.9254 10.816 71.1111 9.39038C71.1821 8.87572 71.2476 8.34332 71.3677 7.79908C71.6516 6.48582 72.012 5.39735 72.4706 4.49818C71.9137 4.40944 71.3568 4.30295 70.8162 4.19647C69.9263 4.02492 69.0036 3.84746 68.0918 3.75872C66.5138 3.61083 64.2971 3.72323 62.7356 5.12523C62.337 5.48608 61.8401 6.06581 61.7528 6.80526C61.7255 7.00639 61.5508 7.14837 61.3706 7.1247C61.185 7.10104 61.0484 6.91173 61.0757 6.7106C61.1959 5.73453 61.8074 5.001 62.3042 4.55733C64.0459 2.99561 66.4429 2.85955 68.1573 3.01927C69.0964 3.10801 70.0355 3.29139 70.9418 3.46294C71.5752 3.58717 72.2195 3.7114 72.8692 3.80013C73.2514 3.19674 73.6936 2.69392 74.1905 2.29166C74.9822 1.64686 76.2216 1.14403 77.3081 1.65869C77.7176 1.8539 78.1544 2.26799 78.1489 2.85364C78.1435 3.31506 77.8541 3.74098 77.3299 4.05451C76.4564 4.57508 75.3917 4.76437 73.9557 4.66972C73.71 4.65198 73.4588 4.62832 73.2131 4.59874C72.7272 5.48016 72.345 6.59229 72.0447 7.97063C71.9355 8.47937 71.87 8.97037 71.799 9.49686C71.597 11.0053 71.3895 12.5671 70.0901 14.6375C70.0191 14.744 69.9099 14.7972 69.8007 14.7972ZM73.6445 3.90069C73.7592 3.91252 73.8793 3.91844 73.9939 3.93027C75.2879 4.01901 76.238 3.85337 76.9969 3.40379C77.1334 3.32097 77.461 3.10209 77.461 2.84772C77.461 2.64067 77.2481 2.44546 77.0297 2.3449C76.2052 1.96038 75.2333 2.37447 74.5945 2.88913C74.2451 3.17308 73.9339 3.51026 73.6445 3.90069Z" fill="#7D7D7D"/>
<path d="M73.7801 14.9216C73.5398 14.9216 73.3596 14.8388 73.2286 14.7383C72.9665 14.5371 72.8136 14.1822 72.7973 13.7326C72.7754 13.0582 72.9993 12.4548 73.2177 11.8692C73.3705 11.461 73.518 11.0765 73.5726 10.6802C73.5726 10.6683 73.5726 10.6624 73.578 10.6506C73.5289 10.6624 73.4634 10.6861 73.3869 10.7334C72.2513 11.4669 71.0337 12.8985 70.1383 14.5667C70.04 14.7442 69.8325 14.8033 69.6687 14.7028C69.5049 14.6022 69.4503 14.3715 69.5432 14.194C70.4986 12.4193 71.8036 10.8872 73.0375 10.0945C73.5071 9.79281 73.9657 9.84014 74.1731 10.2187C74.2987 10.4376 74.2605 10.6861 74.2496 10.7926C74.1786 11.2776 74.0148 11.7213 73.851 12.1531C73.649 12.6855 73.4634 13.1943 73.4798 13.7089C73.4852 13.916 73.5398 14.0757 73.6217 14.1349C73.7364 14.2236 73.9766 14.1822 74.266 14.0166C74.5554 13.8509 74.8393 13.6557 75.1232 13.4664L75.2597 13.3718C75.5327 13.1884 75.7948 12.9991 76.0623 12.7979C75.9586 12.0289 76.1824 11.1179 76.652 10.5441C77.0833 10.0176 77.662 9.8224 78.279 9.99986C78.4756 10.059 78.6284 10.1655 78.7213 10.3134C78.8632 10.5441 78.8632 10.8458 78.7213 11.1652C78.4483 11.7686 77.935 12.1945 77.4873 12.5731L77.329 12.7092C77.1761 12.8394 77.0178 12.9695 76.8595 13.0937C76.9304 13.2594 77.0396 13.4487 77.2089 13.5551C77.3508 13.6439 77.5419 13.6853 77.8258 13.6912C78.7376 13.703 79.644 13.3658 80.3647 12.7506C80.4411 12.6855 80.5285 12.656 80.6268 12.6737C80.7196 12.6915 80.8015 12.7447 80.8561 12.8334C80.8561 12.8334 81.8389 14.0402 87.2496 14.0402H94.9973C95.1884 14.0402 95.3412 14.2059 95.3412 14.4129C95.3412 14.6199 95.1884 14.7856 94.9973 14.7856H87.2496C82.7616 14.7856 81.1182 13.9692 80.5558 13.5256C79.7532 14.129 78.8086 14.4247 77.8204 14.4366C77.5419 14.4366 77.1816 14.4011 76.8649 14.1999C76.641 14.052 76.4445 13.8273 76.3025 13.5315C76.0841 13.6912 75.8657 13.8509 75.6419 13.9988L75.5054 14.0935C75.2105 14.2946 74.9103 14.4957 74.6045 14.6732C74.266 14.8566 73.9984 14.9216 73.7801 14.9216ZM77.8695 10.6742C77.5911 10.6742 77.3563 10.7926 77.1597 11.0351C76.9086 11.3427 76.7503 11.816 76.723 12.2715C76.7776 12.2241 76.8376 12.1768 76.8922 12.1295L77.056 11.9934C77.4655 11.6503 77.8913 11.2954 78.0934 10.8458C78.1261 10.7689 78.1316 10.7216 78.1316 10.7097C78.0442 10.6802 77.9569 10.6742 77.8695 10.6742Z" fill="#7D7D7D"/>
<path d="M54.6704 14.9216H48.7737C48.5826 14.9216 48.4297 14.756 48.4297 14.5489C48.4297 14.3419 48.5826 14.1762 48.7737 14.1762H54.6704C60.9711 14.1762 62.5327 12.7979 62.549 12.7861C62.6255 12.7151 62.7237 12.6914 62.8166 12.6973C62.9148 12.7092 63.0022 12.7683 63.0568 12.8511C64.056 14.4247 64.9732 13.9929 65.006 13.9692C65.9615 13.6498 66.4146 12.4785 66.633 11.5438C66.8296 10.7156 66.9497 9.85195 67.0644 9.01194C67.179 8.2015 67.2937 7.3674 67.4793 6.55105C67.9434 4.49242 68.817 2.95437 70.0127 2.09661C70.1711 1.98421 70.384 2.03153 70.4877 2.20309C70.5915 2.37464 70.5478 2.60534 70.3895 2.71774C69.0627 3.66423 68.4348 5.42117 68.1454 6.72852C67.9707 7.50938 67.8561 8.33164 67.7469 9.12433C67.6267 9.98209 67.5066 10.8635 67.3046 11.7272C66.9279 13.3303 66.2181 14.3478 65.2571 14.6613C65.2517 14.6672 63.9741 15.3239 62.691 13.5669C61.9648 14.0106 59.8409 14.9216 54.6704 14.9216Z" fill="#7D7D7D"/>
<path d="M34.3216 61.7245L33.852 63.3513L33.0439 63.0792L34.3161 58.6958L35.7903 59.1986C36.2653 59.3643 36.5929 59.6068 36.7621 59.9381C36.9314 60.2693 36.9587 60.6479 36.8331 61.0738C36.713 61.4938 36.4891 61.7837 36.167 61.9434C35.8449 62.1091 35.4518 62.1091 34.9931 61.9493L34.3216 61.7245ZM36.0087 60.7899C36.0742 60.571 36.0687 60.3817 35.9868 60.2279C35.9104 60.0741 35.7466 59.9558 35.4954 59.8671L34.9167 59.6719L34.5236 61.0206L35.1023 61.2158C35.5773 61.3815 35.8776 61.2395 36.0087 60.7899Z" fill="#7D7D7D"/>
<path d="M42.2654 61.169L41.6811 63.7896C41.6047 64.1386 41.6156 64.4225 41.7194 64.6355C41.8231 64.8484 42.0087 64.9904 42.2763 65.0614C42.5438 65.1324 42.7622 65.0969 42.9478 64.9608C43.128 64.8248 43.2591 64.5822 43.3355 64.2273L43.9197 61.6067L44.7387 61.8197L44.1545 64.4403C44.0617 64.8543 43.9142 65.1856 43.7068 65.4341C43.4993 65.6825 43.2591 65.8423 42.9751 65.9132C42.6912 65.9842 42.3909 65.9842 42.0743 65.9014C41.5774 65.7713 41.2225 65.511 40.9986 65.1087C40.7748 64.7124 40.7311 64.2036 40.8676 63.5825L41.4518 60.9619L42.2654 61.169Z" fill="#7D7D7D"/>
<path d="M50.701 67.7408L50.0021 65.7945L49.6363 65.7295L49.3578 67.4923L48.5225 67.3385L49.2322 62.8071L50.8266 63.1029C51.3125 63.1916 51.6619 63.3869 51.8749 63.6945C52.0878 63.9962 52.1642 64.357 52.0987 64.777C52.0441 65.1201 51.9131 65.3923 51.7001 65.5875C51.4872 65.7827 51.2088 65.8951 50.8648 65.9069L51.6237 67.9064L50.701 67.7408ZM49.7291 65.1024L50.4171 65.2266C50.8921 65.3154 51.1705 65.132 51.2415 64.6706C51.2743 64.4517 51.2415 64.2742 51.1487 64.1263C51.0504 63.9843 50.8812 63.8897 50.6355 63.8424L49.9475 63.7181L49.7291 65.1024Z" fill="#7D7D7D"/>
<path d="M57.5096 64.8364L57.3949 66.0195L58.8855 66.1911L58.8199 66.8891L57.3294 66.7175L57.2093 67.948L58.88 68.1373L58.809 68.8708L56.292 68.5869L56.7343 64.02L59.2513 64.304L59.1803 65.0316L57.5096 64.8364Z" fill="#7D7D7D"/>
<path d="M72.6551 69.4034L71.8088 69.4093L69.8924 66.3036L69.9142 69.427L69.0679 69.4329L69.0352 64.8425L69.8814 64.8366L71.7979 67.9718L71.776 64.8248L72.6223 64.8188L72.6551 69.4034Z" fill="#7D7D7D"/>
<path d="M80.0702 68.0364L78.3777 68.1784L78.1429 69.1248L77.2529 69.2017L78.4814 64.5403L79.4478 64.4575L81.326 68.8527L80.4361 68.9296L80.0702 68.0364ZM79.7918 67.362L79.0329 65.4809L78.5469 67.4685L79.7918 67.362Z" fill="#7D7D7D"/>
<path d="M88.1348 63.2861L88.233 64.0078L87.0755 64.1912L87.5888 68.0186L86.748 68.1487L86.2347 64.3213L85.0827 64.5047L84.9844 63.783L88.1348 63.2861Z" fill="#7D7D7D"/>
<path d="M93.2061 62.2692L93.7303 64.9016C93.8013 65.2565 93.9214 65.4991 94.1015 65.6411C94.2763 65.783 94.5056 65.8244 94.7731 65.7594C95.0407 65.7002 95.2263 65.5642 95.3355 65.3512C95.4447 65.1442 95.4611 64.8602 95.3955 64.5112L94.8714 61.8788L95.6959 61.6895L96.22 64.3219C96.3019 64.736 96.3019 65.1027 96.2145 65.4222C96.1272 65.7416 95.9743 66.0019 95.7505 66.1971C95.5266 66.3983 95.2536 66.5343 94.9315 66.6053C94.4346 66.7236 94.0033 66.6526 93.6429 66.3983C93.2826 66.1439 93.0369 65.7061 92.9167 65.085L92.3926 62.4526L93.2061 62.2692Z" fill="#7D7D7D"/>
<path d="M103.433 64.227L102.024 62.8013L101.664 62.9137L102.122 64.6351L101.309 64.8895L100.135 60.4765L101.685 59.9914C102.16 59.8435 102.554 59.8553 102.865 60.0269C103.181 60.1984 103.389 60.4883 103.498 60.8965C103.585 61.2277 103.575 61.5354 103.465 61.8134C103.356 62.0914 103.149 62.3162 102.843 62.4937L104.328 63.943L103.433 64.227ZM101.505 62.3103L102.177 62.1033C102.641 61.9554 102.816 61.6655 102.695 61.2159C102.641 61.0029 102.537 60.8551 102.395 60.7722C102.248 60.6894 102.057 60.6835 101.822 60.7604L101.15 60.9674L101.505 62.3103Z" fill="#7D7D7D"/>
<path d="M108.396 58.4181L108.767 59.5362L110.181 58.986L110.4 59.6486L108.986 60.1988L109.373 61.3641L110.957 60.7489L111.186 61.441L108.805 62.3639L107.375 58.0395L109.756 57.1167L109.985 57.8029L108.396 58.4181Z" fill="#7D7D7D"/>
<path d="M77.8745 52.2666H63.7988V53.7514H77.8745V52.2666Z" fill="#7D7D7D"/>
<path d="M41.5612 13.738C39.7922 13.6551 37.7993 13.5013 35.7955 13.0754C35.4297 12.0816 35.2386 11.0168 35.0529 9.89283C34.9929 9.53198 34.9328 9.17114 34.8673 8.8162C34.5943 7.36689 34.1302 5.53306 32.94 4.23163C32.8417 4.12515 32.5905 3.84711 32.2192 3.84711C32.2138 3.84711 32.2138 3.84711 32.2083 3.84711C31.8098 3.84711 31.4767 4.14881 31.2856 4.66938C30.8597 5.85841 30.9525 7.14801 31.0617 8.0176C31.2365 9.43142 31.5586 10.5081 32.0718 11.3954C32.2247 11.6616 32.3994 11.9041 32.5851 12.123C31.7879 11.8036 30.9143 11.3776 30.0353 10.8157C29.9752 10.721 29.8933 10.65 29.8005 10.6145C29.391 8.04717 28.9488 5.41474 28.1734 2.88879C27.9114 2.03103 27.5292 1.1082 26.6774 0.735522C26.3498 0.593548 26.0277 0.599463 25.7711 0.753268C25.3561 1.00764 25.2851 1.51046 25.2579 1.70568C25.0395 3.29105 25.3398 5.23728 25.9786 7.04153C24.6245 5.5508 23.194 4.066 21.4359 3.03077C20.9063 2.71724 20.202 2.37414 19.4485 2.46287C19.1919 2.49245 18.9953 2.72315 18.9899 3.0071C18.968 4.04824 19.5249 5.01248 20.6934 5.9708C22.5115 7.45561 24.9685 8.26605 25.9786 8.55C26.4044 9.11198 26.8795 9.64438 27.4036 10.1413C24.9084 9.64438 22.2658 10.1295 20.0709 11.5669C19.9071 11.6734 19.8143 11.8686 19.8252 12.0698C19.8362 12.2709 19.9454 12.4543 20.1146 12.543C21.0155 13.0103 21.9928 13.1582 22.9592 13.1582C23.5926 13.1582 24.2205 13.0932 24.8101 13.0103C26.672 12.756 28.1735 12.3537 29.5111 11.774C30.2919 12.2709 31.1273 12.7146 32.0282 13.0873C30.9307 13.5368 29.7841 14.0692 28.8177 14.8974C27.6984 15.8557 26.9887 17.0862 26.8249 18.3699C26.743 18.9969 27.0159 19.2809 27.1852 19.3932C27.3162 19.482 27.4527 19.5116 27.5783 19.5116C27.824 19.5116 28.0369 19.3873 28.1243 19.3341C30.2864 18.08 32.0718 16.2166 33.7972 14.4183L34.3268 13.8681C34.6435 13.9568 34.9547 14.0337 35.2713 14.1106C35.2823 14.1166 35.2932 14.1166 35.3096 14.1166C37.4771 14.6075 39.6229 14.7732 41.5229 14.8619C41.5284 14.8619 41.5393 14.8619 41.5448 14.8619C41.8178 14.8619 42.0471 14.6253 42.058 14.3295C42.0689 14.016 41.8451 13.7557 41.5612 13.738ZM21.3103 5.06572C20.6934 4.5629 20.3002 4.08374 20.1255 3.61641C20.4149 3.69922 20.6934 3.84712 20.95 4.00092C22.1839 4.72854 23.265 5.71644 24.2805 6.76941C23.1121 6.27842 22.0693 5.68686 21.3103 5.06572ZM32.2411 5.07164C32.2411 5.06573 32.2411 5.06572 32.2466 5.05981C33.2239 6.15419 33.6224 7.75731 33.8572 9.04099C33.9227 9.39001 33.9828 9.74495 34.0429 10.0999C34.163 10.8157 34.2831 11.5492 34.4633 12.265C33.8736 11.9929 33.3331 11.4841 32.94 10.7979C32.5086 10.0526 32.2302 9.1179 32.0773 7.8638C31.9299 6.66293 31.979 5.80517 32.2411 5.07164ZM26.2734 1.85948C26.2789 1.81807 26.2843 1.78258 26.2898 1.75891C26.7484 1.96004 27.005 2.61667 27.1907 3.22598C27.8349 5.34375 28.2499 7.56801 28.6102 9.75678C28.5993 9.74495 28.5884 9.73903 28.5775 9.7272C26.9614 7.68041 25.9513 4.24346 26.2734 1.85948ZM24.6791 11.8982C23.7182 12.0284 22.6535 12.1171 21.6652 11.91C23.5161 11.0405 25.6455 10.8157 27.6056 11.2889C26.7375 11.5492 25.7711 11.7444 24.6791 11.8982ZM27.9004 18.1924C28.097 17.311 28.643 16.4591 29.4565 15.767C30.2701 15.0749 31.2255 14.6076 32.4049 14.1225C32.5141 14.0811 32.6178 14.0337 32.7216 13.9982C31.231 15.5363 29.6804 17.098 27.9004 18.1924Z" fill="#7D7D7D"/>
<path d="M123.05 11.5494C120.855 10.1119 118.218 9.62678 115.717 10.1237C116.241 9.62678 116.716 9.09437 117.142 8.53239C118.152 8.24844 120.604 7.43801 122.428 5.95319C123.596 5.00078 124.153 4.03062 124.131 2.98948C124.126 2.71145 123.929 2.47482 123.672 2.44525C122.908 2.36243 122.209 2.70553 121.685 3.01314C119.927 4.04837 118.496 5.52728 117.142 7.02392C117.781 5.21966 118.081 3.27934 117.863 1.69396C117.836 1.50466 117.77 0.995921 117.35 0.74155C117.093 0.587744 116.771 0.58183 116.443 0.723804C115.592 1.09649 115.21 2.01932 114.953 2.87708C114.183 5.39713 113.741 8.03548 113.326 10.6029C113.228 10.6383 113.151 10.7153 113.091 10.8099C112.212 11.3719 111.338 11.7978 110.541 12.1173C110.727 11.8925 110.896 11.6499 111.049 11.3896C111.562 10.5023 111.884 9.42565 112.059 8.01183C112.168 7.14223 112.261 5.85263 111.835 4.66359C111.644 4.13711 111.289 3.81766 110.902 3.84133C110.53 3.84724 110.279 4.12527 110.181 4.22584C108.985 5.53318 108.521 7.36111 108.248 8.81043C108.183 9.17128 108.123 9.53213 108.063 9.89298C107.877 11.0169 107.686 12.0758 107.32 13.0697C105.316 13.4956 103.323 13.6494 101.554 13.7322C101.27 13.744 101.052 14.0043 101.063 14.3119C101.074 14.6136 101.303 14.8443 101.576 14.8443C101.582 14.8443 101.593 14.8443 101.598 14.8443C103.498 14.7556 105.644 14.59 107.811 14.099C107.822 14.099 107.833 14.0931 107.844 14.0931C108.161 14.0221 108.472 13.9393 108.789 13.8505L109.313 14.3948C111.038 16.1931 112.824 18.0565 114.986 19.3106C115.073 19.3639 115.286 19.4822 115.532 19.4822C115.657 19.4822 115.794 19.4526 115.925 19.3639C116.094 19.2515 116.367 18.9734 116.285 18.3464C116.121 17.0686 115.412 15.8322 114.292 14.8739C113.326 14.0516 112.179 13.5192 111.082 13.0637C111.977 12.6911 112.813 12.2533 113.593 11.7564C114.931 12.3361 116.438 12.7266 118.305 12.9868C118.895 13.0697 119.523 13.1347 120.156 13.1347C121.117 13.1347 122.1 12.9868 122.995 12.5195C123.165 12.4308 123.279 12.2474 123.285 12.0463C123.307 11.851 123.214 11.6558 123.05 11.5494ZM122.176 4.00105C122.433 3.85316 122.711 3.69935 122.995 3.61653C122.821 4.08386 122.422 4.56303 121.805 5.06585C121.046 5.68699 120.003 6.27855 118.84 6.76955C119.861 5.71065 120.948 4.72867 122.176 4.00105ZM115.93 3.2261C116.116 2.61088 116.367 1.96016 116.831 1.75903C116.837 1.7827 116.842 1.81819 116.848 1.8596C117.17 4.24358 116.16 7.68055 114.538 9.73326C114.527 9.73917 114.516 9.75101 114.505 9.75693C114.871 7.56815 115.286 5.34388 115.93 3.2261ZM109.078 10.1C109.138 9.7451 109.198 9.39016 109.264 9.04113C109.504 7.76337 109.903 6.16024 110.88 5.05994C110.88 5.06585 110.88 5.06586 110.885 5.07177C111.147 5.79939 111.197 6.66307 111.049 7.86985C110.896 9.11804 110.623 10.0527 110.186 10.804C109.799 11.4784 109.253 11.993 108.663 12.2651C108.838 11.5434 108.958 10.8099 109.078 10.1ZM115.226 18.1926C113.441 17.0982 111.89 15.5424 110.399 13.9866C110.503 14.028 110.612 14.0694 110.721 14.1167C111.906 14.6018 112.862 15.0691 113.67 15.7613C114.483 16.4593 115.029 17.3111 115.226 18.1926ZM118.442 11.8984C117.344 11.7505 116.383 11.5493 115.515 11.295C117.475 10.8217 119.61 11.0406 121.456 11.9161C120.473 12.1172 119.408 12.0285 118.442 11.8984Z" fill="#7D7D7D"/>
<path d="M2.33139 38.9029C3.61898 38.9029 4.66278 37.772 4.66278 36.377C4.66278 34.982 3.61898 33.8511 2.33139 33.8511C1.0438 33.8511 0 34.982 0 36.377C0 37.772 1.0438 38.9029 2.33139 38.9029Z" fill="#7D7D7D"/>
<path d="M137.104 38.9029C138.391 38.9029 139.435 37.772 139.435 36.377C139.435 34.982 138.391 33.8511 137.104 33.8511C135.816 33.8511 134.772 34.982 134.772 36.377C134.772 37.772 135.816 38.9029 137.104 38.9029Z" fill="#7D7D7D"/>
</svg>
