<svg width="106" height="114" viewBox="0 0 106 114" fill="none" xmlns="http://www.w3.org/2000/svg">
<path d="M10.5487 85.0763C10.8817 85.0408 11.1984 85.1117 11.5042 85.2892C11.8099 85.4608 12.0829 85.7388 12.3177 86.1115L13.093 87.3419L9.89344 89.7022L9.11817 88.4718C8.8834 88.0932 8.74143 87.7205 8.70321 87.3537C8.66499 86.9811 8.71955 86.638 8.86697 86.3185C9.01439 85.9991 9.25465 85.7211 9.57132 85.4844C9.89346 85.2419 10.2211 85.1117 10.5487 85.0763ZM10.9691 85.9222C10.6579 85.8512 10.3412 85.934 10.0136 86.1765C9.68601 86.4191 9.49489 86.709 9.44029 87.0461C9.38569 87.3833 9.47851 87.7383 9.71329 88.1109L10.0136 88.5901L12.0829 87.0639L11.7826 86.5847C11.5533 86.2179 11.2803 85.9991 10.9691 85.9222Z" fill="#7D7D7D"/>
<path d="M6.12067 81.6809L7.0161 81.1959L6.40459 79.8649L6.93419 79.5809L7.5457 80.9119L8.47932 80.4091L7.79683 78.9184L8.34829 78.6167L9.37476 80.8528L5.91319 82.7221L4.88672 80.486L5.43818 80.1902L6.12067 81.6809Z" fill="#7D7D7D"/>
<path d="M5.64598 72.6294C5.83707 72.6709 6.00631 72.7714 6.16465 72.937C6.32299 73.0968 6.4486 73.3216 6.54142 73.6055C6.62878 73.8835 6.66697 74.1557 6.65059 74.4041C6.63421 74.6585 6.56322 74.8833 6.43764 75.0785C6.31207 75.2737 6.14284 75.4216 5.9299 75.5222L5.6623 74.6822C5.80426 74.6053 5.90804 74.4988 5.96809 74.3509C6.03361 74.203 6.03362 74.0373 5.97356 73.854C5.91896 73.6883 5.84249 73.5759 5.73329 73.5227C5.62409 73.4695 5.50402 73.4635 5.37844 73.5109C5.26378 73.5523 5.18184 73.6233 5.1327 73.7238C5.08356 73.8244 5.05085 73.9368 5.03993 74.061C5.02901 74.1852 5.02354 74.3568 5.029 74.5698C5.029 74.8478 5.0235 75.0726 4.9962 75.2619C4.97436 75.4453 4.90885 75.6227 4.79965 75.7825C4.69045 75.9481 4.52663 76.0723 4.29731 76.1551C3.98609 76.2734 3.69674 76.2439 3.43466 76.0664C3.17258 75.8889 2.98151 75.5991 2.85047 75.1968C2.71397 74.7768 2.70302 74.41 2.81221 74.0906C2.91595 73.7712 3.12343 73.5404 3.42373 73.3866L3.69673 74.2385C3.57115 74.3095 3.48379 74.41 3.42919 74.5402C3.37459 74.6703 3.37459 74.8182 3.42919 74.9838C3.47287 75.1317 3.54933 75.2323 3.64761 75.2974C3.74589 75.3624 3.86601 75.3684 3.99705 75.3151C4.10625 75.2737 4.18265 75.2086 4.23179 75.114C4.28093 75.0193 4.30825 74.9069 4.31917 74.7827C4.33009 74.6585 4.33556 74.4929 4.3301 74.2917C4.3301 74.0078 4.34099 73.7712 4.36283 73.5819C4.38467 73.3985 4.45025 73.221 4.55945 73.0554C4.66865 72.8897 4.83787 72.7596 5.07265 72.6708C5.26375 72.5999 5.45488 72.5821 5.64598 72.6294Z" fill="#7D7D7D"/>
<path d="M1.19531 68.5839L4.96811 67.667L5.13733 68.4833L1.36453 69.4003L1.19531 68.5839Z" fill="#7D7D7D"/>
<path d="M0.458756 60.8337C0.660771 60.4728 0.950136 60.2243 1.33779 60.0883L1.41423 60.9638C1.24498 61.0644 1.11936 61.2122 1.032 61.4015C0.944645 61.5908 0.911923 61.8097 0.933762 62.0523C0.955602 62.2948 1.02658 62.5019 1.14124 62.6734C1.26136 62.8509 1.41969 62.9751 1.61625 63.0579C1.8128 63.1407 2.04211 63.1703 2.29327 63.1407C2.6973 63.0993 3.00301 62.9455 3.20502 62.6912C3.40704 62.4309 3.49444 62.0996 3.45622 61.6973C3.42892 61.3956 3.32514 61.1472 3.13951 60.952C2.95387 60.7567 2.71367 60.6384 2.41883 60.6089L2.5444 62.0227L1.99295 62.0819L1.80186 59.97L2.5444 59.8931C2.80647 59.9226 3.04669 60.0173 3.28147 60.1652C3.51078 60.3131 3.70191 60.5201 3.86025 60.7863C4.01312 61.0466 4.11141 61.3601 4.13871 61.721C4.17692 62.1292 4.12778 62.5019 3.99128 62.8331C3.85478 63.1644 3.64729 63.4306 3.36338 63.6317C3.08493 63.8329 2.7519 63.9571 2.36971 63.9985C1.98752 64.0399 1.64353 63.9867 1.32686 63.8506C1.01564 63.7086 0.759022 63.4957 0.567927 63.1999C0.371371 62.91 0.256706 62.5551 0.218487 62.1469C0.180268 61.6263 0.25674 61.1945 0.458756 60.8337Z" fill="#7D7D7D"/>
<path d="M4.02942 52.2739L3.99123 53.1081L1.27767 54.8414L3.90385 54.9833L3.86566 55.8175L0 55.6104L0.0382567 54.7763L2.77368 53.043L0.125634 52.901L0.163824 52.0669L4.02942 52.2739Z" fill="#7D7D7D"/>
<path d="M6.09302 40.9638L5.2631 41.372C5.32315 41.4252 5.3723 41.4666 5.40506 41.5021C5.54702 41.6204 5.64532 41.7801 5.69992 41.9813C5.75452 42.1824 5.74905 42.4013 5.68899 42.6261C5.61801 42.8804 5.51428 43.0875 5.3614 43.2472C5.21399 43.4069 5.03923 43.5134 4.84267 43.5607C4.64611 43.6081 4.43869 43.6021 4.22029 43.5311C4.00736 43.4661 3.83259 43.3596 3.69063 43.2176C3.55413 43.0757 3.4613 42.9159 3.41217 42.7325C3.36303 42.5492 3.36302 42.3658 3.4067 42.1706L3.29206 42.2061C3.17194 42.2534 3.06275 42.277 2.95355 42.2889C2.84435 42.3007 2.72969 42.2889 2.61503 42.2475C2.46216 42.2001 2.3366 42.1114 2.2274 41.9872C2.1182 41.863 2.04721 41.6973 2.01445 41.5021C1.97623 41.3069 1.99259 41.0939 2.05811 40.8573C2.15093 40.5201 2.28744 40.2776 2.47854 40.1415C2.66963 39.9996 2.8826 39.9404 3.11737 39.9581C3.23203 39.9522 3.35216 39.97 3.46682 40.0055L3.56506 40.041L3.36304 40.7863C3.27569 40.7567 3.21565 40.7449 3.18289 40.739C3.05731 40.7035 2.94806 40.7094 2.86071 40.7627C2.77335 40.8159 2.71331 40.9046 2.67509 41.0348C2.64233 41.1531 2.64781 41.2537 2.69695 41.3424C2.74063 41.4311 2.8116 41.4903 2.89896 41.5199C2.98086 41.5435 3.05186 41.5494 3.12284 41.5317C3.18836 41.5139 3.28117 41.4844 3.39037 41.4311L6.31689 40.1297L6.09302 40.9638ZM5.03929 41.9813C4.97377 41.8452 4.86998 41.7565 4.72257 41.7092C4.56969 41.6618 4.42231 41.6796 4.29128 41.7683C4.15478 41.857 4.06736 41.9813 4.02368 42.1469C3.98 42.3007 3.99094 42.4427 4.051 42.5728C4.11106 42.703 4.22025 42.7917 4.38405 42.839C4.54785 42.8923 4.68983 42.8745 4.81541 42.7917C4.94099 42.7089 5.02833 42.5847 5.07201 42.4249C5.11569 42.2652 5.1048 42.1173 5.03929 41.9813Z" fill="#7D7D7D"/>
<path d="M9.21695 29.0379C9.43534 28.9965 9.6483 29.0379 9.85578 29.1622C10.1397 29.3337 10.3089 29.5763 10.369 29.878C10.429 30.1856 10.3526 30.5287 10.1506 30.9191L9.33712 32.4868L5.96289 30.434L6.76001 28.896C6.9511 28.5292 7.17501 28.2867 7.42616 28.1802C7.67732 28.0737 7.93936 28.1033 8.21235 28.2689C8.41983 28.3991 8.5618 28.5588 8.63824 28.7599C8.70922 28.961 8.7147 29.1681 8.6601 29.387C8.81297 29.1977 8.99855 29.0794 9.21695 29.0379ZM7.75374 30.5701L8.09225 29.9135C8.18507 29.7301 8.22326 29.5704 8.19596 29.4284C8.16866 29.2864 8.08678 29.174 7.94482 29.0912C7.80287 29.0084 7.67184 28.9847 7.54626 29.032C7.42069 29.0794 7.31149 29.1977 7.20776 29.3929L6.87471 30.0377L7.75374 30.5701ZM9.63737 30.2211C9.61553 30.0673 9.52818 29.949 9.37531 29.8602C9.22789 29.7715 9.08046 29.7537 8.94942 29.807C8.81292 29.8661 8.69279 29.9904 8.59452 30.1797L8.23968 30.8659L9.16783 31.4279L9.5282 30.7357C9.62648 30.5405 9.66467 30.369 9.63737 30.2211Z" fill="#7D7D7D"/>
<path d="M13.9718 24.7255L12.2246 24.5244L12.0226 24.8202L13.2238 25.8022L12.7596 26.4706L9.6748 23.9387L10.5648 22.6669C10.8378 22.2765 11.1272 22.0517 11.4438 21.9925C11.7605 21.9333 12.0608 22.0162 12.3501 22.2528C12.5849 22.4421 12.7269 22.6728 12.787 22.9449C12.847 23.217 12.8088 23.501 12.6778 23.8086L14.4905 23.9861L13.9718 24.7255ZM11.5967 24.4652L11.9789 23.9151C12.2464 23.5306 12.2246 23.217 11.9134 22.9567C11.766 22.8325 11.6185 22.7852 11.4656 22.8089C11.3182 22.8325 11.1763 22.9449 11.0398 23.1401L10.6576 23.6903L11.5967 24.4652Z" fill="#7D7D7D"/>
<path d="M17.9131 18.6795L16.8375 19.8863L17.2088 20.6849L16.641 21.3237L14.8828 17.3307L15.4943 16.6445L19.229 18.4251L18.6611 19.0581L17.9131 18.6795ZM17.3507 18.4015L15.7837 17.6147L16.5591 19.2888L17.3507 18.4015Z" fill="#7D7D7D"/>
<path d="M24.504 13.8703L23.8871 14.3731L20.9279 13.2136L22.5003 15.4971L21.8833 15.9999L19.5684 12.6457L20.1853 12.1429L23.1609 13.3201L21.5721 11.0189L22.1891 10.5161L24.504 13.8703Z" fill="#7D7D7D"/>
<path d="M29.9967 9.17953C29.9913 9.54037 29.8984 9.87756 29.7073 10.1911C29.5162 10.5046 29.2378 10.7649 28.8665 10.9838L27.6544 11.6936L25.8145 8.00233L27.0265 7.29247C27.3978 7.07359 27.7527 6.96711 28.0967 6.9612C28.4407 6.95528 28.7519 7.04993 29.0303 7.24514C29.3088 7.44035 29.5436 7.71839 29.7237 8.09106C29.9094 8.45191 30.0022 8.81868 29.9967 9.17953ZM29.1723 9.54629C29.2706 9.22093 29.2214 8.866 29.0358 8.49332C28.8447 8.11473 28.599 7.87811 28.2932 7.78346C27.9875 7.69473 27.6545 7.75388 27.2887 7.96684L26.8136 8.24487L28.0039 10.6347L28.4734 10.3567C28.8447 10.1438 29.074 9.87164 29.1723 9.54629Z" fill="#7D7D7D"/>
<path d="M33.2891 4.15674L34.7032 8.06101L33.9825 8.36861L32.5684 4.46435L33.2891 4.15674Z" fill="#7D7D7D"/>
<path d="M41.4413 5.83106L40.6933 6.03811L38.3619 3.74877L39.0171 6.50544L38.2691 6.71248L37.3027 2.65438L38.0507 2.44733L40.393 4.76034L39.7269 1.97999L40.4749 1.77295L41.4413 5.83106Z" fill="#7D7D7D"/>
<path d="M47.6979 0.932749C48.0309 1.14571 48.2602 1.46515 48.3912 1.87925L47.5832 1.96798C47.4904 1.7846 47.3539 1.64854 47.1791 1.5598C47.0044 1.46515 46.8024 1.42966 46.5786 1.45924C46.3602 1.4829 46.1691 1.5598 46.0053 1.68995C45.8469 1.82009 45.7268 1.99165 45.6558 2.20461C45.5794 2.41757 45.5575 2.66603 45.5848 2.94406C45.6285 3.38182 45.7705 3.70718 46.0107 3.92605C46.251 4.14493 46.5568 4.23367 46.9335 4.19226C47.2065 4.16268 47.4358 4.04437 47.616 3.84324C47.7961 3.6421 47.8998 3.38182 47.9271 3.06237L46.6222 3.21026L46.5676 2.61279L48.5114 2.39391L48.5878 3.19843C48.5605 3.48238 48.4786 3.74859 48.3421 3.99704C48.2056 4.2455 48.0199 4.45846 47.7743 4.6241C47.534 4.78973 47.2447 4.89622 46.9171 4.93171C46.5404 4.97312 46.1964 4.91988 45.8906 4.77791C45.5849 4.63001 45.3337 4.40522 45.1481 4.10352C44.957 3.80183 44.8423 3.44097 44.8041 3.02688C44.7659 2.61279 44.8041 2.2401 44.9352 1.89699C45.0607 1.5598 45.2627 1.28177 45.5303 1.06881C45.7978 0.855848 46.1254 0.725703 46.5021 0.684294C46.9662 0.636969 47.3703 0.719786 47.6979 0.932749Z" fill="#7D7D7D"/>
<path d="M60.0483 112.169L60.2885 113.701L59.5241 113.843L58.8799 109.709L60.2667 109.454C60.7144 109.371 61.0748 109.425 61.3424 109.62C61.6099 109.815 61.7736 110.111 61.8337 110.513C61.8938 110.909 61.8282 111.241 61.6262 111.519C61.4242 111.797 61.1075 111.974 60.6762 112.057L60.0483 112.169ZM61.0639 110.655C61.0311 110.448 60.9547 110.3 60.8345 110.211C60.7144 110.123 60.5343 110.099 60.294 110.14L59.748 110.241L59.9446 111.513L60.4906 111.412C60.9383 111.323 61.1294 111.075 61.0639 110.655Z" fill="#7D7D7D"/>
<path d="M68.1015 111.696L66.7966 110.419L66.469 110.525L66.9058 112.087L66.1687 112.329L65.0439 108.319L66.4526 107.851C66.884 107.709 67.2443 107.715 67.5337 107.869C67.8231 108.023 68.0196 108.283 68.1233 108.656C68.2107 108.957 68.1998 109.235 68.1015 109.496C68.0033 109.75 67.8176 109.963 67.5446 110.129L68.9205 111.424L68.1015 111.696ZM66.3161 109.975L66.9222 109.774C67.3426 109.632 67.5009 109.36 67.3863 108.957C67.3317 108.762 67.2388 108.632 67.1023 108.555C66.9713 108.484 66.7911 108.478 66.5782 108.549L65.9722 108.75L66.3161 109.975Z" fill="#7D7D7D"/>
<path d="M72.016 106.325L72.4255 107.319L73.6759 106.715L73.9161 107.301L72.6658 107.904L73.0916 108.933L74.4948 108.253L74.746 108.868L72.6385 109.886L71.0605 106.059L73.1681 105.041L73.4193 105.65L72.016 106.325Z" fill="#7D7D7D"/>
<path d="M79.8779 100.93L81.9089 104.444L81.2592 104.888L79.8451 102.439L80.4293 105.456L79.8615 105.84L77.6174 103.965L79.0261 106.408L78.3709 106.852L76.3398 103.338L77.1315 102.8L79.6431 104.775L79.0807 101.48L79.8779 100.93Z" fill="#7D7D7D"/>
<path d="M83.4053 97.9248L85.8513 101.172L85.2507 101.705L82.8047 98.4572L83.4053 97.9248Z" fill="#7D7D7D"/>
<path d="M86.7091 94.689L88.3416 96.3986C88.56 96.6293 88.7675 96.7476 88.9695 96.7595C89.1716 96.7713 89.3626 96.6767 89.5373 96.4814C89.7066 96.2862 89.7885 96.0851 89.7721 95.8662C89.7558 95.6473 89.6411 95.4225 89.4227 95.1977L87.7956 93.4881L88.3307 92.8906L89.9632 94.6003C90.2198 94.8724 90.3891 95.1504 90.4765 95.4403C90.5584 95.7301 90.5639 96.0141 90.4874 96.2862C90.411 96.5583 90.269 96.8127 90.0615 97.0493C89.7394 97.4102 89.3791 97.5936 88.9859 97.5995C88.5928 97.6054 88.2052 97.4102 87.8175 97.002L86.1904 95.2924L86.7091 94.689Z" fill="#7D7D7D"/>
<path d="M93.2064 86.2539L96.3021 88.6853L95.849 89.3596L93.6869 87.6618L95.2702 90.2174L94.8771 90.8031L92.1526 89.9749L94.3038 91.6668L93.8506 92.3411L90.7549 89.9098L91.3063 89.0875L94.3147 89.898L92.6549 87.0703L93.2064 86.2539Z" fill="#7D7D7D"/>
<path d="M102.313 77.688L101.418 77.9956C101.396 78.1553 101.352 78.3268 101.287 78.5043C101.15 78.8652 100.948 79.1609 100.681 79.3916C100.413 79.6164 100.107 79.7525 99.7634 79.7998C99.4195 79.8471 99.07 79.7939 98.7206 79.6342C98.3711 79.4804 98.0872 79.2556 97.8688 78.9598C97.6558 78.664 97.5248 78.3387 97.4811 77.9719C97.4375 77.6111 97.4811 77.2443 97.6176 76.8834C97.7541 76.5226 97.9561 76.2268 98.2237 76.002C98.4912 75.7772 98.797 75.6412 99.141 75.5939C99.485 75.5465 99.8289 75.5998 100.184 75.7536C100.511 75.8955 100.784 76.1026 100.992 76.3688C101.205 76.635 101.341 76.9308 101.407 77.262L102.674 76.7533L102.313 77.688ZM99.687 78.9716C99.8999 78.9539 100.086 78.877 100.249 78.7468C100.408 78.6167 100.533 78.4392 100.615 78.2085C100.703 77.9837 100.73 77.7589 100.697 77.546C100.664 77.333 100.582 77.1378 100.44 76.9603C100.299 76.7829 100.107 76.6468 99.8726 76.5403C99.6378 76.4339 99.4085 76.3925 99.1956 76.4102C98.9826 76.4279 98.797 76.5048 98.6332 76.635C98.4748 76.7651 98.3493 76.9426 98.2674 77.1733C98.1801 77.3981 98.1527 77.6229 98.1855 77.8359C98.2128 78.0488 98.3001 78.244 98.4421 78.4215C98.5841 78.599 98.7697 78.735 99.01 78.8415C99.2502 78.948 99.4741 78.9894 99.687 78.9716Z" fill="#7D7D7D"/>
<path d="M99.6495 70.5119L101.85 71.1094C102.145 71.1863 102.379 71.1804 102.56 71.0798C102.74 70.9793 102.86 70.7959 102.92 70.5297C102.98 70.2694 102.953 70.0505 102.838 69.8671C102.723 69.6897 102.521 69.5595 102.227 69.4767L100.026 68.8792L100.212 68.0747L102.412 68.6722C102.762 68.7668 103.035 68.9147 103.242 69.1218C103.45 69.3288 103.581 69.5714 103.641 69.8494C103.701 70.1274 103.695 70.4291 103.624 70.7426C103.51 71.2277 103.286 71.5827 102.953 71.8015C102.614 72.0204 102.188 72.0618 101.664 71.9198L99.4639 71.3224L99.6495 70.5119Z" fill="#7D7D7D"/>
<path d="M104.187 61.9878L104.017 63.656L104.76 64.0405L104.673 64.922L101.025 62.9402L101.118 61.9878L105.077 60.9053L104.989 61.7867L104.187 61.9878ZM103.586 62.1416L101.899 62.5676L103.46 63.3721L103.586 62.1416Z" fill="#7D7D7D"/>
<path d="M104.596 55.8533L104.574 54.4454L105.164 54.4336L105.197 56.6756L101.331 56.7466L101.32 55.9066L104.596 55.8533Z" fill="#7D7D7D"/>
<path d="M100.933 49.908L104.776 49.417L104.869 50.2511L101.025 50.742L100.933 49.908Z" fill="#7D7D7D"/>
<path d="M99.7578 43.1528L100.358 43.0049L100.593 44.1348L103.765 43.3539L103.935 44.1703L100.762 44.9511L100.997 46.0751L100.397 46.223L99.7578 43.1528Z" fill="#7D7D7D"/>
<path d="M97.7109 36.4146L100.523 36.8051L101.795 36.3022L102.062 37.0949L100.79 37.5978L98.8793 39.8752L98.5736 38.9702L99.8785 37.5031L98.0057 37.302L97.7109 36.4146Z" fill="#7D7D7D"/>
<path d="M34.2395 52.108C34.174 52.0666 34.1412 52.0133 34.1412 51.9482C34.1412 51.8063 34.2559 51.7116 34.4907 51.6584C34.791 51.5992 34.9985 51.4809 35.1131 51.3153C35.2278 51.1496 35.2878 50.9249 35.2878 50.6468V48.8603C35.2878 48.5645 35.2551 48.3161 35.1896 48.1209C35.124 47.9257 35.0257 47.7009 34.8892 47.4583L33.3004 44.82C33.1639 44.5952 33.0329 44.4118 32.9018 44.2758C32.7708 44.1397 32.5961 44.0391 32.3832 43.98C32.2958 43.9445 32.2303 43.909 32.1866 43.8735C32.1429 43.838 32.1211 43.7848 32.1211 43.702C32.1211 43.6428 32.1429 43.5955 32.1866 43.56C32.2303 43.5245 32.2848 43.5067 32.3504 43.5067C32.5251 43.5067 32.7217 43.5127 32.9401 43.5245C33.153 43.5363 33.3114 43.5422 33.4206 43.5422C33.7536 43.5659 34.0921 43.5836 34.4361 43.5836C34.5562 43.5836 34.6982 43.5777 34.8511 43.5718C35.0094 43.5659 35.1295 43.5541 35.2223 43.5481C35.5772 43.5127 35.8611 43.4949 36.0686 43.4949C36.1396 43.4949 36.216 43.5127 36.287 43.5541C36.358 43.5955 36.3962 43.6369 36.3962 43.6901C36.3962 43.8203 36.2815 43.9149 36.0577 43.98C35.8011 44.0391 35.6209 44.1042 35.5226 44.1752C35.4243 44.2462 35.3752 44.3527 35.3752 44.5006C35.3752 44.6425 35.4189 44.7963 35.5062 44.962L36.7784 47.3104C36.833 47.4228 36.8985 47.482 36.9695 47.482C37.0241 47.482 37.0841 47.4228 37.1497 47.3104C37.5755 46.4823 37.9359 45.7192 38.2253 45.027C38.3072 44.8377 38.3454 44.6662 38.3454 44.5301C38.3454 44.3645 38.2744 44.2344 38.1379 44.1456C38.0014 44.0569 37.8376 43.9977 37.652 43.98C37.5646 43.9741 37.4827 43.9386 37.4063 43.8794C37.3298 43.8203 37.2916 43.7611 37.2916 43.6901C37.2916 43.6369 37.3298 43.5955 37.4008 43.56C37.4718 43.5245 37.5537 43.5067 37.6411 43.5067C37.8758 43.5067 38.0997 43.5186 38.3181 43.5481C38.5911 43.5659 38.804 43.5718 38.946 43.5718C39.0607 43.5718 39.2463 43.5541 39.5029 43.5186C39.7595 43.4831 39.9834 43.4653 40.169 43.4653C40.4093 43.4653 40.5348 43.5422 40.5348 43.6901C40.5348 43.7611 40.513 43.8084 40.4693 43.8439C40.4256 43.8735 40.3765 43.8972 40.3219 43.9149C40.2673 43.9327 40.2345 43.9445 40.2181 43.9563C39.9834 44.0273 39.7759 44.1338 39.5957 44.2758C39.4155 44.4177 39.2736 44.5893 39.1753 44.7786C38.9023 45.2696 38.6894 45.6304 38.5474 45.867C38.1106 46.6479 37.8212 47.1685 37.6738 47.4288C37.4499 47.8547 37.3353 48.2924 37.3353 48.7302V50.635C37.3353 50.9663 37.3899 51.197 37.4936 51.3212C37.5974 51.4454 37.8103 51.5578 38.1325 51.6584C38.2526 51.6939 38.3399 51.7294 38.4 51.7649C38.4546 51.8004 38.4819 51.8536 38.4819 51.9364C38.4819 51.9956 38.4491 52.0488 38.3891 52.0961C38.329 52.1375 38.2526 52.1612 38.1652 52.1612C37.9959 52.1612 37.6684 52.1435 37.1825 52.108C36.7293 52.0725 36.429 52.0547 36.2761 52.0547C36.1287 52.0547 35.8393 52.0725 35.4025 52.108C35.0367 52.1494 34.7255 52.173 34.458 52.173C34.387 52.173 34.3051 52.1553 34.2395 52.108Z" fill="#7D7D7D"/>
<path d="M44.9249 51.735C44.2751 51.3742 43.7565 50.8654 43.3688 50.2088C42.9812 49.5522 42.79 48.8068 42.79 47.9668C42.79 47.1623 42.9593 46.411 43.2978 45.713C43.6364 45.015 44.1332 44.453 44.7938 44.0271C45.449 43.6011 46.2353 43.3882 47.1362 43.3882C47.8842 43.3882 48.5885 43.5716 49.2382 43.9324C49.8879 44.2933 50.4066 44.8079 50.7943 45.4586C51.1819 46.1153 51.373 46.8606 51.373 47.7006C51.373 48.5051 51.2038 49.2564 50.8652 49.9544C50.5267 50.6525 50.0299 51.2145 49.3692 51.6404C48.7086 52.0663 47.9278 52.2793 47.0269 52.2793C46.2789 52.2793 45.5746 52.1018 44.9249 51.735ZM48.6813 50.7708C49.0143 50.1733 49.1836 49.3806 49.1836 48.3809C49.1836 47.6355 49.1017 46.9316 48.9379 46.2691C48.7741 45.6065 48.5175 45.0623 48.1736 44.6423C47.8296 44.2223 47.4037 44.0152 46.8959 44.0152C46.2735 44.0152 45.7985 44.311 45.4709 44.9085C45.1433 45.506 44.9795 46.2927 44.9795 47.2806C44.9795 48.0141 45.0614 48.7181 45.2252 49.3866C45.389 50.055 45.6456 50.6052 45.9841 51.0252C46.3226 51.4511 46.743 51.664 47.2453 51.664C47.8678 51.664 48.3482 51.3683 48.6813 50.7708Z" fill="#7D7D7D"/>
<path d="M56.2869 51.3268C55.6917 50.6938 55.3969 49.8302 55.3969 48.7358V45.0622C55.3969 44.8197 55.3423 44.589 55.2331 44.3878C55.1239 44.1808 54.9655 44.0506 54.769 43.9856C54.5506 43.9264 54.4414 43.8258 54.4414 43.6957C54.4414 43.6365 54.4741 43.5892 54.5342 43.5537C54.5942 43.5182 54.6707 43.5005 54.7581 43.5005C55.042 43.5005 55.3313 43.5123 55.6316 43.5419C56.0029 43.5596 56.265 43.5656 56.4179 43.5656C56.5708 43.5656 56.8547 43.5596 57.2751 43.5419C57.7119 43.5242 58.0177 43.5182 58.1979 43.5182C58.4053 43.5182 58.5145 43.5833 58.5145 43.7134C58.5145 43.7844 58.4817 43.8377 58.4162 43.885C58.3507 43.9264 58.2688 43.9678 58.1651 44.0092C58.0613 44.0506 57.9795 44.0861 57.9194 44.1216C57.6191 44.2813 57.4716 44.6185 57.4716 45.145V48.5287C57.4716 49.351 57.6464 49.9721 57.9904 50.3981C58.3398 50.824 58.7766 51.0369 59.3116 51.0369C60.0324 51.0369 60.5675 50.8121 60.9169 50.3685C61.2663 49.9248 61.441 49.2268 61.441 48.2803C61.441 47.9135 61.4465 47.6296 61.452 47.4284L61.4629 46.4464C61.4629 46.1684 61.4574 45.9673 61.452 45.8431C61.4465 45.4231 61.4192 45.1036 61.3755 44.8788C61.3318 44.654 61.2663 44.4825 61.1735 44.3701C61.0861 44.2518 60.9497 44.1453 60.7749 44.0506C60.7203 44.0151 60.6439 43.9856 60.5565 43.9501C60.4692 43.9205 60.3982 43.885 60.349 43.8495C60.2999 43.814 60.2781 43.7726 60.2781 43.7194C60.2781 43.5892 60.3982 43.5242 60.6439 43.5242C60.8951 43.5242 61.1462 43.536 61.4083 43.5478L61.8669 43.5596C62.0143 43.5596 62.1891 43.5537 62.402 43.536C62.6095 43.5182 62.8061 43.5123 62.9808 43.5123C63.1828 43.5123 63.2865 43.5774 63.2865 43.7075C63.2865 43.8318 63.1828 43.9264 62.9698 43.9974C62.6968 44.0861 62.5003 44.2222 62.3911 44.4056C62.2764 44.589 62.2164 44.8492 62.2 45.1923C62.1618 46.2512 62.1399 47.3989 62.1399 48.6293C62.1399 49.3392 61.9925 49.9721 61.7031 50.5223C61.4137 51.0783 61.0207 51.5102 60.5238 51.8237C60.0269 52.1313 59.4755 52.291 58.8694 52.291C57.7392 52.2792 56.882 51.9657 56.2869 51.3268Z" fill="#7D7D7D"/>
<path d="M72.4093 52.031C72.0544 51.8062 71.7323 51.4808 71.443 51.0608C71.1536 50.6349 70.8915 50.2208 70.6676 49.8245C70.4438 49.4281 70.2254 48.9845 70.0125 48.4876C69.9306 48.2983 69.8323 48.1622 69.7231 48.0912C69.6357 48.032 69.5374 48.0025 69.4337 48.0025C69.3518 48.0025 69.3136 48.0912 69.3136 48.2628V50.8065C69.3136 51.0667 69.3791 51.2501 69.5156 51.3566C69.6466 51.4631 69.8978 51.5577 70.2581 51.6465C70.34 51.6642 70.3946 51.6938 70.4328 51.7352C70.471 51.7766 70.4875 51.8417 70.4875 51.9186C70.4875 52.0487 70.4219 52.1138 70.2909 52.1138L69.2371 52.0901L68.2543 52.0665C68.1069 52.0665 67.8175 52.0724 67.3807 52.0901C67.0586 52.1138 66.7419 52.1315 66.4362 52.1315C66.387 52.1315 66.3379 52.1138 66.2888 52.0724C66.2396 52.031 66.2178 51.9896 66.2178 51.9363C66.2178 51.7884 66.2942 51.6938 66.4471 51.6465C66.7638 51.5755 66.9767 51.4868 67.0859 51.3803C67.1951 51.2738 67.2497 51.0845 67.2497 50.8242V44.8672C67.2497 44.5892 67.2006 44.388 67.1023 44.2697C67.004 44.1514 66.8129 44.0568 66.5236 43.9858C66.3543 43.9444 66.2669 43.8497 66.2669 43.7078C66.2669 43.6486 66.2887 43.5954 66.3324 43.5599C66.3761 43.5185 66.4362 43.5007 66.5072 43.5007C66.7965 43.5007 67.1187 43.5185 67.4736 43.5539C67.7957 43.5894 68.0523 43.6072 68.238 43.6072C68.3909 43.6072 68.6147 43.5894 68.9041 43.5539C69.259 43.5007 69.6193 43.4771 69.9797 43.4771C70.9461 43.4771 71.6886 43.6545 72.2018 44.0035C72.7151 44.3526 72.9717 44.879 72.9717 45.5771C72.9717 46.1095 72.8188 46.5413 72.5131 46.8667C72.2073 47.192 71.8306 47.4287 71.3883 47.5706C71.3665 47.5766 71.3501 47.6002 71.3501 47.6357C71.3501 47.6712 71.3556 47.7008 71.372 47.7244C71.776 48.3811 72.1472 48.949 72.4858 49.4281C72.8243 49.9073 73.1574 50.3155 73.4795 50.6467C73.7306 50.9011 73.9872 51.0608 74.2602 51.1318C74.5278 51.2028 74.8554 51.2383 75.2376 51.2383C75.3577 51.2383 75.4177 51.3211 75.4177 51.4868C75.4177 52.0724 74.8991 52.3682 73.8671 52.3682C73.2502 52.3741 72.7642 52.2558 72.4093 52.031ZM70.684 47.1092C70.897 46.8134 71.0061 46.4053 71.0061 45.8906C71.0061 45.2754 70.9024 44.8258 70.6895 44.53C70.482 44.2402 70.1762 44.0923 69.7831 44.0923C69.6139 44.0923 69.4937 44.1751 69.4173 44.3348C69.3463 44.4945 69.3081 44.8199 69.3081 45.2991V47.056C69.3081 47.3872 69.4501 47.5529 69.734 47.5529C70.1544 47.5588 70.4711 47.4109 70.684 47.1092Z" fill="#7D7D7D"/>
<path d="M17.3084 67.6663C16.6096 67.3054 16.0581 66.7908 15.6486 66.14C15.2391 65.4834 15.0371 64.738 15.0371 63.898C15.0371 63.0935 15.2336 62.3422 15.6322 61.6442C16.0253 60.9461 16.5986 60.3841 17.3466 59.9582C18.0946 59.5323 18.9737 59.3193 19.9783 59.3193C20.3332 59.3193 20.7209 59.3667 21.1358 59.4554C21.5508 59.55 21.9111 59.6565 22.2059 59.7926C22.3697 59.8695 22.4571 59.9878 22.4735 60.1475C22.539 60.6267 22.5718 61.1591 22.5718 61.7329C22.5718 61.8098 22.55 61.869 22.5117 61.9104C22.4735 61.9518 22.4244 61.9695 22.3643 61.9695C22.3097 61.9695 22.2551 61.9518 22.2005 61.9104C22.1459 61.869 22.1077 61.8098 22.0858 61.7329C22.0039 61.4785 21.933 61.2715 21.8674 61.1177C21.8019 60.958 21.7091 60.816 21.589 60.6858C21.2122 60.2599 20.6389 60.041 19.8691 60.041C19.3449 60.041 18.8864 60.2008 18.4878 60.5202C18.0892 60.8396 17.7889 61.2656 17.576 61.798C17.363 62.3304 17.2539 62.9042 17.2539 63.5194C17.2539 64.738 17.4777 65.6964 17.9199 66.4062C18.3622 67.1161 19.0119 67.4711 19.8691 67.4711C20.4642 67.4711 20.9502 67.335 21.3214 67.0688C21.6927 66.8026 22.0039 66.3708 22.2551 65.7792C22.3097 65.6313 22.4025 65.5544 22.5226 65.5544C22.5772 65.5544 22.6263 65.5721 22.6591 65.6136C22.6973 65.655 22.7137 65.7082 22.7137 65.7792C22.7137 66.1815 22.6263 66.6961 22.4571 67.3291C22.4189 67.5066 22.3097 67.6367 22.1404 67.7254C21.4634 68.0567 20.6226 68.2223 19.6234 68.2223C18.7771 68.2105 18.0018 68.0271 17.3084 67.6663Z" fill="#7D7D7D"/>
<path d="M28.4249 67.6663C27.7752 67.3054 27.2565 66.7908 26.8688 66.1401C26.4812 65.4834 26.29 64.7381 26.29 63.898C26.29 63.0935 26.4593 62.3422 26.7978 61.6442C27.1364 60.9461 27.6332 60.3842 28.2939 59.9582C28.9491 59.5323 29.7353 59.3193 30.6362 59.3193C31.3842 59.3193 32.0885 59.5027 32.7383 59.8636C33.388 60.2244 33.9067 60.7391 34.2943 61.3898C34.682 62.0464 34.873 62.7918 34.873 63.6318C34.873 64.4364 34.7038 65.1876 34.3653 65.8857C34.0268 66.5837 33.5299 67.1457 32.8693 67.5716C32.2086 67.9976 31.4278 68.2105 30.527 68.2105C29.7735 68.2105 29.0746 68.0272 28.4249 67.6663ZM32.1759 66.702C32.5089 66.1046 32.6782 65.3119 32.6782 64.3121C32.6782 63.5668 32.5963 62.8628 32.4325 62.2002C32.2687 61.5377 32.012 60.9935 31.6681 60.5734C31.3241 60.1534 30.8982 59.9464 30.3905 59.9464C29.768 59.9464 29.293 60.2422 28.9654 60.8397C28.6378 61.4371 28.474 62.2239 28.474 63.2118C28.474 63.9454 28.556 64.6493 28.7198 65.3178C28.8835 65.9863 29.1401 66.5305 29.4786 66.9564C29.8171 67.3823 30.2376 67.5953 30.7399 67.5953C31.3623 67.5953 31.8428 67.2936 32.1759 66.702Z" fill="#7D7D7D"/>
<path d="M38.0781 67.8668C38.0781 67.8136 38.0946 67.7722 38.1328 67.7485C38.171 67.7248 38.2147 67.7012 38.2693 67.6834C38.3239 67.6657 38.3675 67.6479 38.4003 67.6302C38.6023 67.5415 38.7715 67.4113 38.9026 67.2338C39.0336 67.0564 39.121 66.8434 39.1483 66.589C39.2138 66.0921 39.2902 65.2462 39.383 64.0631C39.4759 62.88 39.536 62.1405 39.5578 61.8507L39.6069 61.2473C39.6124 61.194 39.6179 61.0461 39.6179 60.8036C39.6179 60.496 39.5141 60.283 39.3012 60.1588C39.0773 60.0286 38.8644 59.934 38.6733 59.8808C38.4549 59.8216 38.3457 59.721 38.3457 59.5909C38.3457 59.4489 38.4494 59.3839 38.6624 59.3839L39.5578 59.4075C40.5024 59.4312 41.0047 59.4489 41.0702 59.4489C41.1248 59.4489 41.1848 59.4726 41.2449 59.5258C41.3049 59.5791 41.3431 59.6323 41.3595 59.6855C41.496 60.0996 41.6107 60.4191 41.698 60.6439L43.4398 65.0924C43.4562 65.1279 43.4725 65.1456 43.4944 65.1456C43.5162 65.1456 43.5271 65.1279 43.538 65.0924L45.1214 60.9574C45.2361 60.3008 45.318 59.8808 45.3781 59.6974C45.4108 59.585 45.4763 59.5258 45.5855 59.5258H46.1315C46.3717 59.5199 46.5847 59.5022 46.7703 59.4844C46.9559 59.4667 47.1088 59.4548 47.2289 59.443C47.6493 59.4016 47.966 59.3779 48.1735 59.3779C48.381 59.3779 48.4902 59.4489 48.4902 59.585C48.4902 59.656 48.4683 59.7092 48.4247 59.7447C48.381 59.7802 48.31 59.8157 48.2117 59.8512C48.1571 59.8689 48.1025 59.8926 48.0588 59.9163C48.0151 59.9399 47.9824 59.9577 47.9551 59.9695C47.6985 60.0996 47.5183 60.2416 47.4146 60.3954C47.3109 60.5492 47.2726 60.7799 47.289 61.0994C47.3545 62.6907 47.4419 64.3884 47.5566 66.1927L47.5947 66.731C47.6275 67.1274 47.9169 67.4054 48.4683 67.571C48.5557 67.6065 48.6266 67.642 48.6703 67.6775C48.714 67.713 48.7358 67.7722 48.7358 67.8491C48.7358 67.9082 48.714 67.9615 48.6703 67.991C48.6266 68.0265 48.5721 68.0443 48.5066 68.0443L47.491 68.0206L46.5464 67.9969C46.399 67.9969 46.1096 68.0029 45.6728 68.0206C45.3507 68.0443 45.0341 68.062 44.7283 68.062C44.6573 68.062 44.5973 68.0443 44.5481 68.0088C44.499 67.9733 44.4772 67.926 44.4772 67.8668C44.4772 67.7189 44.5645 67.6243 44.7447 67.5769C45.0614 67.5 45.2743 67.4054 45.3835 67.293C45.4981 67.1865 45.5473 67.0031 45.5418 66.7488C45.5091 66.169 45.4763 65.2462 45.4436 63.9684C45.4381 63.4597 45.4162 62.8208 45.3835 62.0399C45.3835 61.9985 45.3726 61.9749 45.3453 61.9749C45.3234 61.9749 45.2961 62.0045 45.2743 62.0695L43.0685 67.9851C43.0303 68.0975 42.9702 68.1567 42.8883 68.1567C42.8064 68.1567 42.7409 68.1093 42.6918 68.0147C42.5171 67.5888 42.3478 67.1924 42.1894 66.8434C42.0311 66.4885 41.8946 66.169 41.7745 65.8792C41.0538 64.2524 40.5351 63.0042 40.213 62.1405C40.1911 62.0814 40.1584 62.0459 40.1147 62.0459C40.0492 62.0459 40.0109 62.1168 39.9946 62.2529C39.9727 62.7084 39.9564 63.2526 39.9564 63.8797L39.9673 65.4C39.9728 65.7076 39.9782 66.1276 39.9782 66.66C39.9782 66.9026 40.0491 67.0978 40.1966 67.2398C40.344 67.3817 40.5733 67.4941 40.9009 67.5829C41.1193 67.642 41.2285 67.7367 41.2285 67.8609C41.2285 67.92 41.1958 67.9733 41.1357 68.0029C41.0757 68.0384 41.0101 68.0561 40.9337 68.0561C40.6935 68.0561 40.4477 68.0502 40.2075 68.0324L39.6888 68.0206C39.4541 68.0206 39.192 68.0265 38.908 68.0384C38.6241 68.0502 38.4331 68.062 38.3457 68.0739C38.171 68.062 38.0781 67.9969 38.0781 67.8668Z" fill="#7D7D7D"/>
<path d="M51.9079 68.003C51.8588 67.9616 51.8369 67.9202 51.8369 67.867C51.8369 67.7191 51.9134 67.6244 52.0663 67.5771C52.3829 67.5061 52.5958 67.4174 52.705 67.305C52.8142 67.1985 52.8688 67.0092 52.8688 66.7489V60.7919C52.8688 60.5139 52.8197 60.3128 52.7214 60.1945C52.6231 60.0761 52.432 59.9815 52.1426 59.9105C51.9734 59.8691 51.886 59.7744 51.886 59.6325C51.886 59.5733 51.9079 59.5201 51.9516 59.4846C51.9952 59.4432 52.0553 59.4254 52.1263 59.4254C52.4157 59.4254 52.7214 59.4373 53.0326 59.4668C53.4366 59.4846 53.7151 59.4905 53.868 59.4905C54.0209 59.4905 54.2447 59.4728 54.5341 59.4373C54.889 59.384 55.2494 59.3604 55.6097 59.3604C56.6034 59.3604 57.3896 59.5911 57.9684 60.0466C58.5471 60.508 58.8419 61.135 58.8419 61.9277C58.8419 62.4956 58.7273 63.0162 58.5034 63.4835C58.2796 63.9508 57.9411 64.3235 57.4988 64.5957C57.0566 64.8737 56.5106 65.0097 55.8663 65.0097C55.6588 65.0097 55.495 64.9743 55.3749 64.9033C55.2602 64.8323 55.2002 64.7435 55.2002 64.643C55.2002 64.5838 55.2275 64.5306 55.2766 64.4892C55.3312 64.4478 55.3804 64.43 55.4295 64.43C55.495 64.43 55.5715 64.4418 55.6643 64.4655C55.7571 64.4892 55.839 64.501 55.91 64.501C56.2103 64.501 56.4396 64.2999 56.5979 63.9035C56.7617 63.5072 56.8382 62.9748 56.8382 62.3063C56.8382 61.4959 56.7344 60.8984 56.5215 60.5316C56.314 60.159 56.0028 59.9756 55.6042 59.9756C55.1511 59.9756 54.9272 60.2063 54.9272 60.6736L54.9163 66.7371C54.9163 66.9974 54.9818 67.1808 55.1183 67.2872C55.2493 67.3937 55.5005 67.4884 55.8608 67.5771C55.9427 67.5949 55.9973 67.6244 56.0355 67.6658C56.0738 67.7073 56.0902 67.7723 56.0902 67.8492C56.0902 67.9794 56.0246 68.0444 55.8936 68.0444L54.8398 68.0208L53.857 67.9971C53.7096 67.9971 53.4203 68.003 52.9835 68.0208C52.6613 68.0444 52.3447 68.0622 52.0389 68.0622C52.0062 68.0622 51.957 68.0444 51.9079 68.003Z" fill="#7D7D7D"/>
<path d="M60.7861 67.8673C60.7861 67.7904 60.808 67.7312 60.8516 67.6898C60.8953 67.6484 60.9608 67.6129 61.0537 67.5774C61.2939 67.5064 61.5014 67.3999 61.6761 67.252C61.8508 67.1042 61.9764 66.9326 62.0583 66.7374C62.8281 64.803 63.5161 62.9041 64.1276 61.0407C64.2259 60.7508 64.3023 60.4905 64.3569 60.2598C64.4115 60.0291 64.4497 59.9108 64.4661 59.9108C64.8156 59.8221 65.1159 59.7333 65.3725 59.6328C65.509 59.5795 65.64 59.5085 65.7601 59.4257C65.8802 59.337 65.9731 59.2542 66.0386 59.1773C66.1041 59.1418 66.1423 59.124 66.1587 59.124C66.1969 59.124 66.2297 59.1536 66.257 59.2187C66.3116 59.3488 66.3607 59.473 66.388 59.5854C66.8903 61.3542 67.4417 63.2354 68.0478 65.2289L68.4955 66.7374C68.6102 67.1397 68.9323 67.4177 69.462 67.5774C69.5493 67.6129 69.6203 67.6484 69.664 67.6839C69.7077 67.7194 69.7295 67.7785 69.7295 67.8554C69.7295 67.9146 69.7077 67.9678 69.664 67.9974C69.6203 68.0329 69.5657 68.0507 69.5002 68.0507C69.3364 68.0507 69.0142 68.0447 68.5283 68.027C68.026 68.0093 67.682 68.0033 67.4855 68.0033C67.3217 68.0033 67.0159 68.0093 66.5627 68.027C66.1914 68.0507 65.8529 68.0684 65.5472 68.0684C65.4762 68.0684 65.4162 68.0507 65.367 68.0152C65.3179 67.9797 65.296 67.9323 65.296 67.8732C65.296 67.7253 65.3834 67.6307 65.5636 67.5833C65.8475 67.5242 66.055 67.4473 66.186 67.3526C66.3225 67.258 66.388 67.1337 66.388 66.9681C66.388 66.8794 66.3825 66.8084 66.3662 66.7551L65.9895 65.2348C65.9731 65.1579 65.9512 65.0988 65.9239 65.0633C65.8966 65.0278 65.8529 65.01 65.7983 65.01H63.6908C63.6253 65.01 63.5816 65.0278 63.5598 65.0633C63.5379 65.0988 63.5106 65.152 63.4888 65.2348L63.3195 65.7968C63.2977 65.8915 63.2594 66.0216 63.2103 66.1754C63.1612 66.3351 63.123 66.4712 63.0902 66.5954C63.0574 66.7078 63.0411 66.8202 63.0411 66.9385C63.0411 67.1042 63.1011 67.2343 63.2158 67.323C63.3304 67.4177 63.5434 67.5005 63.8382 67.5774C64.0184 67.6188 64.1057 67.7194 64.1057 67.8673C64.1057 67.9915 64.0184 68.0507 63.8491 68.0507C63.6635 68.0507 63.4232 68.0447 63.1339 68.027L62.4787 68.0152C62.2548 68.0152 62.031 68.027 61.8126 68.0566C61.7416 68.0625 61.6324 68.0743 61.485 68.0802C61.3376 68.0862 61.212 68.0921 61.0973 68.0921C60.8898 68.0921 60.7861 68.0152 60.7861 67.8673ZM65.5417 64.2469C65.6618 64.2469 65.7219 64.2174 65.7219 64.1523C65.7219 64.1464 65.7164 64.0931 65.7001 64.0103L64.9247 61.1117C64.8974 61.0229 64.8756 60.9815 64.8538 60.9815C64.8374 60.9815 64.8155 61.0229 64.7828 61.1117L63.8491 64.0103C63.8328 64.0458 63.8218 64.0813 63.8218 64.1168C63.8218 64.1582 63.8436 64.1937 63.8819 64.2174C63.9201 64.241 63.9692 64.2528 64.0293 64.2528H65.5417V64.2469Z" fill="#7D7D7D"/>
<path d="M79.8252 68.0446C79.585 67.8908 79.3447 67.6601 79.1045 67.3406L74.3926 61.922C74.338 61.8332 74.2888 61.7918 74.2615 61.7918C74.2069 61.7918 74.1742 61.8746 74.1742 62.0403C74.1742 62.6792 74.1851 63.4009 74.2124 64.2054C74.2179 64.5189 74.2288 64.8798 74.2343 65.282C74.2397 65.6843 74.2452 66.1043 74.2452 66.542C74.2452 66.8319 74.3271 67.0508 74.4909 67.2105C74.6547 67.3702 74.9113 67.4885 75.2498 67.5773C75.4682 67.6364 75.5774 67.7311 75.5774 67.8553C75.5774 67.9145 75.5446 67.9677 75.4846 67.9973C75.4245 68.0328 75.359 68.0505 75.2825 68.0505C75.0259 68.0505 74.7584 68.0446 74.4854 68.0269L73.8903 68.015C73.6555 68.015 73.4262 68.0209 73.2024 68.0328C72.9785 68.0446 72.831 68.0564 72.7655 68.0683C72.7109 68.0683 72.6454 68.0505 72.5854 68.0091C72.5199 67.9677 72.4871 67.9263 72.4871 67.873C72.4871 67.8021 72.5089 67.7488 72.5581 67.7074C72.6072 67.666 72.6782 67.6246 72.7765 67.5832C73.1423 67.4235 73.3388 67.0685 73.3825 66.5184C73.5518 64.5781 73.6391 62.8566 73.6391 61.36C73.6391 60.9518 73.5463 60.6383 73.3661 60.4312C73.1859 60.2242 72.9184 60.0408 72.5581 59.8929C72.3397 59.8338 72.2305 59.7332 72.2305 59.603C72.2305 59.4611 72.3342 59.396 72.5471 59.396L73.4699 59.4197C74.4363 59.4433 74.9495 59.4611 75.0095 59.4611C75.1133 59.4611 75.1952 59.5025 75.2498 59.5912L79.716 64.9567C79.7979 65.0631 79.8525 65.1164 79.8853 65.1164C79.9508 65.1164 79.9835 65.0572 79.9835 64.933V63.5547C79.9835 62.1882 79.9726 61.2653 79.9453 60.7743C79.9344 60.5318 79.858 60.3484 79.716 60.236C79.5686 60.1236 79.3338 60.0171 79.0008 59.9225C78.8151 59.8692 78.7223 59.7805 78.7223 59.6445C78.7223 59.5912 78.7496 59.5439 78.7988 59.5084C78.8534 59.467 78.9079 59.4492 78.9735 59.4492L79.7597 59.4611C79.8635 59.467 80.0272 59.4729 80.2565 59.4729L80.8134 59.4611C81.0701 59.4433 81.3158 59.4374 81.5397 59.4374C81.627 59.4374 81.698 59.4552 81.7526 59.4906C81.8072 59.5261 81.829 59.5735 81.829 59.6326C81.829 59.7746 81.7253 59.8633 81.5233 59.9107C81.2339 59.9698 81.0264 60.0585 80.9063 60.1769C80.7862 60.2952 80.7261 60.4786 80.7261 60.7329C80.7261 61.2594 80.6988 62.2532 80.6442 63.7262C80.606 64.584 80.5842 65.2761 80.5842 65.8026C80.5842 66.0037 80.6005 66.2522 80.6278 66.542C80.6551 66.8378 80.6769 67.0271 80.6824 67.1158C80.7152 67.4471 80.7316 67.6246 80.7316 67.6423C80.7316 68.0683 80.6169 68.2871 80.3822 68.2871C80.2511 68.2753 80.0655 68.1984 79.8252 68.0446Z" fill="#7D7D7D"/>
<path d="M86.748 68.0386C86.6824 67.9972 86.6497 67.944 86.6497 67.8789C86.6497 67.7369 86.7644 67.6423 86.9992 67.589C87.2995 67.5299 87.5069 67.4116 87.6216 67.2459C87.7363 67.0803 87.7963 66.8555 87.7963 66.5775V64.791C87.7963 64.4952 87.7635 64.2468 87.698 64.0515C87.6325 63.8563 87.5342 63.6315 87.3977 63.389L85.8089 60.7507C85.6724 60.5259 85.5413 60.3425 85.4103 60.2064C85.2793 60.0704 85.11 59.9698 84.8916 59.9107C84.8043 59.8752 84.7387 59.8397 84.6896 59.8042C84.6459 59.7687 84.624 59.7154 84.624 59.6326C84.624 59.5735 84.6459 59.5261 84.6896 59.4906C84.7333 59.4552 84.7878 59.4374 84.8534 59.4374C85.0281 59.4374 85.2246 59.4433 85.443 59.4552C85.656 59.467 85.8143 59.4729 85.9235 59.4729C86.2566 59.4966 86.5951 59.5143 86.9391 59.5143C87.0592 59.5143 87.2011 59.5084 87.354 59.5025C87.5123 59.4966 87.6325 59.4847 87.7253 59.4788C88.0802 59.4433 88.3642 59.4256 88.5716 59.4256C88.6426 59.4256 88.719 59.4433 88.79 59.4847C88.861 59.5261 88.8992 59.5676 88.8992 59.6208C88.8992 59.7509 88.7846 59.8456 88.5607 59.9107C88.3041 59.9698 88.1239 60.0349 88.0256 60.1059C87.9274 60.1769 87.8782 60.2833 87.8782 60.4312C87.8782 60.5732 87.9219 60.727 88.0092 60.8926L89.2814 63.2411C89.336 63.3535 89.4015 63.4127 89.4725 63.4127C89.5271 63.4127 89.5872 63.3535 89.6527 63.2411C90.0786 62.4129 90.4389 61.6498 90.7283 60.9577C90.8102 60.7684 90.8484 60.5969 90.8484 60.4608C90.8484 60.2952 90.7774 60.165 90.6409 60.0763C90.5044 59.9876 90.3406 59.9284 90.155 59.9107C90.0676 59.9047 89.9857 59.8692 89.9093 59.8101C89.8329 59.7509 89.7947 59.6918 89.7947 59.6208C89.7947 59.5676 89.8328 59.5261 89.9038 59.4906C89.9748 59.4552 90.0567 59.4374 90.1441 59.4374C90.3789 59.4374 90.6027 59.4492 90.8211 59.4788C91.0941 59.4966 91.307 59.5025 91.449 59.5025C91.5636 59.5025 91.7493 59.4847 92.0059 59.4492C92.2625 59.4137 92.4864 59.396 92.6721 59.396C92.9123 59.396 93.0378 59.4729 93.0378 59.6208C93.0378 59.6918 93.016 59.7391 92.9723 59.7746C92.9286 59.8042 92.8795 59.8278 92.8249 59.8456C92.7703 59.8633 92.7376 59.8752 92.7212 59.887C92.4864 59.958 92.2789 60.0645 92.0987 60.2064C91.9186 60.3484 91.7766 60.52 91.6783 60.7093C91.4053 61.2002 91.1924 61.5611 91.0504 61.7977C90.6136 62.5786 90.3242 63.0991 90.1768 63.3594C89.953 63.7853 89.8383 64.2231 89.8383 64.6608V66.5657C89.8383 66.8969 89.8929 67.1276 89.9967 67.2519C90.1004 67.3761 90.3133 67.4885 90.6354 67.589C90.7556 67.6245 90.8429 67.66 90.903 67.6955C90.9576 67.731 90.9849 67.7902 90.9849 67.8671C90.9849 67.9262 90.9522 67.9795 90.8921 68.0268C90.8321 68.0682 90.7556 68.0919 90.6682 68.0919C90.499 68.0919 90.1714 68.0741 89.6854 68.0386C89.2322 68.0031 88.932 67.9854 88.7791 67.9854C88.6317 67.9854 88.3423 68.0031 87.9055 68.0386C87.5396 68.08 87.2284 68.1037 86.9609 68.1037C86.8899 68.1037 86.808 68.08 86.748 68.0386Z" fill="#7D7D7D"/>
<path d="M57.0603 18.5397L48.0146 28.3403L48.9837 29.3902L58.0293 19.5896L57.0603 18.5397Z" fill="#7D7D7D"/>
<path d="M57.0456 83.8395L48 93.6401L48.969 94.6901L58.0146 84.8894L57.0456 83.8395Z" fill="#7D7D7D"/>
</svg>
