<svg width="111" height="78" viewBox="0 0 111 78" fill="none" xmlns="http://www.w3.org/2000/svg">
<path d="M42.052 30.3633C41.9537 30.5467 41.8062 30.6887 41.6151 30.7952C41.4186 30.9017 41.1839 30.9608 40.9054 30.9608C40.6324 30.9608 40.3867 30.9135 40.1683 30.807C39.9554 30.7064 39.7806 30.5586 39.6496 30.3693C39.5186 30.18 39.4476 29.9552 39.4258 29.7067H40.2502C40.2665 29.8782 40.3321 30.0202 40.4413 30.1326C40.5505 30.245 40.6924 30.3042 40.8726 30.3042C41.0309 30.3042 41.1566 30.2569 41.2439 30.1622C41.3313 30.0676 41.3749 29.9492 41.3749 29.8013C41.3749 29.6712 41.3421 29.5647 41.2712 29.476C41.2002 29.3932 41.1128 29.3222 41.0091 29.2689C40.9054 29.2157 40.758 29.1565 40.5724 29.0915C40.3321 29.0027 40.1355 28.9199 39.9826 28.8312C39.8298 28.7484 39.6987 28.6241 39.5895 28.4585C39.4803 28.2988 39.4258 28.0858 39.4258 27.8255C39.4258 27.4647 39.5459 27.1807 39.7861 26.9737C40.0263 26.7666 40.343 26.6602 40.7361 26.6602C41.1456 26.6602 41.4732 26.7666 41.7135 26.9796C41.9537 27.1926 42.0957 27.4765 42.1284 27.8374H41.293C41.2712 27.6895 41.2112 27.5652 41.1183 27.4647C41.0255 27.37 40.8944 27.3168 40.7306 27.3168C40.5887 27.3168 40.474 27.3582 40.3867 27.441C40.2993 27.5238 40.2556 27.6421 40.2556 27.796C40.2556 27.9202 40.2884 28.0207 40.3594 28.1036C40.4249 28.1864 40.5123 28.2515 40.616 28.3047C40.7197 28.3579 40.8617 28.4112 41.0419 28.4763C41.2931 28.5709 41.4896 28.6596 41.6479 28.7425C41.8063 28.8253 41.9373 28.9495 42.0465 29.1151C42.1557 29.2808 42.2103 29.4997 42.2103 29.7659C42.1994 29.9847 42.1502 30.1859 42.052 30.3633Z" fill="#7D7D7D"/>
<path d="M49.4561 26.7251V27.3876H48.3859V30.9134H47.6106V27.3876H46.5459V26.7251H49.4561Z" fill="#7D7D7D"/>
<path d="M57.0558 26.7251L55.7454 29.4522V30.9193H54.9701V29.4522L53.6543 26.7251H54.5443L55.3632 28.559L56.1877 26.7251H57.0558Z" fill="#7D7D7D"/>
<path d="M62.2971 30.2745H63.5966V30.9134H61.5273V26.7251H62.2971V30.2745V30.2745Z" fill="#7D7D7D"/>
<path d="M68.8876 27.3936V28.482H70.2581V29.1209H68.8876V30.2508H70.4219V30.9193H68.1123V26.7251H70.4219V27.3876H68.8876V27.3936Z" fill="#7D7D7D"/>
<path d="M14.6162 39.6021C14.1685 39.7086 13.8409 39.8801 13.6225 40.1049C13.4096 40.3297 13.2622 40.6787 13.1912 41.1461C13.1202 41.6134 13.082 42.3173 13.082 43.252V55.6806C12.7926 55.651 12.5578 55.6333 12.3722 55.6333C12.2139 55.6333 11.9463 55.651 11.5751 55.6806L2.02021 44.37V51.1019C2.02021 52.2555 2.06388 53.0837 2.15124 53.5924C2.2386 54.1011 2.42966 54.4679 2.72449 54.7045C3.01933 54.9352 3.51077 55.1068 4.20418 55.2192V55.6865C3.61451 55.6392 2.81187 55.6155 1.79087 55.6155C1.02648 55.6155 0.431334 55.6392 0 55.6865V55.2192C0.447713 55.1127 0.775346 54.9411 0.993742 54.7164C1.21214 54.4916 1.35405 54.1425 1.42503 53.6752C1.49601 53.2079 1.53427 52.5098 1.53427 51.5752V41.6193C1.53427 41.0277 1.496 40.6018 1.4141 40.3356C1.33766 40.0694 1.19576 39.892 0.993742 39.7973C0.791725 39.7027 0.464093 39.6435 0 39.608V39.1407C0.431334 39.188 1.02648 39.2117 1.79087 39.2117C2.56618 39.2117 3.22683 39.188 3.77282 39.1407L12.5961 49.2326V43.7193C12.5961 42.5658 12.5524 41.7376 12.465 41.2289C12.3777 40.7201 12.1866 40.3534 11.8917 40.1168C11.5969 39.886 11.1055 39.7145 10.4121 39.6021V39.1348C11.0018 39.1821 11.8043 39.2058 12.8253 39.2058C13.5897 39.2058 14.1849 39.1821 14.6162 39.1348V39.6021V39.6021Z" fill="#7D7D7D"/>
<path d="M33.9275 54.8229C34.1513 55.0654 34.3697 55.1955 34.5826 55.2074V55.6747C33.5453 55.6274 32.2404 55.6037 30.657 55.6037C29.019 55.6037 27.8124 55.6274 27.0316 55.6747V55.2074C27.5776 55.1778 27.9653 55.1009 28.1946 54.9885C28.4239 54.8702 28.5385 54.6631 28.5385 54.3674C28.5385 54.0893 28.4512 53.7107 28.2819 53.2434L27.0097 49.4101H22.6527L22.287 50.4631C21.812 51.7882 21.5772 52.7997 21.5772 53.5037C21.5772 54.1426 21.741 54.5803 22.074 54.811C22.4071 55.0476 22.893 55.1778 23.5427 55.2074V55.6747C22.4671 55.6274 21.5226 55.6037 20.7145 55.6037C20.0375 55.6037 19.486 55.6274 19.0547 55.6747V55.2074C19.415 55.1482 19.7535 54.9057 20.0702 54.4857C20.3869 54.0657 20.709 53.3972 21.0421 52.4744L25.8305 39.1348C26.2891 39.1643 26.6713 39.1821 26.9716 39.1821C27.2609 39.1821 27.6322 39.1643 28.0909 39.1348L33.3105 53.7167C33.4961 54.2136 33.7036 54.5803 33.9275 54.8229ZM26.8624 48.9487L24.9022 43.11L22.833 48.9487H26.8624Z" fill="#7D7D7D"/>
<path d="M51.8794 43.7607C51.8794 44.4765 51.9013 45.0385 51.9449 45.4408H51.4481C50.9731 43.3999 50.3616 41.9269 49.6135 41.0218C48.8655 40.1168 48.063 39.6672 47.2003 39.6672H47.1784V53.0304C47.1784 53.6871 47.2385 54.1603 47.3641 54.4561C47.4842 54.7519 47.708 54.953 48.0356 55.0536C48.3578 55.1541 48.871 55.2074 49.5754 55.2074V55.6747C47.5497 55.6274 45.9718 55.6037 44.8525 55.6037C43.8315 55.6037 42.3519 55.6274 40.4081 55.6747V55.2074C41.1125 55.2074 41.6257 55.16 41.9479 55.0536C42.27 54.953 42.4938 54.7519 42.6194 54.4561C42.7395 54.1603 42.805 53.6871 42.805 53.0304V39.6672H42.7832C41.9041 39.6672 41.0961 40.1167 40.359 41.01C39.6165 41.9033 39.0104 43.3821 38.5354 45.4408H38.0385C38.0822 45.0385 38.1041 44.4765 38.1041 43.7607C38.1041 42.4061 38.0549 40.8621 37.9512 39.1348C39.3162 39.1821 41.6694 39.2058 45.0054 39.2058C48.325 39.2058 50.6673 39.1821 52.0378 39.1348C51.9286 40.8621 51.8794 42.4061 51.8794 43.7607Z" fill="#7D7D7D"/>
<path d="M71.9562 39.6025C71.5085 39.709 71.1808 39.8806 70.9624 40.1053C70.744 40.3301 70.6021 40.6792 70.5311 41.1465C70.4602 41.6138 70.4219 42.3178 70.4219 43.2524V48.884C70.4219 51.126 70.1271 52.7765 69.5374 53.8354C69.1498 54.5334 68.5765 55.0717 67.823 55.4503C67.0695 55.823 66.0922 56.0123 64.9019 56.0123C63.1602 56.0123 61.8117 55.6396 60.8453 54.8883C60.1409 54.3441 59.6713 53.6106 59.4311 52.6937C59.1963 51.7768 59.0763 50.5286 59.0763 48.955V41.6197C59.0763 41.0282 59.038 40.6023 58.967 40.3361C58.896 40.0699 58.7541 39.8924 58.5466 39.7977C58.3391 39.7031 58.0061 39.6439 57.542 39.6084V39.1411C58.361 39.1884 59.6277 39.2121 61.3366 39.2121C63.0346 39.2121 64.3178 39.1884 65.1968 39.1411V39.6084C64.6781 39.638 64.3013 39.7031 64.0666 39.7977C63.8318 39.8924 63.668 40.0699 63.5807 40.3361C63.4933 40.6023 63.4497 41.0282 63.4497 41.6197V51.1556C63.4497 52.6523 63.6626 53.6993 64.0939 54.2968C64.5252 54.8943 65.2077 55.196 66.1414 55.196C67.5063 55.196 68.4782 54.6695 69.0515 53.6165C69.6248 52.5635 69.9142 51.0728 69.9142 49.1443V43.7257C69.9142 42.5721 69.8705 41.744 69.7831 41.2352C69.6958 40.7265 69.5047 40.3597 69.2098 40.1231C68.915 39.8865 68.4236 39.7208 67.7302 39.6084V39.1411C68.3199 39.1884 69.1224 39.2121 70.1434 39.2121C70.9078 39.2121 71.503 39.1884 71.9343 39.1411V39.6025H71.9562Z" fill="#7D7D7D"/>
<path d="M93.0474 54.7401C92.616 55.2075 92.141 55.5328 91.6223 55.7221C91.1036 55.9114 90.503 56.0002 89.8096 56.0002C88.8159 56.0002 88.0461 55.8109 87.5001 55.4263C86.9541 55.0477 86.6156 54.397 86.4845 53.4742L86.1624 51.1375C86.0205 50.0491 85.8184 49.2209 85.5673 48.6589C85.3161 48.0969 84.9394 47.8189 84.4371 47.8189H83.4652V53.1962C83.4652 53.7877 83.5034 54.2196 83.5853 54.4798C83.6617 54.746 83.8037 54.9235 84.0057 55.0182C84.2077 55.1128 84.5354 55.172 84.9995 55.2075V55.6748C84.1641 55.6275 82.9629 55.6038 81.3959 55.6038C79.6542 55.6038 78.3766 55.6275 77.5576 55.6748V55.2075C78.0162 55.1779 78.3493 55.1128 78.5622 55.0182C78.7697 54.9235 78.9117 54.746 78.9826 54.4798C79.0536 54.2136 79.0918 53.7877 79.0918 53.1962V41.6075C79.0918 41.016 79.0536 40.5901 78.9717 40.3239C78.8953 40.0577 78.7533 39.8802 78.5513 39.7855C78.3493 39.6909 78.0162 39.6317 77.5576 39.5962V39.1289C78.3766 39.1762 79.6105 39.1999 81.2648 39.1999L83.7437 39.1762C84.033 39.1585 84.3607 39.1526 84.7374 39.1526C86.9214 39.1526 88.5484 39.4898 89.624 40.1582C90.6941 40.8267 91.2292 41.8501 91.2292 43.2166C91.2292 44.3819 90.8252 45.3817 90.0226 46.2099C89.2145 47.038 87.8659 47.5409 85.9659 47.7302C87.4346 47.8366 88.5375 48.1383 89.2855 48.6293C90.0335 49.1203 90.4921 49.842 90.6669 50.7885L91.12 53.2198C91.2183 53.7936 91.3439 54.1959 91.4858 54.4089C91.6278 54.6277 91.8298 54.7342 92.0919 54.7342C92.3485 54.7342 92.5723 54.6336 92.758 54.4325L93.0474 54.7401ZM83.8911 39.7678C83.7273 39.8743 83.6126 40.0695 83.558 40.3534C83.498 40.6315 83.4707 41.0574 83.4707 41.6134V47.3634H84.0549C85.0759 47.3634 85.7748 47.0262 86.146 46.3459C86.5173 45.6656 86.7084 44.7132 86.7084 43.4828C86.7084 42.205 86.5446 41.2408 86.2225 40.5841C85.9003 39.9275 85.3707 39.6022 84.6391 39.6022C84.306 39.6022 84.0604 39.6554 83.8911 39.7678Z" fill="#7D7D7D"/>
<path d="M110.344 55.6748C109.367 55.6275 107.718 55.6039 105.403 55.6039C102.04 55.6039 99.5227 55.6275 97.8574 55.6748V55.2075C98.3161 55.1779 98.6492 55.1129 98.8621 55.0182C99.0696 54.9236 99.2115 54.7461 99.2825 54.4799C99.3534 54.2137 99.3917 53.7878 99.3917 53.1962V41.6075C99.3917 41.016 99.3535 40.5901 99.2716 40.3239C99.1951 40.0577 99.0532 39.8802 98.8512 39.7855C98.6491 39.6909 98.3161 39.6317 97.8574 39.5962V39.1289C99.5227 39.1762 102.04 39.1999 105.403 39.1999C107.516 39.1999 109.018 39.1762 109.913 39.1289C109.809 40.5901 109.76 41.9033 109.76 43.0569C109.76 43.7727 109.782 44.3346 109.826 44.7369H109.329C109.072 42.9267 108.586 41.6312 107.882 40.8444C107.177 40.0577 106.337 39.6672 105.359 39.6672H105.081C104.693 39.6672 104.409 39.7027 104.229 39.7737C104.049 39.8447 103.929 39.9748 103.863 40.17C103.798 40.3653 103.765 40.6847 103.765 41.1402V47.1209H103.978C104.726 47.1209 105.365 46.8014 105.894 46.1626C106.424 45.5237 106.763 44.8138 106.91 44.0389H107.407C107.363 44.6955 107.341 45.4231 107.341 46.2335V47.3575C107.341 48.1502 107.385 49.2564 107.472 50.6762H106.976C106.844 49.7888 106.511 49.0494 105.971 48.4696C105.43 47.884 104.764 47.5941 103.978 47.5941H103.765V53.6695C103.765 54.119 103.798 54.4444 103.863 54.6396C103.929 54.8348 104.049 54.965 104.229 55.036C104.409 55.1069 104.693 55.1424 105.081 55.1424H105.791C106.626 55.1424 107.418 54.7047 108.166 53.8233C108.914 52.9418 109.443 51.5398 109.76 49.6054H110.257C110.213 50.1674 110.191 50.8832 110.191 51.7528C110.191 53.3382 110.241 54.6514 110.344 55.6748Z" fill="#7D7D7D"/>
<path d="M60.8516 63.9751H50.3467V65.4599H60.8516V63.9751Z" fill="#7D7D7D"/>
<path d="M61.0858 9.43354C62.2815 9.16734 65.2845 8.36874 67.5449 6.70646C68.9645 5.66532 69.6743 4.57093 69.707 3.36415C69.7125 3.08612 69.5268 2.84359 69.2702 2.79626C68.3966 2.64837 67.5558 3.00922 66.917 3.3405C64.6184 4.53544 62.7401 6.35744 60.9329 8.16169C61.9266 5.94335 62.4563 3.45289 62.2761 1.41202C62.2542 1.19314 62.2051 0.625246 61.7628 0.317636C61.4898 0.134253 61.1459 0.104673 60.7691 0.246647C59.77 0.619328 59.2731 1.6723 58.9237 2.65429C57.8535 5.63574 57.171 8.78283 56.5322 11.8471C56.4066 11.8708 56.292 11.9477 56.2156 12.0719C54.9652 12.7818 53.7258 13.2727 52.6393 13.6158C52.9887 13.2905 53.3163 12.9119 53.6002 12.4741C54.2554 11.4567 54.6977 10.2085 54.9816 8.5462C55.1563 7.52873 55.342 6.00842 54.9052 4.58277C54.7195 3.9853 54.3646 3.63035 53.9278 3.61261C53.5784 3.58303 53.3054 3.80783 53.1198 3.99712C51.6347 5.45827 50.9849 7.59971 50.5809 9.3034C50.4826 9.72932 50.3898 10.1552 50.297 10.5812C50.0021 11.9417 49.7127 13.2254 49.1995 14.4145C46.748 14.8049 44.3402 14.8581 42.1944 14.8345C41.9215 14.8108 41.6812 15.077 41.6758 15.3846C41.6758 15.6922 41.8996 15.9407 42.1835 15.9466C42.4511 15.9466 42.7241 15.9525 43.0025 15.9525C45.0336 15.9525 47.2722 15.8638 49.5435 15.4852C49.5435 15.4852 49.5435 15.4852 49.549 15.4852C49.9912 15.4142 50.4335 15.3255 50.8757 15.2308C51.0887 15.4733 51.3016 15.7218 51.5145 15.9643C53.4692 18.2241 55.4948 20.5607 58.0009 22.1994C58.1047 22.2644 58.3504 22.4301 58.6452 22.4301C58.7653 22.4301 58.8963 22.4005 59.0274 22.3236C59.213 22.2171 59.5188 21.9272 59.4642 21.2351C59.3441 19.7207 58.5797 18.2241 57.313 17.0232C56.2101 15.9762 54.8724 15.2722 53.5893 14.657C53.5074 14.6156 53.4255 14.5801 53.3436 14.5446C54.5448 14.1364 55.675 13.6336 56.7124 13.042C58.2794 13.8288 60.0648 14.4085 62.2979 14.8404C63.166 15.0119 64.1051 15.1539 65.0552 15.1539C66.0107 15.1539 66.9716 15.006 67.8834 14.5978C68.0582 14.5209 68.1782 14.3435 68.1946 14.1423C68.211 13.9412 68.1291 13.7401 67.9707 13.6277C65.3445 11.7051 62.085 10.9538 58.9892 11.4981C59.7645 10.8651 60.4634 10.1789 61.0858 9.43354ZM67.3647 4.34614C67.736 4.15093 68.1564 3.96163 68.5768 3.90247C68.3693 4.52952 67.8343 5.15066 66.9661 5.78954C65.9124 6.55857 64.4491 7.26844 62.833 7.80676C64.2253 6.46984 65.694 5.21573 67.3647 4.34614ZM59.8846 3.06837C60.1522 2.32301 60.5071 1.53033 61.1076 1.30554C61.1677 1.28187 61.2059 1.27596 61.2114 1.26413C61.2223 1.2937 61.2442 1.36469 61.2551 1.5185C61.5117 4.41713 60.0921 8.49888 58.0228 10.871C57.9354 10.942 57.8426 11.013 57.7552 11.0781C58.3285 8.38057 58.9619 5.64757 59.8846 3.06837ZM51.3016 10.8414C51.3945 10.4214 51.4818 10.0014 51.58 9.58734C51.9458 8.03746 52.5301 6.09716 53.8132 4.83122C53.835 4.80756 53.8514 4.79572 53.8678 4.77798C53.8896 4.81347 53.9115 4.86671 53.9333 4.94361C54.2118 5.85461 54.2226 6.90759 53.9769 8.35099C53.7203 9.85355 53.3327 10.9598 52.7649 11.8412C52.197 12.7226 51.4327 13.3378 50.6191 13.5981C50.8976 12.693 51.0996 11.7524 51.3016 10.8414ZM56.6359 17.8632C57.6569 18.8334 58.2903 20.0047 58.4268 21.176C56.1391 19.6497 54.2281 17.461 52.3827 15.3314C52.6448 15.4319 52.9068 15.5502 53.1744 15.6804C54.5721 16.3429 55.6968 16.97 56.6359 17.8632ZM66.4201 13.9116C65.1261 14.1778 63.7284 13.9885 62.4781 13.746C61.0148 13.462 59.759 13.1189 58.6343 12.6871C61.2332 12.1074 64.0669 12.557 66.4201 13.9116Z" fill="#7D7D7D"/>
<path d="M31.0508 28.7241H19.7598V30.209H31.0508V28.7241Z" fill="#7D7D7D"/>
<path d="M89.4551 28.7241H78.1641V30.209H89.4551V28.7241Z" fill="#7D7D7D"/>
<path d="M9.86098 73.8478C10.1558 74.0312 10.3851 74.2855 10.5598 74.6109C10.7291 74.9363 10.8165 75.3089 10.8165 75.7171C10.8165 76.1312 10.7291 76.498 10.5598 76.8292C10.3905 77.1546 10.1558 77.4149 9.86098 77.5923C9.56614 77.7757 9.23851 77.8645 8.87816 77.8645C8.5178 77.8645 8.19024 77.7757 7.89541 77.5923C7.60057 77.409 7.37124 77.1546 7.20198 76.8292C7.03272 76.498 6.94531 76.1312 6.94531 75.7171C6.94531 75.303 7.03272 74.9363 7.20198 74.6109C7.37124 74.2855 7.60603 74.0312 7.89541 73.8478C8.19024 73.6644 8.5178 73.5757 8.87816 73.5757C9.23851 73.5757 9.56614 73.6644 9.86098 73.8478ZM8.28304 74.5163C8.11378 74.6286 7.97729 74.7884 7.87901 74.9954C7.78073 75.2025 7.73158 75.445 7.73158 75.723C7.73158 76.0011 7.78073 76.2436 7.87901 76.4506C7.97729 76.6577 8.10832 76.8174 8.28304 76.9298C8.4523 77.0422 8.6543 77.0954 8.87816 77.0954C9.10202 77.0954 9.30401 77.0422 9.47327 76.9298C9.64253 76.8174 9.77903 76.6577 9.8773 76.4506C9.97558 76.2436 10.0247 76.0011 10.0247 75.723C10.0247 75.445 9.97558 75.2025 9.8773 74.9954C9.77903 74.7884 9.64799 74.6286 9.47327 74.5163C9.30401 74.4039 9.10202 74.3506 8.87816 74.3506C8.64884 74.3447 8.4523 74.4039 8.28304 74.5163Z" fill="#7D7D7D"/>
<path d="M17.4665 77.8289L16.5601 76.1962H16.2216V77.8289H15.4463V73.6348H16.9205C17.3682 73.6348 17.7122 73.7531 17.9469 73.9897C18.1817 74.2263 18.3018 74.5398 18.3018 74.9303C18.3018 75.2497 18.22 75.51 18.0562 75.7289C17.8924 75.9418 17.6576 76.0838 17.3518 76.1548L18.3182 77.8289H17.4665ZM16.2216 75.6165H16.8604C17.3027 75.6165 17.521 75.4035 17.521 74.9835C17.521 74.7824 17.4665 74.6227 17.3573 74.5103C17.2481 74.3979 17.0843 74.3387 16.8549 74.3387H16.2162V75.6165H16.2216Z" fill="#7D7D7D"/>
<path d="M25.8421 73.972C26.1534 74.2264 26.3499 74.5635 26.4373 74.9895H25.6292C25.5527 74.8002 25.4326 74.6464 25.2633 74.534C25.0995 74.4216 24.903 74.3624 24.6737 74.3624C24.4498 74.3624 24.2532 74.4157 24.084 74.5281C23.9147 74.6405 23.7782 74.8002 23.6854 75.0013C23.5871 75.2083 23.5434 75.4509 23.5434 75.723C23.5434 76.1607 23.6526 76.5039 23.871 76.7523C24.0894 77.0008 24.3843 77.1191 24.761 77.1191C25.0395 77.1191 25.2743 77.0303 25.4763 76.8529C25.6729 76.6754 25.8039 76.4269 25.8639 76.1134H24.5535V75.5159H26.5082V76.3205C26.4536 76.5985 26.3445 76.8529 26.1861 77.0895C26.0278 77.3202 25.8203 77.5095 25.5637 77.6515C25.3071 77.7934 25.0122 77.8644 24.6792 77.8644C24.297 77.8644 23.9639 77.7757 23.6745 77.5923C23.3851 77.4148 23.1612 77.1605 23.0029 76.841C22.8446 76.5157 22.7627 76.1489 22.7627 75.7348C22.7627 75.3207 22.8446 74.9481 23.0029 74.6286C23.1612 74.3033 23.3851 74.0548 23.6745 73.8714C23.9639 73.6881 24.297 73.5993 24.6792 73.5993C25.1433 73.5934 25.5309 73.7176 25.8421 73.972Z" fill="#7D7D7D"/>
<path d="M33.4971 76.9826H31.9465L31.6735 77.8226H30.8545L32.2795 73.6758H33.164L34.5836 77.8226H33.7646L33.4971 76.9826ZM33.2896 76.3496L32.7218 74.5809L32.154 76.3496H33.2896Z" fill="#7D7D7D"/>
<path d="M42.3303 77.8289H41.5549L39.8242 74.9776V77.8289H39.0488V73.6348H39.8242L41.5549 76.5097V73.6348H42.3303V77.8289Z" fill="#7D7D7D"/>
<path d="M47.8613 73.6348V77.8289H47.0859V73.6348H47.8613V73.6348Z" fill="#7D7D7D"/>
<path d="M55.5665 73.9961C55.8832 74.2682 56.0961 74.6291 56.1944 75.0964H55.3809C55.299 74.8716 55.168 74.6941 54.9878 74.564C54.8131 74.4339 54.5946 74.3688 54.349 74.3688C54.1469 74.3688 53.9613 74.422 53.7975 74.5344C53.6337 74.6468 53.5027 74.8065 53.4153 75.0077C53.3225 75.2147 53.2788 75.4572 53.2788 75.7294C53.2788 76.0015 53.3225 76.244 53.4153 76.4451C53.5082 76.6522 53.6337 76.8119 53.7975 76.9184C53.9613 77.0308 54.1469 77.084 54.349 77.084C54.5946 77.084 54.8131 77.0189 54.9878 76.8888C55.1625 76.7587 55.2935 76.5812 55.3809 76.3564H56.1944C56.0907 76.8178 55.8832 77.1846 55.5665 77.4567C55.2498 77.7288 54.8458 77.8589 54.3654 77.8589C53.9941 77.8589 53.6719 77.7702 53.388 77.5868C53.1041 77.4094 52.8857 77.155 52.7329 76.8296C52.58 76.5043 52.498 76.1375 52.498 75.7234C52.498 75.3094 52.5745 74.9367 52.7329 74.6113C52.8857 74.286 53.1041 74.0316 53.388 73.8541C53.6719 73.6708 53.9941 73.582 54.3708 73.582C54.8458 73.5939 55.2498 73.7299 55.5665 73.9961Z" fill="#7D7D7D"/>
<path d="M68.8011 76.0246C68.9431 76.2139 69.014 76.4328 69.014 76.6872C69.014 77.0421 68.9049 77.3201 68.6865 77.5213C68.4681 77.7224 68.1514 77.8289 67.7419 77.8289H66.082V73.6348H67.7091C68.1022 73.6348 68.4025 73.7294 68.61 73.9128C68.8175 74.0962 68.9267 74.3624 68.9267 74.6996C68.9267 74.9599 68.8612 75.1728 68.7356 75.3384C68.61 75.5041 68.4462 75.6106 68.2387 75.6638C68.4735 75.717 68.6591 75.8353 68.8011 76.0246ZM66.8519 75.3917H67.5507C67.7418 75.3917 67.8893 75.3444 67.993 75.2497C68.0913 75.1551 68.1459 75.0249 68.1459 74.8475C68.1459 74.6759 68.0968 74.5398 67.9985 74.4452C67.9002 74.3505 67.7474 74.3032 67.5453 74.3032H66.8628V75.3917H66.8519ZM68.0585 77.0007C68.1677 76.9061 68.2224 76.7641 68.2224 76.5748C68.2224 76.3914 68.1677 76.2435 68.0531 76.143C67.9439 76.0424 67.7855 75.9892 67.5781 75.9892H66.8464V77.1427H67.5835C67.791 77.1427 67.9493 77.0954 68.0585 77.0007Z" fill="#7D7D7D"/>
<path d="M74.3807 74.3032V75.3917H75.7512V76.0306H74.3807V77.1604H75.915V77.8289H73.6055V73.6348H75.915V74.2973H74.3807V74.3032Z" fill="#7D7D7D"/>
<path d="M82.8985 76.9826H81.3478L81.0748 77.8226H80.2559L81.6809 73.6758H82.5654L83.985 77.8226H83.166L82.8985 76.9826ZM82.691 76.3496L82.1232 74.5809L81.5553 76.3496H82.691Z" fill="#7D7D7D"/>
<path d="M89.1984 73.6348V76.0957C89.1984 76.421 89.2639 76.6695 89.4004 76.8351C89.5314 77.0007 89.728 77.0836 89.9792 77.0836C90.2249 77.0836 90.4159 77.0007 90.5524 76.8351C90.6835 76.6695 90.7544 76.4269 90.7544 76.0957V73.6348H91.5243V76.0957C91.5243 76.4861 91.4588 76.8114 91.3223 77.0776C91.1912 77.3438 91.0056 77.545 90.7708 77.6751C90.5361 77.8053 90.2685 77.8703 89.9682 77.8703C89.5042 77.8703 89.1329 77.7224 88.8544 77.4207C88.576 77.119 88.4395 76.6813 88.4395 76.0957V73.6348H89.1984V73.6348Z" fill="#7D7D7D"/>
<path d="M98.8789 73.6348V74.2973H97.8088V77.8229H97.0334V74.2973H95.9688V73.6348H98.8789V73.6348Z" fill="#7D7D7D"/>
<path d="M106.485 73.6348L105.175 76.3618V77.8289H104.394V76.3618L103.078 73.6348H103.968L104.793 75.4686L105.617 73.6348H106.485V73.6348Z" fill="#7D7D7D"/>
</svg>
