<svg width="101" height="111" viewBox="0 0 101 111" fill="none" xmlns="http://www.w3.org/2000/svg">
<path d="M19.1642 48.0345L18.4435 48.0049L17.4498 48.0227C16.953 48.0404 16.5926 48.0522 16.3687 48.0522C16.3141 48.0522 16.2595 48.0286 16.2049 47.9872C16.1503 47.9398 16.123 47.8925 16.123 47.8275C16.123 47.6559 16.2104 47.5494 16.3851 47.4962C16.7455 47.4193 16.9857 47.3128 17.1113 47.1886C17.2369 47.0643 17.2969 46.8514 17.2969 46.5497V39.7468C17.2969 39.4274 17.2369 39.2026 17.1167 39.0725C16.9966 38.9423 16.7509 38.8299 16.3851 38.7412C16.2104 38.6939 16.123 38.5815 16.123 38.4099C16.123 38.3508 16.1503 38.2975 16.2049 38.2502C16.2595 38.2029 16.3141 38.1851 16.3687 38.1851C16.7073 38.1851 17.0676 38.2029 17.4498 38.2325C17.9467 38.2502 18.2797 38.262 18.4435 38.262C18.5909 38.262 19.0059 38.2443 19.6884 38.2029C20.7039 38.1555 21.2608 38.126 21.3646 38.126C22.2218 38.126 23.0244 38.333 23.7669 38.7412C24.5095 39.1494 25.0991 39.7232 25.5468 40.4626C25.9891 41.2021 26.213 42.0421 26.213 42.9826C26.213 43.8818 26.0219 44.7218 25.6342 45.5086C25.2465 46.2953 24.6787 46.9224 23.9253 47.3956C23.1718 47.8689 22.2818 48.1055 21.2499 48.1055C20.824 48.1114 20.1361 48.0877 19.1642 48.0345ZM23.0134 46.2598C23.4557 45.5736 23.6796 44.6271 23.6796 43.4204C23.6796 42.0598 23.4448 40.9832 22.9752 40.1905C22.5057 39.3978 21.8068 39.0015 20.8895 39.0015C20.42 39.0015 20.0979 39.0311 19.9231 39.0843C19.7484 39.1375 19.6611 39.2795 19.6611 39.4984V45.9996C19.6611 46.461 19.7703 46.7863 19.9887 46.9874C20.2071 47.1886 20.551 47.2891 21.0315 47.2891C21.9051 47.2891 22.5712 46.946 23.0134 46.2598Z" fill="#7D7D7D"/>
<path d="M30.16 48.0047C30.1163 47.9574 30.089 47.8982 30.089 47.8391C30.089 47.7799 30.1163 47.7208 30.1655 47.6616C30.2146 47.6025 30.2856 47.5551 30.3675 47.5256C30.6896 47.425 30.908 47.3185 31.0227 47.1943C31.1373 47.076 31.1974 46.8689 31.1974 46.5791V39.7465C31.1974 39.4271 31.1428 39.2023 31.0336 39.0662C30.9244 38.9302 30.7006 38.8237 30.3675 38.7468C30.1764 38.6995 30.0781 38.593 30.0781 38.4333C30.0781 38.3623 30.1054 38.3031 30.1546 38.2617C30.2037 38.2144 30.2692 38.1966 30.3566 38.1966C30.6896 38.1966 31.0336 38.2144 31.394 38.244C31.8526 38.2617 32.1747 38.2735 32.3495 38.2735C33.5834 38.2735 34.659 38.2558 35.5708 38.2262C35.8547 38.2262 36.1004 38.2085 36.297 38.1671C36.4935 38.1257 36.6082 38.1079 36.6355 38.1079C36.7174 38.1079 36.7993 38.1316 36.8703 38.1848C36.9412 38.238 36.9849 38.315 36.9958 38.4273C37.0231 38.7586 37.0668 39.0603 37.1214 39.3443C37.1924 39.9063 37.2306 40.273 37.2306 40.4505C37.2306 40.5392 37.2142 40.6102 37.1815 40.6694C37.1487 40.7226 37.105 40.7522 37.0504 40.7522C36.9958 40.7522 36.9412 40.7285 36.8921 40.6871C36.843 40.6398 36.7993 40.5806 36.7611 40.4978C36.6246 40.131 36.5208 39.8708 36.4553 39.7347C36.3898 39.5927 36.3134 39.4744 36.2205 39.3739C36.0895 39.2319 35.9475 39.1195 35.7892 39.0307C35.6309 38.942 35.4398 38.8947 35.2104 38.8947H34.3369C34.1075 38.8947 33.9164 38.9598 33.769 39.084C33.6216 39.2082 33.5452 39.3739 33.5452 39.5868V42.3435C33.5452 42.586 33.6653 42.7043 33.9055 42.7043H35.0794C35.2924 42.7043 35.4507 42.6274 35.5544 42.4795C35.6582 42.3317 35.7674 42.095 35.882 41.7756C35.953 41.5981 36.0513 41.5035 36.1714 41.5035C36.2151 41.5035 36.2588 41.539 36.297 41.5981C36.3352 41.6632 36.3461 41.746 36.3407 41.8466C36.297 42.3257 36.2697 42.7398 36.2697 43.0889C36.2697 43.5207 36.2861 43.9348 36.3243 44.3311V44.4494C36.3243 44.6506 36.2806 44.7511 36.1878 44.7511C36.1223 44.7511 36.0567 44.7156 35.9967 44.6447C35.9312 44.5737 35.8875 44.4909 35.8602 44.3903C35.7783 44.0531 35.68 43.7987 35.5708 43.639C35.4616 43.4793 35.3197 43.3965 35.1559 43.3965H33.8564C33.6544 43.3965 33.5506 43.5089 33.5506 43.7396V46.5731C33.5506 46.8453 33.6052 47.0405 33.709 47.1588C33.8127 47.2771 33.9874 47.3363 34.2277 47.3363H35.4561C35.882 47.3363 36.2151 47.2239 36.4662 46.9932C36.7338 46.7506 36.9958 46.3543 37.2525 45.7923C37.3071 45.674 37.3944 45.6148 37.5145 45.6148C37.6074 45.6148 37.651 45.7154 37.651 45.9165C37.651 46.094 37.6292 46.2892 37.5801 46.5022C37.5364 46.7092 37.4599 46.9872 37.3562 47.3244L37.2033 47.8923C37.1651 48.0106 37.0559 48.0698 36.8703 48.0698L36.3297 48.0521C34.5334 48.0225 33.2012 48.0047 32.3331 48.0047C32.0219 48.0047 31.6833 48.0225 31.323 48.0521C30.8425 48.0698 30.5149 48.0816 30.3402 48.0816C30.2692 48.0816 30.2092 48.058 30.16 48.0047Z" fill="#7D7D7D"/>
<path d="M42.0141 47.6024C41.8558 47.5018 41.752 47.3776 41.6974 47.2297C41.5336 46.7624 41.4463 46.153 41.4463 45.4018C41.4463 45.1947 41.4517 45.035 41.4627 44.9226C41.4627 44.7925 41.55 44.7274 41.7247 44.7274C41.8176 44.7274 41.8831 44.7392 41.9158 44.7629C41.9541 44.7866 41.9868 44.8398 42.025 44.9226C42.2489 45.7035 42.5656 46.3246 42.9805 46.7978C43.3955 47.2652 43.8759 47.5018 44.4165 47.5018C44.815 47.5018 45.1154 47.3598 45.3283 47.0759C45.5412 46.7919 45.645 46.4725 45.645 46.1235C45.645 45.7035 45.5303 45.3663 45.301 45.106C45.0717 44.8457 44.6622 44.544 44.0725 44.1891C43.5538 43.8874 43.1389 43.6153 42.8276 43.3668C42.5164 43.1184 42.2489 42.793 42.0305 42.4026C41.8121 42.0062 41.7029 41.5389 41.7029 40.9888C41.7029 40.409 41.8503 39.9003 42.1452 39.4507C42.44 39.007 42.8386 38.6639 43.3463 38.4214C43.8541 38.1789 44.4056 38.0605 45.0061 38.0605C45.3392 38.0605 45.6723 38.096 46.0108 38.1729C46.3493 38.2498 46.6277 38.3327 46.8461 38.4332C46.9663 38.4865 47.0482 38.5397 47.0973 38.5989C47.141 38.658 47.1901 38.7704 47.2338 38.9301C47.3266 39.3324 47.3703 39.9358 47.3703 40.7462C47.3703 40.7935 47.3485 40.8409 47.2993 40.8823C47.2502 40.9237 47.1901 40.9414 47.1082 40.9414C47.0263 40.9414 46.9499 40.9178 46.8844 40.8764C46.8188 40.829 46.7806 40.7758 46.7588 40.7048C46.6114 40.0955 46.382 39.6282 46.0654 39.3087C45.7542 38.9893 45.3665 38.8296 44.9188 38.8296C44.0998 38.8296 43.6903 39.2555 43.6903 40.1014C43.6903 40.409 43.8377 40.7048 44.1271 40.9769C44.4165 41.249 44.8915 41.5981 45.5467 42.0181C46.3329 42.5268 46.868 43.0119 47.1574 43.4792C47.4467 43.9465 47.5941 44.5085 47.5941 45.177C47.5941 46.2063 47.2993 46.9694 46.7042 47.4722C46.109 47.9691 45.2846 48.2235 44.2363 48.2235C43.3846 48.2176 42.642 48.0105 42.0141 47.6024Z" fill="#7D7D7D"/>
<path d="M51.6952 47.9813C51.6406 47.934 51.6133 47.8867 51.6133 47.8216C51.6133 47.65 51.7006 47.5436 51.8754 47.4903C52.2357 47.4134 52.4759 47.3069 52.6015 47.1827C52.7271 47.0585 52.7872 46.8455 52.7872 46.5438V39.7409C52.7872 39.4215 52.7271 39.1967 52.607 39.0665C52.4869 38.9364 52.2412 38.824 51.8754 38.7353C51.7006 38.6879 51.6133 38.5755 51.6133 38.404C51.6133 38.3448 51.6406 38.2916 51.6952 38.2443C51.7498 38.1969 51.8044 38.1792 51.859 38.1792C52.1975 38.1792 52.5578 38.1969 52.94 38.2265C53.4369 38.2443 53.7699 38.2561 53.9337 38.2561C54.1085 38.2561 54.4524 38.2443 54.9711 38.2265C55.5062 38.2088 55.8775 38.1969 56.0795 38.1969C56.2269 38.1969 56.3033 38.2739 56.3033 38.4217C56.3033 38.5105 56.2815 38.5815 56.2433 38.6229C56.1996 38.6702 56.1341 38.7057 56.0413 38.7353C55.6645 38.8536 55.4188 38.9778 55.3096 39.1079C55.2004 39.2381 55.1458 39.451 55.1458 39.7527V46.5261C55.1458 46.8041 55.2059 47.0111 55.326 47.1354C55.4461 47.2596 55.6864 47.3779 56.0467 47.4903C56.1395 47.5199 56.2051 47.5554 56.2487 47.6027C56.2924 47.65 56.3088 47.7151 56.3088 47.8038C56.3088 47.9517 56.2324 48.0286 56.0849 48.0286C55.8829 48.0286 55.5117 48.0168 54.9766 47.999C54.4579 47.9813 54.1139 47.9695 53.9392 47.9695C53.7754 47.9695 53.4424 47.9813 52.9455 47.999C52.5742 48.0286 52.2193 48.0464 51.8644 48.0464C51.8098 48.0523 51.7552 48.0286 51.6952 47.9813Z" fill="#7D7D7D"/>
<path d="M62.5762 47.5965C61.8337 47.1824 61.2494 46.6026 60.8181 45.8514C60.3868 45.1001 60.1738 44.2482 60.1738 43.2899C60.1738 42.3789 60.3868 41.5212 60.8181 40.7226C61.2494 39.918 61.8609 39.2732 62.6581 38.7882C63.4552 38.3031 64.378 38.0605 65.4317 38.0605C65.8085 38.0605 66.2889 38.1138 66.8622 38.2262C67.441 38.3386 67.8887 38.4628 68.2108 38.5989C68.3856 38.6817 68.4893 38.8118 68.5166 39.0011C68.6258 39.8175 68.6804 40.4268 68.6804 40.8172C68.6804 40.9178 68.6586 40.9947 68.6203 41.042C68.5767 41.0893 68.5221 41.1189 68.4456 41.1189C68.3419 41.1189 68.2654 41.0952 68.2108 41.042C68.1562 40.9947 68.1071 40.9178 68.058 40.8172C67.8177 40.2552 67.5775 39.8471 67.3373 39.5868C67.1352 39.3679 66.9059 39.1963 66.6438 39.0721C66.3872 38.9479 66.0651 38.8828 65.6774 38.8828C65.0495 38.8828 64.509 39.0662 64.0613 39.427C63.6081 39.7938 63.2696 40.2789 63.0458 40.8823C62.8219 41.4857 62.7072 42.1423 62.7072 42.8522C62.7072 44.2601 62.9147 45.3663 63.3351 46.1649C63.7555 46.9635 64.3998 47.3657 65.2625 47.3657C65.5027 47.3657 65.7648 47.2534 66.0487 47.0345C66.1415 46.9635 66.2125 46.8452 66.2617 46.6795C66.3108 46.5139 66.3436 46.3246 66.349 46.0998C66.3654 45.7626 66.3763 45.319 66.3763 44.7806C66.3763 44.5204 66.2562 44.3429 66.016 44.2423C65.7375 44.124 65.4754 44.0353 65.2297 43.9702C65.1369 43.9406 65.055 43.8933 64.9895 43.8341C64.9185 43.775 64.8857 43.704 64.8857 43.6271C64.8857 43.5561 64.913 43.5029 64.9731 43.4615C65.0332 43.4201 65.1041 43.4023 65.186 43.4023C65.5355 43.4023 65.9177 43.4201 66.3326 43.4496C66.8677 43.4674 67.2171 43.4792 67.3864 43.4792C67.5611 43.4792 67.8505 43.4674 68.26 43.4496C68.6859 43.4319 68.9971 43.4201 69.1991 43.4201C69.3465 43.4201 69.4229 43.497 69.4229 43.6449C69.4229 43.7336 69.4011 43.8046 69.3629 43.8519C69.3192 43.8992 69.2537 43.9347 69.1609 43.9584C68.8933 44.0412 68.7077 44.1299 68.6094 44.2305C68.5057 44.3311 68.4402 44.4849 68.4019 44.6978C68.3364 45.035 68.3037 45.4136 68.3037 45.8218V46.3305C68.3037 46.3897 68.3364 46.4547 68.391 46.5198C68.4511 46.5849 68.4838 46.6204 68.4948 46.6322C68.5876 46.7328 68.6313 46.8393 68.6313 46.9635C68.6313 47.0463 68.6094 47.1173 68.5603 47.1824C68.5166 47.2474 68.4402 47.2829 68.3364 47.2948C68.2709 47.3066 68.1453 47.3598 67.9488 47.4604C67.5338 47.6674 67.097 47.8508 66.6329 47.9987C66.1743 48.1466 65.6338 48.2235 65.0168 48.2235C64.1323 48.2176 63.3188 48.0105 62.5762 47.5965Z" fill="#7D7D7D"/>
<path d="M81.8659 48.0289C81.5929 47.8515 81.3199 47.5853 81.0414 47.2303L75.6634 41.0426C75.5979 40.9421 75.5488 40.8947 75.5105 40.8947C75.445 40.8947 75.4123 40.9894 75.4123 41.1787C75.4123 41.9063 75.4286 42.7345 75.4559 43.6514C75.4669 44.0122 75.4723 44.4204 75.4832 44.8818C75.4942 45.3432 75.4996 45.8224 75.4996 46.3193C75.4996 46.6506 75.5924 46.905 75.7835 47.0824C75.9746 47.2599 76.2585 47.4019 76.6462 47.5024C76.8974 47.5734 77.0175 47.6799 77.0175 47.816C77.0175 47.8869 76.9847 47.9402 76.9137 47.9816C76.8428 48.023 76.7663 48.0408 76.6844 48.0408C76.3896 48.0408 76.0838 48.0289 75.7726 48.0112L75.0956 47.9934C74.828 47.9934 74.566 47.9993 74.3094 48.0171C74.0527 48.0348 73.8835 48.0467 73.8125 48.0526C73.747 48.0526 73.676 48.0289 73.605 47.9875C73.5286 47.9402 73.4958 47.8929 73.4958 47.8278C73.4958 47.745 73.5231 47.6858 73.5777 47.6385C73.6323 47.5912 73.7142 47.5438 73.8289 47.4965C74.2438 47.3191 74.4732 46.9109 74.5223 46.2838C74.7134 44.0655 74.8117 42.1015 74.8117 40.3978C74.8117 39.9305 74.7079 39.5756 74.5005 39.333C74.293 39.0905 73.9872 38.8894 73.5832 38.7178C73.332 38.6468 73.2119 38.5403 73.2119 38.3865C73.2119 38.2268 73.332 38.1499 73.5723 38.1499L74.626 38.1795C75.7344 38.2091 76.3186 38.2268 76.3841 38.2268C76.5042 38.2268 76.5971 38.28 76.6626 38.3747L81.7676 44.5032C81.8604 44.6215 81.9259 44.6807 81.9587 44.6807C82.0297 44.6807 82.0679 44.6097 82.0679 44.4737V42.9001C82.0679 41.3443 82.0515 40.2854 82.0242 39.7234C82.0133 39.4454 81.9259 39.2384 81.7621 39.1082C81.5983 38.9781 81.3253 38.8598 80.9486 38.7474C80.7357 38.6882 80.6319 38.5817 80.6319 38.4338C80.6319 38.3747 80.6592 38.3215 80.7193 38.2741C80.7794 38.2268 80.8449 38.2091 80.9213 38.2091L81.8222 38.2268C81.9423 38.2386 82.1334 38.2446 82.39 38.2446L83.0288 38.2268C83.3237 38.2091 83.6021 38.1972 83.8587 38.1972C83.9625 38.1972 84.0389 38.215 84.099 38.2564C84.159 38.2978 84.1863 38.351 84.1863 38.422C84.1863 38.5817 84.0717 38.6882 83.8424 38.7355C83.5093 38.8065 83.2745 38.9071 83.138 39.0432C83.0015 39.1792 82.9306 39.3922 82.9306 39.682C82.9306 40.2795 82.8978 41.4212 82.8323 43.1012C82.7886 44.0832 82.7613 44.87 82.7613 45.4675C82.7613 45.6982 82.7777 45.9821 82.8104 46.3134C82.8432 46.6506 82.865 46.8635 82.8705 46.9641C82.9087 47.3427 82.9251 47.5438 82.9251 47.5616C82.9251 48.0526 82.7886 48.2951 82.5265 48.2951C82.3518 48.2892 82.1389 48.2064 81.8659 48.0289Z" fill="#7D7D7D"/>
<path d="M0.0818955 75.033C0.0382161 74.9856 0.010918 74.9265 0.010918 74.8673C0.010918 74.8082 0.0382173 74.749 0.0873566 74.6839C0.136496 74.6248 0.207476 74.5775 0.289375 74.5479C0.61151 74.4473 0.829906 74.3408 0.944564 74.2166C1.05922 74.0983 1.11928 73.8913 1.11928 73.6014V66.7689C1.11928 66.4495 1.06468 66.2247 0.955486 66.0886C0.846288 65.9526 0.62243 65.8461 0.289375 65.7692C0.0982779 65.7219 0 65.6154 0 65.4557C0 65.3847 0.0272993 65.3255 0.0764385 65.2841C0.125578 65.2368 0.196554 65.219 0.278453 65.219C0.611508 65.219 0.977326 65.2368 1.38682 65.2782C1.75809 65.3196 2.04747 65.3373 2.26041 65.3373C2.44604 65.3373 2.71358 65.3196 3.06302 65.2782C3.50527 65.219 3.92568 65.1895 4.32426 65.1895C5.45992 65.1895 6.30621 65.361 6.86312 65.7041C7.42003 66.0472 7.69849 66.621 7.69849 67.4196C7.69849 67.7213 7.63297 68.0053 7.49647 68.2833C7.35997 68.5613 7.17979 68.7979 6.95048 69.0109C6.64472 69.2889 6.30621 69.4782 5.92401 69.567C5.88579 69.5788 5.86941 69.6025 5.86941 69.6439C5.86941 69.6853 5.88579 69.7089 5.92401 69.7208C6.56828 69.8509 7.10881 70.0875 7.54015 70.4425C7.97148 70.7915 8.18988 71.3594 8.18988 72.1343C8.18988 72.6549 8.11344 73.0808 7.96056 73.4062C7.80768 73.7374 7.63297 73.9859 7.43641 74.1574C7.23985 74.329 6.99962 74.4887 6.72662 74.6366C6.12603 74.9442 5.31796 75.1039 4.30788 75.1039C4.07856 75.1039 3.74005 75.0921 3.29779 75.0744C2.85554 75.0566 2.51156 75.0448 2.27679 75.0448C1.97103 75.0448 1.63251 75.0625 1.25578 75.0921C0.797146 75.1099 0.469552 75.1217 0.289375 75.1217C0.191097 75.1099 0.125575 75.0803 0.0818955 75.033ZM4.59179 69.4309C4.75559 69.3718 4.91939 69.2653 5.07772 69.1174C5.17054 69.0168 5.2579 68.8571 5.34526 68.6323C5.43262 68.4075 5.4763 68.1177 5.4763 67.7686C5.4763 67.112 5.3671 66.6328 5.1487 66.3371C4.93031 66.0413 4.60817 65.8934 4.17138 65.8934C3.70183 65.8934 3.46705 66.1064 3.46705 66.5205V68.9932C3.46705 69.1529 3.52711 69.283 3.64177 69.3777C3.75642 69.4723 3.87654 69.5196 4.00758 69.5196C4.23144 69.5196 4.42253 69.4901 4.59179 69.4309ZM4.96853 73.9622C5.18692 73.7848 5.35618 73.5481 5.48722 73.2524C5.61826 72.9507 5.67831 72.6194 5.67831 72.2467C5.67831 71.4954 5.47084 70.9394 5.05588 70.5667C4.97398 70.4898 4.84295 70.4129 4.66823 70.3419C4.49351 70.2709 4.29696 70.2354 4.0731 70.2354C3.92568 70.2354 3.78918 70.2768 3.65814 70.3537C3.52711 70.4306 3.46705 70.5549 3.46705 70.7146V73.2938C3.46705 73.5955 3.53803 73.8203 3.67452 73.9859C3.81102 74.1456 4.00758 74.2225 4.25328 74.2225C4.51535 74.2225 4.75559 74.1338 4.96853 73.9622Z" fill="#7D7D7D"/>
<path d="M19.1638 74.956C18.7597 74.6957 18.3885 74.3289 18.0554 73.8497C17.7224 73.3588 17.4275 72.8914 17.1709 72.4418C16.9143 71.9923 16.6631 71.4835 16.4229 70.9156C16.3301 70.6967 16.2209 70.5489 16.0898 70.466C15.9861 70.3951 15.8769 70.3596 15.7568 70.3596C15.664 70.3596 15.6203 70.4601 15.6203 70.6613V73.5717C15.6203 73.8734 15.6967 74.0805 15.8496 74.1988C16.0025 74.3171 16.2864 74.4295 16.7013 74.53C16.7942 74.5478 16.8597 74.5833 16.9034 74.6365C16.947 74.6838 16.9634 74.7548 16.9634 74.8436C16.9634 74.9914 16.887 75.0684 16.7396 75.0684L15.5384 75.0388L14.4191 75.0092C14.2553 75.0092 13.9222 75.021 13.4254 75.0388C13.0541 75.0683 12.6992 75.0861 12.3443 75.0861C12.2897 75.0861 12.2351 75.0624 12.1805 75.021C12.1259 74.9737 12.0986 74.9264 12.0986 74.8613C12.0986 74.6898 12.186 74.5833 12.3607 74.53C12.7211 74.4531 12.9613 74.3466 13.0869 74.2224C13.2125 74.0982 13.2725 73.8852 13.2725 73.5835V66.7806C13.2725 66.4612 13.2179 66.2364 13.1087 66.1003C12.9995 65.9643 12.7757 65.8578 12.4426 65.7809C12.2515 65.7336 12.1532 65.6271 12.1532 65.4674C12.1532 65.3964 12.1805 65.3372 12.2297 65.2958C12.2788 65.2485 12.3498 65.2308 12.4317 65.2308C12.7647 65.2308 13.1306 65.2485 13.5401 65.2899C13.9059 65.3313 14.2007 65.3491 14.4136 65.3491C14.5884 65.3491 14.845 65.3313 15.1726 65.2899C15.5766 65.2308 15.9861 65.2012 16.4011 65.2012C17.5094 65.2012 18.3557 65.4023 18.9399 65.7987C19.5241 66.2009 19.819 66.7984 19.819 67.597C19.819 68.2063 19.6442 68.6973 19.2948 69.07C18.9454 69.4426 18.514 69.7148 18.0063 69.8745C17.979 69.8863 17.9626 69.91 17.9626 69.9514C17.9626 69.9928 17.9735 70.0283 17.9899 70.0579C18.4485 70.8091 18.8744 71.4539 19.262 72.0041C19.6497 72.5542 20.0264 73.0156 20.3977 73.4002C20.6816 73.69 20.9819 73.8734 21.2877 73.9562C21.5989 74.0331 21.9702 74.0745 22.4015 74.0745C22.538 74.0745 22.609 74.1692 22.609 74.3585C22.609 75.0269 22.0193 75.3641 20.84 75.3641C20.1302 75.3464 19.5733 75.2162 19.1638 74.956ZM17.1927 69.3362C17.4384 68.999 17.5586 68.5316 17.5586 67.9401C17.5586 67.242 17.4384 66.7215 17.1982 66.3902C16.958 66.053 16.614 65.8874 16.1608 65.8874C15.9697 65.8874 15.8278 65.982 15.7459 66.1654C15.664 66.3488 15.6203 66.7156 15.6203 67.2657V69.2711C15.6203 69.6497 15.7841 69.839 16.1062 69.839C16.5867 69.8449 16.9525 69.6793 17.1927 69.3362Z" fill="#7D7D7D"/>
<path d="M25.793 74.8561C25.793 74.7673 25.8203 74.6963 25.8694 74.6549C25.9186 74.6076 25.995 74.5662 26.0987 74.5248C26.3772 74.4479 26.612 74.3177 26.8085 74.1521C27.0051 73.9806 27.1525 73.7853 27.2453 73.5665C28.1189 71.3599 28.9106 69.1889 29.6095 67.0652C29.7187 66.734 29.806 66.4382 29.8715 66.172C29.9371 65.9058 29.9753 65.7756 29.9971 65.7756C30.3957 65.6751 30.7397 65.5686 31.0345 65.4621C31.1928 65.4029 31.3403 65.3201 31.4768 65.2196C31.6132 65.119 31.7224 65.0243 31.7934 64.9356C31.8699 64.8942 31.9135 64.8765 31.9299 64.8765C31.9736 64.8765 32.0118 64.912 32.0391 64.9829C32.1046 65.1308 32.1538 65.2728 32.192 65.403C32.7653 67.4202 33.3932 69.5675 34.0866 71.845L34.5998 73.5665C34.7309 74.0279 35.0967 74.3473 35.7082 74.5248C35.8119 74.5662 35.8884 74.6017 35.9375 74.6431C35.9866 74.6845 36.0139 74.7496 36.0139 74.8383C36.0139 74.9093 35.9866 74.9625 35.9375 75.0039C35.8884 75.0454 35.8229 75.0631 35.7519 75.0631C35.5662 75.0631 35.2004 75.0513 34.6435 75.0335C34.0702 75.0158 33.6771 75.0039 33.4532 75.0039C33.2676 75.0039 32.9182 75.0158 32.3995 75.0335C31.9736 75.0631 31.5859 75.0809 31.2365 75.0809C31.1546 75.0809 31.0836 75.0631 31.029 75.0217C30.9744 74.9803 30.9471 74.927 30.9471 74.8561C30.9471 74.6845 31.0509 74.578 31.2529 74.5248C31.575 74.4538 31.8153 74.3651 31.9627 74.2645C32.1156 74.158 32.192 74.0101 32.192 73.8208C32.192 73.7203 32.1811 73.6434 32.1647 73.5783L31.7334 71.8391C31.717 71.7504 31.6897 71.6853 31.6569 71.6439C31.6242 71.6025 31.575 71.5847 31.5095 71.5847H29.1017C29.0253 71.5847 28.9761 71.6025 28.9488 71.6439C28.9215 71.6853 28.8942 71.7504 28.8669 71.8391L28.6758 72.4839C28.6485 72.5963 28.6048 72.7383 28.5502 72.9217C28.4956 73.0991 28.4465 73.2588 28.4137 73.4008C28.3755 73.531 28.3591 73.6611 28.3591 73.7913C28.3591 73.9806 28.4247 74.1284 28.5612 74.2349C28.6922 74.3414 28.9324 74.4361 29.2709 74.5248C29.473 74.5721 29.5767 74.6845 29.5767 74.8561C29.5767 74.998 29.4784 75.0631 29.2873 75.0631C29.0744 75.0631 28.8014 75.0513 28.4738 75.0335L27.7258 75.0158C27.4692 75.0158 27.2126 75.0335 26.9669 75.0631C26.885 75.0749 26.7594 75.0808 26.5956 75.0927C26.4318 75.1045 26.2844 75.1045 26.1533 75.1045C25.9131 75.1104 25.793 75.0217 25.793 74.8561ZM31.2256 70.7151C31.3621 70.7151 31.4331 70.6796 31.4331 70.6087C31.4331 70.5968 31.4222 70.5436 31.4058 70.443L30.5213 67.1303C30.494 67.0297 30.4667 66.9824 30.4394 66.9824C30.423 66.9824 30.3957 67.0297 30.3575 67.1303L29.2928 70.443C29.2764 70.4844 29.2655 70.5199 29.2655 70.5613C29.2655 70.6146 29.2873 70.6501 29.3365 70.6737C29.3801 70.6974 29.4402 70.7092 29.5003 70.7092H31.2256V70.7151Z" fill="#7D7D7D"/>
<path d="M47.818 75.0563C47.545 74.8789 47.272 74.6127 46.9936 74.2518L41.6156 68.0642C41.55 67.9636 41.5009 67.9163 41.4627 67.9163C41.3972 67.9163 41.3644 68.011 41.3644 68.2003C41.3644 68.9279 41.3808 69.756 41.4081 70.6729C41.419 71.0338 41.4245 71.442 41.4354 71.9034C41.4463 72.3648 41.4518 72.8439 41.4518 73.3408C41.4518 73.6721 41.5446 73.9265 41.7357 74.1039C41.9268 74.2814 42.2107 74.4234 42.5984 74.524C42.8495 74.5949 42.9696 74.7014 42.9696 74.8375C42.9696 74.9085 42.9369 74.9617 42.8659 75.0031C42.7949 75.0445 42.7185 75.0623 42.6366 75.0623C42.3417 75.0623 42.036 75.0504 41.7248 75.0327L41.0477 75.0149C40.7802 75.0149 40.5181 75.0209 40.2615 75.0386C40.0049 75.0563 39.8356 75.0682 39.7647 75.0741C39.6991 75.0741 39.6282 75.0504 39.5572 75.009C39.4807 74.9617 39.448 74.9144 39.448 74.8493C39.448 74.7724 39.4753 74.7073 39.5299 74.66C39.5845 74.6127 39.6664 74.5654 39.781 74.518C40.196 74.3406 40.4253 73.9324 40.4744 73.3054C40.6655 71.087 40.7638 69.1231 40.7638 67.4135C40.7638 66.9462 40.6601 66.5912 40.4526 66.3487C40.2451 66.1061 39.9394 65.905 39.5353 65.7335C39.2842 65.6625 39.1641 65.5501 39.1641 65.4022C39.1641 65.2425 39.2842 65.1597 39.5244 65.1597L40.5782 65.1892C41.6865 65.2188 42.2708 65.2366 42.3363 65.2366C42.4564 65.2366 42.5492 65.2839 42.6147 65.3845L47.7197 71.5129C47.8126 71.6313 47.8781 71.6904 47.9108 71.6904C47.9818 71.6904 48.02 71.6194 48.02 71.4775V69.9039C48.02 68.3481 48.0037 67.2893 47.9764 66.7273C47.9654 66.4492 47.8781 66.2422 47.7143 66.1121C47.5505 65.9819 47.2775 65.8636 46.9008 65.7512C46.6878 65.6921 46.5841 65.5856 46.5841 65.4377C46.5841 65.3785 46.6114 65.3253 46.6714 65.278C46.7315 65.2307 46.797 65.2129 46.8735 65.2129L47.7743 65.2247C47.8945 65.2366 48.0856 65.2425 48.3422 65.2425L48.981 65.2247C49.2758 65.207 49.5543 65.1952 49.8109 65.1952C49.9146 65.1952 49.9911 65.2129 50.0511 65.2543C50.1112 65.2957 50.1385 65.349 50.1385 65.42C50.1385 65.5797 50.0238 65.6862 49.7945 65.7335C49.4615 65.8045 49.2267 65.905 49.0902 66.0411C48.9537 66.1771 48.8827 66.3901 48.8827 66.68C48.8827 67.2774 48.8499 68.4191 48.7844 70.0991C48.7407 71.0811 48.7135 71.8679 48.7135 72.4653C48.7135 72.696 48.7298 72.98 48.7626 73.3113C48.7953 73.6485 48.8172 73.8614 48.8226 73.962C48.8609 74.3406 48.8773 74.5417 48.8773 74.5594C48.8773 75.0504 48.7462 75.293 48.4787 75.293C48.304 75.3166 48.091 75.2279 47.818 75.0563Z" fill="#7D7D7D"/>
<path d="M56.8273 75.0629L56.1066 75.0333L55.1129 75.051C54.616 75.0688 54.2557 75.0806 54.0318 75.0806C53.9772 75.0806 53.9226 75.057 53.868 75.0156C53.8134 74.9682 53.7861 74.9209 53.7861 74.8558C53.7861 74.6843 53.8735 74.5778 54.0482 74.5246C54.4086 74.4477 54.6488 74.3412 54.7744 74.217C54.9 74.0927 54.96 73.8798 54.96 73.5781V66.7752C54.96 66.4557 54.9 66.2309 54.7798 66.1008C54.6597 65.9706 54.414 65.8583 54.0482 65.7695C53.8735 65.7222 53.7861 65.6098 53.7861 65.4383C53.7861 65.3791 53.8134 65.3259 53.868 65.2785C53.9226 65.2312 53.9772 65.2135 54.0318 65.2135C54.3703 65.2135 54.7307 65.2312 55.1129 65.2608C55.6098 65.2785 55.9428 65.2904 56.1066 65.2904C56.254 65.2904 56.669 65.2726 57.3515 65.2312C58.367 65.1839 58.9239 65.1543 59.0277 65.1543C59.8849 65.1543 60.6875 65.3613 61.43 65.7695C62.1726 66.1777 62.7623 66.7515 63.21 67.491C63.6522 68.2304 63.8761 69.0704 63.8761 70.0051C63.8761 70.9042 63.685 71.7442 63.2973 72.531C62.9097 73.3178 62.3418 73.9448 61.5884 74.4181C60.8349 74.8913 59.9449 75.1279 58.913 75.1279C58.4871 75.1398 57.7937 75.1102 56.8273 75.0629ZM60.6711 73.2882C61.1134 72.602 61.3372 71.6555 61.3372 70.4487C61.3372 69.0882 61.1024 68.0115 60.6329 67.2188C60.1633 66.4261 59.4645 66.0298 58.5472 66.0298C58.0776 66.0298 57.7555 66.0594 57.5808 66.1126C57.4061 66.1659 57.3187 66.3078 57.3187 66.5267V73.0279C57.3187 73.4893 57.4279 73.8147 57.6463 74.0158C57.8647 74.217 58.2087 74.3175 58.6891 74.3175C59.5682 74.3116 60.2288 73.9744 60.6711 73.2882Z" fill="#7D7D7D"/>
<path d="M67.8231 75.0096C67.7685 74.9623 67.7412 74.915 67.7412 74.8499C67.7412 74.6784 67.8286 74.5719 68.0033 74.5186C68.3636 74.4417 68.6039 74.3352 68.7295 74.211C68.855 74.0868 68.9151 73.8738 68.9151 73.5721V66.7692C68.9151 66.4498 68.855 66.225 68.7349 66.0949C68.6148 65.9647 68.3691 65.8523 68.0033 65.7636C67.8286 65.7163 67.7412 65.6039 67.7412 65.4323C67.7412 65.3731 67.7685 65.3199 67.8231 65.2726C67.8777 65.2253 67.9323 65.2075 67.9869 65.2075C68.3254 65.2075 68.6858 65.2253 69.068 65.2548C69.5648 65.2726 69.8979 65.2844 70.0617 65.2844C70.2364 65.2844 70.5804 65.2726 71.0991 65.2548C71.6341 65.2371 72.0054 65.2253 72.2074 65.2253C72.3548 65.2253 72.4313 65.3022 72.4313 65.4501C72.4313 65.5388 72.4094 65.6098 72.3712 65.6512C72.3275 65.6985 72.262 65.734 72.1692 65.7636C71.7925 65.8819 71.5468 66.0061 71.4376 66.1363C71.3284 66.2664 71.2738 66.4794 71.2738 66.7811V73.5544C71.2738 73.8324 71.3338 74.0336 71.454 74.1637C71.5741 74.2879 71.8143 74.4062 72.1747 74.5186C72.2675 74.5482 72.333 74.5837 72.3767 74.631C72.4204 74.6783 72.4367 74.7434 72.4367 74.8321C72.4367 74.98 72.3603 75.0569 72.2129 75.0569C72.0109 75.0569 71.6396 75.0451 71.1045 75.0274C70.5858 75.0096 70.2419 74.9978 70.0671 74.9978C69.9033 74.9978 69.5703 75.0096 69.0734 75.0274C68.7022 75.0569 68.3473 75.0747 67.9924 75.0747C67.9323 75.0806 67.8777 75.0569 67.8231 75.0096Z" fill="#7D7D7D"/>
<path d="M84.7594 75.0563C84.4864 74.8789 84.2134 74.6127 83.935 74.2518L78.557 68.0642C78.4915 67.9636 78.4423 67.9163 78.4041 67.9163C78.3386 67.9163 78.3058 68.011 78.3058 68.2003C78.3058 68.9279 78.3222 69.756 78.3495 70.6729C78.3604 71.0338 78.3659 71.442 78.3768 71.9034C78.3877 72.3648 78.3932 72.8439 78.3932 73.3408C78.3932 73.6721 78.486 73.9265 78.6771 74.1039C78.8682 74.2814 79.1521 74.4234 79.5398 74.524C79.7909 74.5949 79.911 74.7014 79.911 74.8375C79.911 74.9085 79.8783 74.9617 79.8073 75.0031C79.7363 75.0445 79.6599 75.0623 79.578 75.0623C79.2831 75.0623 78.9774 75.0504 78.6662 75.0327L77.9891 75.0149C77.7216 75.0149 77.4595 75.0209 77.2029 75.0386C76.9463 75.0563 76.777 75.0682 76.7061 75.0741C76.6405 75.0741 76.5696 75.0504 76.4986 75.009C76.4221 74.9617 76.3894 74.9144 76.3894 74.8493C76.3894 74.7724 76.4167 74.7073 76.4713 74.66C76.5259 74.6127 76.6078 74.5654 76.7224 74.518C77.1374 74.3406 77.3667 73.9324 77.4158 73.3054C77.6069 71.087 77.7052 69.1231 77.7052 67.4135C77.7052 66.9462 77.6015 66.5912 77.394 66.3487C77.1865 66.1061 76.8808 65.905 76.4767 65.7335C76.2256 65.6625 76.1055 65.5501 76.1055 65.4022C76.1055 65.2425 76.2256 65.1597 76.4658 65.1597L77.5196 65.1892C78.6279 65.2188 79.2122 65.2366 79.2777 65.2366C79.3978 65.2366 79.4906 65.2839 79.5561 65.3845L84.6612 71.5129C84.754 71.6313 84.8195 71.6904 84.8523 71.6904C84.9232 71.6904 84.9615 71.6194 84.9615 71.4775V69.9039C84.9615 68.3481 84.9451 67.2893 84.9178 66.7273C84.9069 66.4492 84.8195 66.2422 84.6557 66.1121C84.4919 65.9819 84.2189 65.8636 83.8422 65.7512C83.6292 65.6921 83.5255 65.5856 83.5255 65.4377C83.5255 65.3785 83.5528 65.3253 83.6129 65.278C83.6729 65.2307 83.7384 65.2129 83.8149 65.2129L84.7158 65.2247C84.8359 65.2366 85.027 65.2425 85.2836 65.2425L85.9224 65.2247C86.2172 65.207 86.4957 65.1952 86.7523 65.1952C86.856 65.1952 86.9325 65.2129 86.9925 65.2543C87.0526 65.2957 87.0799 65.349 87.0799 65.42C87.0799 65.5797 86.9652 65.6862 86.7359 65.7335C86.4029 65.8045 86.1681 65.905 86.0316 66.0411C85.8951 66.1771 85.8241 66.3901 85.8241 66.68C85.8241 67.2774 85.7914 68.4191 85.7258 70.0991C85.6822 71.0811 85.6549 71.8679 85.6549 72.4653C85.6549 72.696 85.6712 72.98 85.704 73.3113C85.7368 73.6485 85.7586 73.8614 85.7641 73.962C85.8023 74.3406 85.8187 74.5417 85.8187 74.5594C85.8187 75.0504 85.6876 75.293 85.4201 75.293C85.2454 75.3166 85.0324 75.2279 84.7594 75.0563Z" fill="#7D7D7D"/>
<path d="M93.2656 74.619C92.5231 74.2049 91.9389 73.6252 91.5075 72.8739C91.0762 72.1226 90.8633 71.2708 90.8633 70.3124C90.8633 69.4014 91.0762 68.5496 91.5075 67.745C91.9389 66.9405 92.5504 66.2957 93.3475 65.8106C94.1447 65.3255 95.0674 65.083 96.1212 65.083C96.4979 65.083 96.9784 65.1362 97.5517 65.2486C98.1304 65.361 98.5781 65.4853 98.9003 65.6213C99.075 65.7042 99.1787 65.8343 99.206 66.0236C99.3152 66.8459 99.3698 67.4493 99.3698 67.8397C99.3698 67.9403 99.348 68.0172 99.3098 68.0645C99.2661 68.1177 99.2115 68.1414 99.1351 68.1414C99.0313 68.1414 98.9549 68.1177 98.9003 68.0645C98.8457 68.0172 98.7965 67.9403 98.7474 67.8397C98.5072 67.2777 98.2669 66.8695 98.0267 66.6092C97.8247 66.3904 97.5953 66.2188 97.3333 66.0946C97.0767 65.9704 96.7545 65.9053 96.3669 65.9053C95.739 65.9053 95.1984 66.0887 94.7507 66.4495C94.2976 66.8163 93.959 67.2955 93.7352 67.9048C93.5113 68.5082 93.3967 69.1648 93.3967 69.8747C93.3967 71.2826 93.6042 72.3888 94.0246 73.1874C94.445 73.986 95.0892 74.3883 95.9519 74.3883C96.1922 74.3883 96.4542 74.2759 96.7381 74.057C96.831 73.986 96.9019 73.8677 96.9511 73.7021C97.0002 73.5365 97.033 73.3472 97.0384 73.1224C97.0548 72.7852 97.0657 72.3415 97.0657 71.8032C97.0657 71.5429 96.9456 71.3654 96.7054 71.2649C96.4269 71.1465 96.1649 71.0578 95.9192 70.9927C95.8263 70.9632 95.7444 70.9158 95.6789 70.8567C95.6079 70.7975 95.5752 70.7265 95.5752 70.6437C95.5752 70.5727 95.6025 70.5195 95.6625 70.4781C95.7226 70.4367 95.7936 70.4189 95.8755 70.4189C96.2249 70.4189 96.6071 70.4367 97.0221 70.4662C97.5571 70.484 97.9066 70.4958 98.0758 70.4958C98.2505 70.4958 98.5399 70.484 98.9494 70.4662C99.3753 70.4485 99.6865 70.4367 99.8885 70.4367C100.036 70.4367 100.112 70.5136 100.112 70.6615C100.112 70.7502 100.091 70.8212 100.052 70.8744C100.009 70.9218 99.9431 70.9572 99.8503 70.9809C99.5828 71.0637 99.3971 71.1525 99.2988 71.253C99.1951 71.3536 99.1296 71.5074 99.0914 71.7144C99.0258 72.0516 98.9931 72.4302 98.9931 72.8384V73.3472C98.9931 73.4063 99.0259 73.4714 99.0805 73.5365C99.1405 73.6015 99.1733 73.637 99.1842 73.6489C99.277 73.7494 99.3207 73.8559 99.3207 73.9801C99.3207 74.057 99.2988 74.1339 99.2497 74.199C99.206 74.2641 99.1296 74.2996 99.0258 74.3114C98.9603 74.3232 98.8348 74.3765 98.6382 74.477C98.2232 74.6841 97.7865 74.8675 97.3224 75.0154C96.8637 75.1633 96.3232 75.2402 95.7062 75.2402C94.8217 75.2402 94.0027 75.0331 93.2656 74.619Z" fill="#7D7D7D"/>
<path d="M42.2649 55.0502C42.4615 55.1921 42.598 55.3814 42.6853 55.6181V54.8845H43.5098V58.4161H42.6853V57.6767C42.6034 57.9133 42.4615 58.1026 42.2649 58.2505C42.0683 58.3925 41.8336 58.4635 41.5606 58.4635C41.2876 58.4635 41.0364 58.3925 40.818 58.2446C40.5996 58.1026 40.4249 57.8897 40.3048 57.6175C40.1792 57.3454 40.1191 57.0201 40.1191 56.6533C40.1191 56.2806 40.1792 55.9612 40.3048 55.689C40.4304 55.4169 40.5996 55.204 40.818 55.062C41.0364 54.92 41.2876 54.8431 41.5606 54.8431C41.8336 54.8372 42.0683 54.9082 42.2649 55.0502ZM41.1893 55.8961C41.031 56.0795 40.9545 56.3279 40.9545 56.6474C40.9545 56.9668 41.031 57.2153 41.1893 57.3987C41.3476 57.582 41.5551 57.6708 41.8117 57.6708C42.0629 57.6708 42.2704 57.5761 42.4342 57.3927C42.598 57.2094 42.6799 56.9609 42.6799 56.6474C42.6799 56.3338 42.598 56.0854 42.4342 55.8961C42.2704 55.7127 42.0629 55.6181 41.8117 55.6181C41.5551 55.624 41.3476 55.7127 41.1893 55.8961Z" fill="#7D7D7D"/>
<path d="M50.0458 55.2334C50.2696 55.4996 50.3788 55.8782 50.3788 56.3633V58.416H49.5544V56.4639C49.5544 56.1858 49.4889 55.967 49.3524 55.8072C49.2213 55.6534 49.0357 55.5765 48.8064 55.5765C48.5716 55.5765 48.3805 55.6594 48.244 55.825C48.1021 55.9906 48.0311 56.2272 48.0311 56.5408V58.416H47.2012V54.8844H48.0311V55.5943C48.1184 55.3577 48.2604 55.1684 48.457 55.0382C48.6535 54.9022 48.8828 54.8371 49.1449 54.8371C49.5216 54.8312 49.8219 54.9672 50.0458 55.2334Z" fill="#7D7D7D"/>
<path d="M56.0354 55.05C56.232 55.192 56.3685 55.3813 56.4558 55.6179V53.6953H57.2803V58.416H56.4558V57.6765C56.3685 57.9131 56.232 58.1024 56.0354 58.2503C55.8389 58.3923 55.6041 58.4633 55.3311 58.4633C55.0581 58.4633 54.8069 58.3923 54.5885 58.2444C54.3701 58.1024 54.1954 57.8895 54.0753 57.6174C53.9497 57.3452 53.8896 57.0199 53.8896 56.6531C53.8896 56.2804 53.9497 55.961 54.0753 55.6889C54.2009 55.4168 54.3701 55.2038 54.5885 55.0618C54.8069 54.9198 55.0581 54.8429 55.3311 54.8429C55.6041 54.837 55.8389 54.908 56.0354 55.05ZM54.9653 55.8959C54.8069 56.0793 54.7305 56.3278 54.7305 56.6472C54.7305 56.9666 54.8069 57.2151 54.9653 57.3985C55.1236 57.5819 55.3311 57.6706 55.5877 57.6706C55.8388 57.6706 56.0463 57.5759 56.2101 57.3926C56.3739 57.2092 56.4558 56.9607 56.4558 56.6472C56.4558 56.3337 56.3739 56.0852 56.2101 55.8959C56.0463 55.7125 55.8388 55.6179 55.5877 55.6179C55.3311 55.6238 55.1236 55.7125 54.9653 55.8959Z" fill="#7D7D7D"/>
<path d="M9.76828 28.9564L9.37517 29.6781L6.23026 29.8319L8.49066 31.2872L8.09754 32.0089L4.77246 29.8674L5.16558 29.1457L8.33232 29.0037L6.05008 27.5367L6.44319 26.8149L9.76828 28.9564Z" fill="#7D7D7D"/>
<path d="M12.8039 23.1117L11.8266 24.4191L12.2579 25.1822L11.7447 25.8684L9.66992 22.0588L10.2268 21.3193L14.0925 22.7391L13.5792 23.4253L12.8039 23.1117ZM12.2142 22.887L10.5872 22.254L11.4935 23.8453L12.2142 22.887Z" fill="#7D7D7D"/>
<path d="M15.7532 15.0137L16.1736 15.4988L15.3929 16.2915L17.6205 18.8588L17.0581 19.4327L14.8305 16.8594L14.0552 17.6461L13.6348 17.1611L15.7532 15.0137Z" fill="#7D7D7D"/>
<path d="M19.4443 11.7898L20.7601 13.7892C20.9348 14.0554 21.1205 14.2151 21.317 14.2625C21.5136 14.3098 21.7156 14.2566 21.9176 14.0968C22.1196 13.943 22.2288 13.7537 22.2507 13.5349C22.2725 13.316 22.1906 13.0735 22.0159 12.8073L20.7001 10.8078L21.3225 10.3228L22.6383 12.3222C22.8458 12.6357 22.9659 12.9492 23.0041 13.2509C23.0369 13.5526 22.9932 13.8306 22.8731 14.085C22.753 14.3394 22.5674 14.5642 22.3271 14.7475C21.9504 15.0374 21.5682 15.1498 21.1805 15.0788C20.7929 15.0078 20.4435 14.7357 20.1322 14.2625L18.8164 12.263L19.4443 11.7898Z" fill="#7D7D7D"/>
<path d="M28.5505 10.6305L27.049 9.63673L26.7487 9.80828L27.4476 11.2576L26.7651 11.648L24.9688 7.93307L26.2737 7.19363C26.6722 6.96884 27.0271 6.89786 27.3384 6.9925C27.6496 7.08715 27.8844 7.30011 28.0536 7.64912C28.1901 7.92715 28.2283 8.20518 28.1792 8.4773C28.1246 8.74941 27.9772 8.99194 27.7369 9.21082L29.3094 10.2105L28.5505 10.6305ZM26.503 9.29363L27.0654 8.97419C27.4585 8.75532 27.5622 8.45363 27.382 8.08095C27.2947 7.90349 27.18 7.79109 27.0381 7.74377C26.8961 7.69645 26.7214 7.73194 26.5194 7.84434L25.957 8.16377L26.503 9.29363Z" fill="#7D7D7D"/>
<path d="M34.5177 7.00396L33.0544 7.56594L33.0599 8.45918L32.29 8.75496L32.3501 4.33604L33.18 4.0166L35.8008 7.40621L35.0309 7.70199L34.5177 7.00396ZM34.1246 6.47747L33.038 5.01633L33.049 6.89156L34.1246 6.47747Z" fill="#7D7D7D"/>
<path d="M39.7817 5.64336L41.0538 5.34758L41.1794 5.97462L39.1538 6.44195L38.3457 2.34251L39.0992 2.16504L39.7817 5.64336Z" fill="#7D7D7D"/>
<path d="M51.5477 5.10489L50.9689 4.34769C50.9362 4.4246 50.9143 4.48967 50.887 4.53108C50.8161 4.71446 50.7014 4.85644 50.5376 4.96292C50.3738 5.0694 50.1773 5.12264 49.9589 5.11672C49.7132 5.11081 49.5002 5.05165 49.3201 4.93925C49.1399 4.82686 48.9979 4.67305 48.8996 4.47784C48.8014 4.28262 48.7577 4.06375 48.7631 3.82121C48.7686 3.57867 48.8123 3.3657 48.8996 3.18824C48.987 3.00485 49.1071 2.86879 49.2545 2.76823C49.402 2.66766 49.5712 2.62034 49.7514 2.61442L49.6859 2.50794C49.6149 2.39555 49.5603 2.28315 49.5221 2.17667C49.4839 2.07019 49.4675 1.94596 49.4675 1.8099C49.4675 1.63835 49.5112 1.47863 49.5985 1.33666C49.6804 1.18876 49.806 1.07045 49.9698 0.981715C50.1336 0.892981 50.3301 0.851573 50.554 0.857488C50.8816 0.863404 51.1273 0.946226 51.302 1.10595C51.4767 1.26567 51.5859 1.47271 51.635 1.72117C51.6678 1.83948 51.6842 1.96962 51.6842 2.09976L51.6787 2.21216L50.9635 2.20033C50.9635 2.09977 50.9635 2.03469 50.958 1.9992C50.958 1.85723 50.9198 1.74483 50.8543 1.66793C50.7833 1.59102 50.6905 1.54962 50.5649 1.54962C50.4503 1.54962 50.3629 1.57919 50.2974 1.65018C50.2319 1.72117 50.1991 1.80398 50.1936 1.91046C50.1936 1.9992 50.21 2.08202 50.2373 2.14709C50.2701 2.21216 50.3247 2.3009 50.3957 2.40146L52.323 5.11672L51.5477 5.10489ZM50.3629 4.27079C50.4666 4.17023 50.5158 4.03417 50.5212 3.86853C50.5212 3.69698 50.4666 3.54909 50.3574 3.43077C50.2428 3.31246 50.1063 3.25331 49.9534 3.25331C49.806 3.25331 49.6804 3.30063 49.5821 3.39528C49.4839 3.48993 49.4347 3.63191 49.4293 3.81529C49.4293 3.99867 49.4784 4.14657 49.5821 4.25305C49.6859 4.36544 49.8224 4.41868 49.9752 4.4246C50.1336 4.4246 50.2646 4.37136 50.3629 4.27079Z" fill="#7D7D7D"/>
<path d="M64.0177 2.91655L63.095 6.98643L62.3415 6.7853L62.7401 5.01656L61.1349 4.59064L60.7363 6.35938L59.9883 6.15825L60.911 2.08838L61.659 2.28951L61.2877 3.93993L62.893 4.36585L63.2642 2.71542L64.0177 2.91655Z" fill="#7D7D7D"/>
<path d="M68.5717 5.27641L68.2059 6.28799L69.4781 6.83223L69.2597 7.42971L67.9875 6.88547L67.6053 7.93254L69.0303 8.54185L68.801 9.16299L66.6553 8.24607L68.0749 4.34766L70.2206 5.26458L69.9968 5.88572L68.5717 5.27641Z" fill="#7D7D7D"/>
<path d="M74.5177 11.3343L73.1637 10.512L72.5467 11.1036L71.8369 10.6718L74.9491 7.80859L75.7189 8.27593L75.091 12.6417L74.3812 12.2098L74.5177 11.3343ZM74.6215 10.6718L74.9218 8.82608L73.6278 10.0684L74.6215 10.6718Z" fill="#7D7D7D"/>
<path d="M78.9289 14.73L79.9717 15.5701L79.6168 16.0847L77.957 14.7419L80.2666 11.3818L80.889 11.8847L78.9289 14.73Z" fill="#7D7D7D"/>
<path d="M86.8953 17.4923L86.4694 17.9715L85.6941 17.1729L83.4446 19.7225L82.8877 19.1428L85.1372 16.5932L84.3673 15.8005L84.7932 15.3213L86.8953 17.4923Z" fill="#7D7D7D"/>
<path d="M91.5964 23.3901L88.5716 26.0048L88.0856 25.3481L89.4015 24.2123L88.3696 22.8103L87.0537 23.9461L86.5732 23.2895L89.598 20.6748L90.0785 21.3314L88.8555 22.3903L89.8874 23.7923L91.1104 22.7334L91.5964 23.3901Z" fill="#7D7D7D"/>
<path d="M95.6042 30.1458L92.7705 30.3056L91.6021 31.0509L91.209 30.3233L92.3774 29.578L93.8789 26.9692L94.3266 27.7974L93.2837 29.4951L95.162 29.3295L95.6042 30.1458Z" fill="#7D7D7D"/>
<path d="M12.137 86.1242C12.1697 86.4909 12.1151 86.8399 11.9677 87.183C11.8203 87.5202 11.591 87.8101 11.2852 88.0526C10.974 88.2892 10.6464 88.4312 10.3024 88.4726C9.95846 88.514 9.63086 88.4549 9.32511 88.3011C9.01935 88.1473 8.75727 87.9106 8.5498 87.5912C8.34232 87.2718 8.21674 86.9287 8.18398 86.5678C8.15122 86.2011 8.20582 85.8521 8.35324 85.509C8.50066 85.1718 8.72998 84.8819 9.04119 84.6394C9.35241 84.4028 9.68 84.2608 10.0185 84.2194C10.3625 84.178 10.6901 84.2371 10.9958 84.3909C11.3016 84.5447 11.5637 84.7813 11.7712 85.1008C11.9786 85.4143 12.1042 85.7574 12.137 86.1242ZM10.7174 85.1126C10.5318 85.0239 10.3352 85.0002 10.1223 85.0357C9.90932 85.0712 9.70184 85.1659 9.48891 85.3315C9.28143 85.4912 9.12855 85.6746 9.02481 85.8816C8.92653 86.0887 8.88285 86.2957 8.89923 86.5146C8.91561 86.7335 8.98659 86.9405 9.12309 87.1357C9.25413 87.3368 9.41247 87.4788 9.59265 87.5675C9.77828 87.6563 9.97484 87.6799 10.1878 87.6445C10.4007 87.609 10.6082 87.5084 10.8211 87.3487C11.0286 87.189 11.1815 87.0056 11.2852 86.7985C11.3835 86.5915 11.4272 86.3845 11.4108 86.1656C11.3944 85.9467 11.3234 85.7397 11.1869 85.5444C11.0559 85.3433 10.903 85.2013 10.7174 85.1126Z" fill="#7D7D7D"/>
<path d="M13.4253 93.8969L13.9058 92.063L13.671 91.7968L12.5736 92.9149L12.0439 92.3056L14.8613 89.4365L15.8714 90.6019C16.1771 90.9568 16.3354 91.3058 16.3354 91.6549C16.3354 92.0039 16.2099 92.3115 15.9478 92.5777C15.7349 92.7966 15.5001 92.909 15.2435 92.9326C14.9868 92.9504 14.7302 92.8616 14.4736 92.6723L14.0095 94.5772L13.4253 93.8969ZM14.0587 91.4005L14.4955 91.9033C14.7957 92.2523 15.0906 92.2819 15.3745 91.992C15.511 91.856 15.5765 91.7022 15.582 91.5425C15.582 91.3827 15.5055 91.2112 15.3527 91.0337L14.9159 90.5309L14.0587 91.4005Z" fill="#7D7D7D"/>
<path d="M21.1456 96.2464C21.2384 96.6545 21.1947 97.0509 21.0146 97.4472L20.3867 96.8911C20.4358 96.69 20.4303 96.4889 20.3703 96.2878C20.3048 96.0866 20.1901 95.9092 20.0099 95.7554C19.8352 95.6016 19.6496 95.5128 19.453 95.4773C19.2565 95.4478 19.0599 95.4773 18.8688 95.572C18.6777 95.6666 18.4975 95.8205 18.3337 96.0393C18.0771 96.3824 17.9625 96.7196 17.9898 97.0568C18.0171 97.394 18.1754 97.6957 18.4648 97.95C18.6777 98.1393 18.918 98.234 19.1746 98.234C19.4312 98.234 19.6769 98.1275 19.9062 97.9205L18.8907 97.0272L19.2401 96.5599L20.7579 97.8968L20.2884 98.5238C20.0864 98.7013 19.8516 98.8255 19.595 98.8965C19.3384 98.9675 19.0654 98.9734 18.7815 98.9024C18.4975 98.8374 18.23 98.6895 17.9734 98.4588C17.6786 98.1985 17.4711 97.9027 17.351 97.5596C17.2308 97.2224 17.2035 96.8734 17.2691 96.5126C17.3346 96.1517 17.4875 95.8145 17.7277 95.4892C17.9679 95.1697 18.2464 94.9331 18.5576 94.7911C18.8688 94.6492 19.191 94.6078 19.5185 94.661C19.8461 94.7142 20.1628 94.874 20.4576 95.1342C20.8235 95.4773 21.0528 95.8382 21.1456 96.2464Z" fill="#7D7D7D"/>
<path d="M24.8363 102.558L23.5096 101.688L22.8707 102.256L22.1719 101.8L25.3714 99.0557L26.1248 99.5526L25.3605 103.895L24.6616 103.439L24.8363 102.558ZM24.9619 101.895L25.3222 100.061L23.99 101.256L24.9619 101.895Z" fill="#7D7D7D"/>
<path d="M31.4977 107.012L30.7879 106.681L30.2364 103.321L29.1991 105.942L28.4893 105.61L30.018 101.759L30.7278 102.091L31.2684 105.474L32.3167 102.836L33.0265 103.167L31.4977 107.012Z" fill="#7D7D7D"/>
<path d="M36.8763 104.552L35.7625 108.562L35.0254 108.32L36.1392 104.309L36.8763 104.552Z" fill="#7D7D7D"/>
<path d="M42.8766 106.373C43.1441 106.699 43.2915 107.101 43.3188 107.574L42.5217 107.42C42.478 107.184 42.3743 106.983 42.2214 106.817C42.0685 106.657 41.8719 106.551 41.6262 106.503C41.4242 106.462 41.2331 106.486 41.053 106.563C40.8728 106.639 40.7199 106.77 40.5998 106.959C40.4742 107.142 40.3923 107.373 40.3486 107.645C40.3049 107.911 40.3104 108.16 40.365 108.379C40.4196 108.597 40.5233 108.781 40.6653 108.917C40.8073 109.053 40.982 109.148 41.184 109.189C41.4297 109.236 41.6481 109.213 41.8446 109.118C42.0412 109.023 42.1995 108.875 42.3197 108.668L43.1168 108.822C42.9421 109.26 42.6745 109.579 42.3197 109.781C41.9648 109.988 41.5443 110.041 41.0748 109.946C40.709 109.875 40.4032 109.727 40.1575 109.491C39.9064 109.26 39.7316 108.97 39.6334 108.621C39.5351 108.272 39.5187 107.894 39.5842 107.491C39.6498 107.083 39.7863 106.734 39.9937 106.444C40.2012 106.154 40.4578 105.947 40.7636 105.823C41.0693 105.699 41.4078 105.675 41.7737 105.746C42.2378 105.841 42.609 106.048 42.8766 106.373Z" fill="#7D7D7D"/>
<path d="M51.3445 109.212L51.3937 110.768L50.6238 110.797L50.4873 106.609L51.896 106.556C52.3546 106.538 52.6986 106.645 52.9388 106.876C53.179 107.106 53.3046 107.42 53.3155 107.828C53.3265 108.23 53.2173 108.55 52.9879 108.798C52.7586 109.047 52.4201 109.177 51.9779 109.194L51.3445 109.212ZM52.5348 107.852C52.5293 107.645 52.4693 107.485 52.3601 107.378C52.2509 107.272 52.0761 107.225 51.8359 107.23L51.2844 107.254L51.3281 108.544L51.8796 108.52C52.3328 108.502 52.5512 108.283 52.5348 107.852Z" fill="#7D7D7D"/>
<path d="M58.9394 109.958L57.8092 108.503L57.4761 108.562L57.7163 110.177L56.9519 110.307L56.335 106.166L57.7928 105.912C58.235 105.835 58.5899 105.894 58.8575 106.089C59.125 106.285 59.2888 106.575 59.3434 106.953C59.3925 107.267 59.3488 107.539 59.2178 107.781C59.0868 108.018 58.8793 108.201 58.5845 108.326L59.7802 109.81L58.9394 109.958ZM57.3887 107.994L58.0166 107.882C58.4534 107.805 58.6391 107.557 58.579 107.142C58.5517 106.941 58.4753 106.799 58.3497 106.705C58.2296 106.61 58.0548 106.586 57.831 106.622L57.2031 106.728L57.3887 107.994Z" fill="#7D7D7D"/>
<path d="M64.8749 104.273C65.2024 104.356 65.4973 104.528 65.7484 104.782C65.9996 105.042 66.1798 105.368 66.289 105.764C66.3982 106.16 66.42 106.539 66.3436 106.906C66.2671 107.272 66.1143 107.592 65.8849 107.858C65.6502 108.124 65.3663 108.314 65.0168 108.432C64.6728 108.544 64.3343 108.562 64.0013 108.479C63.6682 108.396 63.3788 108.225 63.1277 107.964C62.8765 107.704 62.6964 107.379 62.5872 106.983C62.478 106.586 62.4561 106.208 62.5326 105.841C62.609 105.474 62.7619 105.161 62.9912 104.888C63.226 104.622 63.5153 104.433 63.8593 104.315C64.2087 104.208 64.5418 104.19 64.8749 104.273ZM63.5426 105.403C63.4061 105.563 63.3242 105.758 63.286 105.989C63.2478 106.219 63.2696 106.462 63.3406 106.728C63.4171 106.994 63.5263 107.207 63.6737 107.379C63.8211 107.544 63.9958 107.657 64.1869 107.71C64.3835 107.763 64.5855 107.752 64.8039 107.681C65.0223 107.61 65.197 107.491 65.328 107.332C65.4645 107.172 65.5464 106.977 65.5846 106.746C65.6229 106.515 65.601 106.273 65.53 106.006C65.4536 105.74 65.3444 105.527 65.197 105.356C65.0496 105.19 64.8749 105.078 64.6838 105.024C64.4872 104.971 64.2852 104.983 64.0668 105.054C63.8539 105.131 63.6737 105.243 63.5426 105.403Z" fill="#7D7D7D"/>
<path d="M72.7519 103.954C72.7301 104.314 72.6154 104.646 72.408 104.941C72.2005 105.243 71.9057 105.486 71.5289 105.681L70.2841 106.314L68.6406 102.522L69.8855 101.889C70.2677 101.694 70.628 101.605 70.972 101.623C71.316 101.641 71.6217 101.753 71.8893 101.96C72.1568 102.173 72.3752 102.469 72.539 102.847C72.7028 103.22 72.7738 103.593 72.7519 103.954ZM71.9111 104.267C72.0258 103.948 71.9985 103.593 71.8292 103.208C71.66 102.818 71.4252 102.569 71.1249 102.457C70.8246 102.345 70.4861 102.386 70.1093 102.581L69.6234 102.83L70.6881 105.285L71.174 105.036C71.5508 104.847 71.7965 104.587 71.9111 104.267Z" fill="#7D7D7D"/>
<path d="M75.0685 98.8543L76.3024 100.919C76.4662 101.197 76.6464 101.363 76.843 101.422C77.0395 101.481 77.2416 101.434 77.449 101.286C77.6565 101.138 77.7766 100.96 77.8039 100.741C77.8312 100.523 77.7657 100.28 77.6019 100.002L76.368 97.9374L77.0122 97.4819L78.2462 99.5465C78.4427 99.8718 78.5519 100.185 78.5738 100.487C78.5956 100.789 78.541 101.067 78.41 101.315C78.2789 101.564 78.0878 101.777 77.8367 101.954C77.449 102.226 77.0614 102.321 76.6792 102.232C76.297 102.143 75.9585 101.854 75.6636 101.368L74.4297 99.3039L75.0685 98.8543Z" fill="#7D7D7D"/>
<path d="M82.0463 93.5843C82.4503 93.5606 82.827 93.6908 83.1874 93.9688L82.5759 94.5426C82.3739 94.4302 82.1719 94.3888 81.9589 94.4184C81.746 94.448 81.544 94.5485 81.3583 94.7201C81.2054 94.862 81.0962 95.0395 81.0416 95.2406C80.987 95.4418 80.9816 95.6488 81.0362 95.8736C81.0908 96.0925 81.2054 96.3114 81.3692 96.5184C81.533 96.7255 81.7132 96.8734 81.9043 96.9621C82.0954 97.0508 82.292 97.0804 82.4831 97.0508C82.6742 97.0153 82.8489 96.9266 83.0018 96.7846C83.1874 96.6071 83.313 96.406 83.3676 96.1812C83.4222 95.9564 83.4167 95.7316 83.3403 95.5009L83.9518 94.9271C84.1538 95.353 84.2139 95.7731 84.1374 96.2049C84.061 96.6367 83.8371 97.0212 83.4713 97.3584C83.1929 97.6187 82.8926 97.7844 82.5704 97.8494C82.2483 97.9145 81.9316 97.879 81.6149 97.7429C81.3037 97.6069 81.0198 97.3821 80.7741 97.0745C80.523 96.761 80.3592 96.4238 80.2773 96.0688C80.2008 95.7139 80.2117 95.3649 80.3155 95.0336C80.4192 94.6964 80.6103 94.4006 80.8942 94.1344C81.26 93.7854 81.6422 93.6079 82.0463 93.5843Z" fill="#7D7D7D"/>
<path d="M86.2555 88.313L86.7141 88.7567L86.0043 89.6203L88.434 91.9688L87.9208 92.5958L85.4911 90.2533L84.7868 91.111L84.3281 90.6674L86.2555 88.313Z" fill="#7D7D7D"/>
<path d="M92.2943 85.5919C92.3762 85.7812 92.4035 85.9941 92.3707 86.2308C92.3434 86.4674 92.2506 86.704 92.0922 86.9525C91.9339 87.195 91.7592 87.3843 91.5572 87.5203C91.3552 87.6564 91.1477 87.7274 90.9293 87.7333C90.7109 87.7392 90.5034 87.6801 90.3014 87.5499L90.7709 86.8164C90.9129 86.8992 91.0549 86.9229 91.2023 86.8874C91.3497 86.8578 91.4753 86.7632 91.5736 86.6034C91.6664 86.4615 91.6991 86.3254 91.6773 86.1953C91.6555 86.0651 91.5899 85.9586 91.4807 85.8758C91.3825 85.7989 91.2787 85.7693 91.175 85.7812C91.0712 85.793 90.9675 85.8344 90.8692 85.8995C90.7709 85.9646 90.6399 86.0592 90.4816 86.1893C90.2796 86.355 90.0994 86.4792 89.9465 86.5679C89.7936 86.6567 89.6244 86.704 89.4442 86.704C89.2585 86.7099 89.0675 86.633 88.8709 86.4851C88.5979 86.2781 88.4505 86.0119 88.4286 85.6806C88.4068 85.3493 88.5105 85.0062 88.7344 84.6572C88.9692 84.2905 89.2367 84.0657 89.537 83.971C89.8373 83.8764 90.1321 83.9178 90.4215 84.0893L89.9465 84.8288C89.8209 84.7637 89.6953 84.746 89.5643 84.7755C89.4387 84.8051 89.3241 84.8938 89.2312 85.0358C89.1493 85.16 89.1166 85.2902 89.1275 85.4144C89.1384 85.5386 89.2039 85.6451 89.3186 85.7339C89.4114 85.8048 89.5097 85.8344 89.608 85.8167C89.7063 85.8048 89.81 85.7634 89.9083 85.7043C90.0066 85.6392 90.1321 85.5505 90.2795 85.4262C90.4925 85.2606 90.6781 85.1305 90.8255 85.0417C90.9784 84.953 91.1477 84.9057 91.3333 84.8998C91.5244 84.8998 91.721 84.9707 91.923 85.1246C92.0923 85.2488 92.2124 85.4026 92.2943 85.5919Z" fill="#7D7D7D"/>
<path d="M64.6184 88.6037C63.914 88.0536 63.0241 87.9648 62.3307 87.953C59.8519 87.9057 57.4659 88.5919 55.1509 89.3077C56.9254 87.8406 58.4105 85.924 59.0984 84.0665C59.1748 83.8653 59.3659 83.333 59.1039 82.8538C58.9401 82.558 58.6398 82.3628 58.2521 82.3096C57.2147 82.1557 56.3466 82.8479 55.6314 83.54C53.4474 85.6459 51.5419 88.0772 49.7019 90.4553C49.5763 90.4198 49.4453 90.4316 49.3252 90.5026C47.9602 90.5263 46.6826 90.3725 45.6015 90.1595C46.0383 90.0412 46.4696 89.8697 46.89 89.6271C47.8892 89.0474 48.7955 88.166 49.7401 86.8409C50.3189 86.0305 51.1105 84.7823 51.3289 83.327C51.4218 82.7059 51.2525 82.2208 50.8758 81.996C50.5263 81.7831 50.1551 81.8955 50.0022 81.9428C48.0912 82.5166 46.628 84.0842 45.5687 85.3797C45.3067 85.7051 45.0446 86.0305 44.788 86.3617C43.9635 87.4088 43.1773 88.3967 42.2327 89.1953C39.9341 88.3671 37.8047 87.2609 35.9429 86.2198C35.6917 86.0778 35.3805 86.1843 35.2495 86.4564C35.1185 86.7285 35.2167 87.0657 35.4679 87.2076C37.4225 88.302 39.6611 89.4615 42.0962 90.3192C42.5112 90.4671 42.9316 90.6032 43.352 90.7274C43.4339 91.0409 43.5158 91.3545 43.5977 91.668C44.3621 94.5844 45.1538 97.6013 46.6607 100.234C46.7481 100.388 47.0101 100.843 47.4906 100.843C47.4961 100.843 47.507 100.843 47.5125 100.843C47.7199 100.837 48.1076 100.731 48.3478 100.098C48.8774 98.7134 48.8338 97.0334 48.2277 95.3711C47.7036 93.9277 46.8245 92.6618 45.9564 91.5142C45.9072 91.4491 45.8581 91.39 45.809 91.3249C46.9064 91.5201 47.982 91.6207 49.0303 91.6207C49.1395 91.6207 49.2487 91.6088 49.3579 91.6029C50.4008 93.0463 51.7166 94.401 53.4856 95.8444C54.8724 96.9802 56.5486 98.1574 58.4705 98.2993C58.4814 98.2993 58.4924 98.2993 58.5033 98.2993C58.678 98.2993 58.8418 98.2047 58.9346 98.045C59.0383 97.8734 59.0438 97.6546 58.951 97.4771C57.4659 94.5489 54.9434 92.3424 52.0224 91.3308C52.9451 91.1474 53.8296 90.8753 54.6759 90.5204C55.6095 90.7925 57.7061 91.319 59.8901 91.319C60.4142 91.319 60.9493 91.2894 61.468 91.2125C63.1442 90.9759 64.2198 90.3547 64.7549 89.3136C64.8914 89.077 64.8313 88.7635 64.6184 88.6037ZM45.5687 87.0893C45.8253 86.764 46.0765 86.4386 46.3386 86.1192C47.305 84.9361 48.6263 83.5104 50.2752 83.0135C50.297 83.0076 50.3134 83.0017 50.3298 82.9958C50.3298 83.0372 50.3298 83.0845 50.3189 83.1496C50.1824 84.0783 49.7565 85.0071 48.932 86.1547C48.0803 87.3496 47.2777 88.1364 46.415 88.6392C45.5633 89.1361 44.646 89.3136 43.8325 89.1598C44.4549 88.5032 45.0173 87.7874 45.5687 87.0893ZM47.2831 95.7793C47.7691 97.1103 47.8291 98.4295 47.4688 99.518C46.1202 97.0985 45.3667 94.2886 44.646 91.5497C44.8262 91.7567 45.0009 91.9815 45.1756 92.2122C46.1147 93.4663 46.8354 94.5548 47.2831 95.7793ZM56.3138 84.3682C56.8598 83.8417 57.4932 83.3211 58.1156 83.4099C58.1593 83.4158 58.1921 83.4276 58.2084 83.4217C58.203 83.4572 58.1921 83.5282 58.1429 83.6465C57.1492 86.3262 54.1681 89.2544 51.3508 90.3252C51.2743 90.337 51.1924 90.3488 51.116 90.3547C52.7431 88.2784 54.4302 86.1902 56.3138 84.3682ZM57.4713 96.9802C56.2374 96.5957 55.0963 95.7675 54.1135 94.9571C52.9669 94.0165 52.0169 93.1232 51.2143 92.2181C53.7095 92.9458 55.9863 94.679 57.4713 96.9802ZM61.3479 90.1181C60.1194 90.2897 58.5633 90.2128 56.9472 89.9229C58.7053 89.4201 60.4907 89.0297 62.3088 89.0651C62.7074 89.0711 63.1442 89.1065 63.5319 89.2426C63.0896 89.6863 62.3689 89.9702 61.3479 90.1181Z" fill="#7D7D7D"/>
<path d="M64.1097 23.8751C61.822 22.5973 59.1467 21.2249 56.2201 20.3494C56.1382 20.0359 56.0563 19.7283 55.9744 19.4148C55.2101 16.4984 54.4184 13.4814 52.9114 10.8431C52.8241 10.6893 52.5565 10.2101 52.0542 10.2338C51.8467 10.2397 51.4591 10.3462 51.2189 10.9791C50.6892 12.3634 50.7329 14.0434 51.339 15.7057C51.8631 17.1491 52.7422 18.415 53.6103 19.5627C53.6594 19.6277 53.714 19.6928 53.7632 19.7579C52.5511 19.5449 51.3608 19.4443 50.2088 19.468C49.1659 18.0246 47.8501 16.6699 46.0811 15.2265C44.6942 14.0907 43.0181 12.9135 41.0962 12.7716C40.9105 12.7538 40.7304 12.8544 40.6266 13.0259C40.5229 13.1975 40.5174 13.4164 40.6102 13.5938C42.0953 16.528 44.6233 18.7345 47.5498 19.746C46.6216 19.9294 45.7262 20.1956 44.8799 20.5506C43.7169 20.2134 40.7631 19.4798 38.0987 19.8584C36.4225 20.0951 35.3469 20.7162 34.8118 21.7573C34.6862 22.0058 34.7517 22.3134 34.9592 22.479C35.6636 23.0292 36.5535 23.1179 37.2469 23.1298C37.3343 23.1298 37.4162 23.1298 37.5035 23.1298C39.8895 23.1298 42.1936 22.4613 44.4267 21.7751C42.6522 23.2422 41.1671 25.1588 40.4792 27.0163C40.4028 27.2174 40.2117 27.7498 40.4737 28.229C40.6375 28.5248 40.9378 28.72 41.3255 28.7732C41.4238 28.7851 41.5166 28.7969 41.6149 28.7969C42.5212 28.7969 43.2965 28.1698 43.9517 27.5428C46.1357 25.4368 48.0412 22.9996 49.8812 20.6215C49.9249 20.6334 49.9685 20.657 50.0122 20.657C50.0996 20.657 50.1815 20.6275 50.2579 20.5801C51.6229 20.5565 52.895 20.7103 53.9761 20.9232C53.5393 21.0416 53.108 21.2131 52.6876 21.4556C51.6884 22.0354 50.7821 22.9168 49.8375 24.2419C49.2587 25.0523 48.4671 26.3005 48.2487 27.7558C48.1558 28.3769 48.3251 28.862 48.7073 29.0927C48.8602 29.1873 49.024 29.2169 49.1659 29.2169C49.3461 29.2169 49.499 29.1696 49.5863 29.1459C51.4918 28.5721 52.9551 27.0045 54.0198 25.709C54.2819 25.3836 54.5439 25.0582 54.8006 24.727C55.625 23.6799 56.4112 22.692 57.3558 21.8934C59.6544 22.7216 61.7838 23.8278 63.6456 24.8689C63.7221 24.9104 63.804 24.9281 63.8804 24.9281C64.066 24.9281 64.2462 24.8157 64.339 24.6264C64.4646 24.3484 64.3609 24.0171 64.1097 23.8751ZM42.1063 14.1085C43.3402 14.493 44.4813 15.3212 45.4641 16.1316C46.6107 17.0722 47.5607 17.9654 48.3633 18.8705C45.8681 18.137 43.5913 16.4037 42.1063 14.1085ZM37.2688 22.0235C36.8702 22.0176 36.4334 21.9821 36.0457 21.8461C36.4935 21.4024 37.2087 21.1125 38.2297 20.9706C39.4582 20.799 41.0143 20.8759 42.6304 21.1658C40.8669 21.6686 39.0869 22.0709 37.2688 22.0235ZM43.2637 26.7146C42.7178 27.2411 42.0844 27.7617 41.462 27.6729C41.4183 27.667 41.3855 27.6552 41.3692 27.6611C41.3746 27.6256 41.3855 27.5546 41.4347 27.4363C42.4284 24.7565 45.4095 21.8283 48.2268 20.7576C48.3033 20.7458 48.3852 20.7339 48.4616 20.728C46.8345 22.8103 45.1474 24.8985 43.2637 26.7146ZM52.2999 15.3034C51.814 13.9724 51.7539 12.6532 52.1143 11.5648C53.4683 13.9842 54.2218 16.7942 54.9371 19.5331C54.7569 19.326 54.5822 19.1012 54.4074 18.8705C53.4629 17.6164 52.7476 16.5339 52.2999 15.3034ZM54.0143 23.9993C53.7577 24.3247 53.5066 24.6501 53.2445 24.9636C52.2781 26.1467 50.9513 27.5724 49.3079 28.0693C49.286 28.0752 49.2697 28.0811 49.2533 28.087C49.2533 28.0456 49.2533 27.9983 49.2642 27.9332C49.4007 27.0045 49.8266 26.0757 50.651 24.9281C51.5028 23.7331 52.3054 22.9464 53.168 22.4435C53.8287 22.0649 54.5166 21.8697 55.1718 21.8697C55.3684 21.8697 55.5595 21.8875 55.7451 21.923C55.1281 22.5796 54.5603 23.2954 54.0143 23.9993Z" fill="#7D7D7D"/>
</svg>
