<svg width="120" height="122" viewBox="0 0 120 122" fill="none" xmlns="http://www.w3.org/2000/svg">
<path d="M2.8228 41.8669L4.20416 42.281L3.99668 43.0855L0.267578 41.9675L0.644311 40.4945C0.764428 40.0213 0.960993 39.69 1.23399 39.5126C1.50698 39.3351 1.82365 39.2996 2.18947 39.4061C2.54436 39.5126 2.79552 39.7255 2.94293 40.0331C3.09035 40.3467 3.1067 40.7312 2.98659 41.1926L2.8228 41.8669ZM1.98199 40.2283C1.79635 40.1692 1.63799 40.1869 1.51241 40.2638C1.38684 40.3467 1.28858 40.5123 1.22852 40.7607L1.08109 41.3405L2.22766 41.6836L2.37508 41.1038C2.48974 40.6365 2.36418 40.3407 1.98199 40.2283Z" fill="#7D7D7D"/>
<path d="M2.66907 34.1415L4.7493 35.1235C5.02776 35.2537 5.26253 35.2832 5.45362 35.2182C5.64472 35.1531 5.79213 34.9934 5.89041 34.7449C5.98869 34.4965 5.99414 34.2776 5.91224 34.0765C5.82488 33.8753 5.6447 33.7156 5.36625 33.5796L3.28601 32.5976L3.59177 31.8345L5.67203 32.8164C5.99963 32.9703 6.25076 33.1655 6.42547 33.408C6.60019 33.6505 6.69302 33.9108 6.7094 34.1948C6.72578 34.4787 6.67666 34.7745 6.55654 35.0703C6.3709 35.5317 6.0979 35.8393 5.73209 35.9931C5.36627 36.1469 4.9404 36.1114 4.44355 35.8807L2.36328 34.8987L2.66907 34.1415Z" fill="#7D7D7D"/>
<path d="M9.93753 28.0776L8.17941 28.054L7.99923 28.3675L9.28233 29.2253L8.8783 29.9351L5.58594 27.7405L6.36124 26.3799C6.59602 25.9658 6.86902 25.7114 7.18023 25.6168C7.49145 25.5221 7.79721 25.5813 8.10297 25.7824C8.35412 25.9481 8.51794 26.161 8.59984 26.4272C8.68174 26.6875 8.67082 26.9833 8.56708 27.3027L10.3907 27.2909L9.93753 28.0776ZM7.55151 28.0658L7.88459 27.4802C8.11391 27.072 8.06475 26.7585 7.73169 26.5337C7.57336 26.4272 7.42047 26.3976 7.27851 26.4331C7.13109 26.4745 7.00006 26.5988 6.87994 26.8058L6.54689 27.3914L7.55151 28.0658Z" fill="#7D7D7D"/>
<path d="M10.4453 21.2804L11.2206 21.9666L12.0888 20.8189L12.5474 21.2271L11.6793 22.3747L12.4873 23.0905L13.4592 21.8009L13.9396 22.2269L12.4819 24.1613L9.48438 21.5111L10.9422 19.5767L11.4172 19.9967L10.4453 21.2804Z" fill="#7D7D7D"/>
<path d="M22.1506 14.0642L21.5391 14.5789L18.5579 13.4786L20.1686 15.7324L19.5571 16.2471L17.1875 12.9343L17.799 12.4197L20.791 13.5377L19.164 11.2661L19.7755 10.7515L22.1506 14.0642Z" fill="#7D7D7D"/>
<path d="M26.9502 9.85186L25.5961 10.6741L25.7381 11.5555L25.0228 11.9874L24.4004 7.61577L25.1702 7.14844L28.2769 10.0175L27.5617 10.4493L26.9502 9.85186ZM26.4806 9.40819L25.1866 8.16592L25.4869 10.0116L26.4806 9.40819Z" fill="#7D7D7D"/>
<path d="M32.4864 3.52197L32.7103 4.14311L31.7166 4.56312L32.8959 7.85218L32.1752 8.15388L30.9959 4.86481L30.0022 5.2789L29.7783 4.65776L32.4864 3.52197Z" fill="#7D7D7D"/>
<path d="M37.0291 2.04361L37.5532 4.43356C37.6242 4.75301 37.7389 4.9778 37.9027 5.10203C38.0665 5.22626 38.2739 5.26176 38.5196 5.19669C38.7599 5.13753 38.9291 5.00738 39.0219 4.81216C39.1148 4.61694 39.1311 4.36257 39.0602 4.04312L38.5415 1.65317L39.2895 1.46387L39.8136 3.85381C39.8955 4.23242 39.901 4.56962 39.83 4.85949C39.7591 5.15528 39.6171 5.3919 39.4151 5.57529C39.2131 5.75868 38.9673 5.89474 38.678 5.96573C38.2248 6.07813 37.8317 6.02489 37.4986 5.806C37.1656 5.58121 36.9363 5.18485 36.8107 4.62286L36.292 2.23291L37.0291 2.04361Z" fill="#7D7D7D"/>
<path d="M45.8685 4.71739L44.8311 3.17935L44.4925 3.21484L44.629 4.84162L43.8592 4.91852L43.5098 0.742145L44.9785 0.600169C45.4262 0.55876 45.7756 0.641578 46.0323 0.854537C46.2889 1.0675 46.4308 1.36919 46.4636 1.7537C46.4909 2.06723 46.4308 2.33934 46.2889 2.57004C46.1469 2.80075 45.9231 2.96639 45.6228 3.06104L46.7256 4.63457L45.8685 4.71739ZM44.4434 2.64103L45.0768 2.58188C45.519 2.54047 45.721 2.30385 45.6828 1.88384C45.6664 1.68272 45.6009 1.52891 45.4808 1.42835C45.3661 1.32778 45.1914 1.28637 44.9676 1.31004L44.3342 1.37511L44.4434 2.64103Z" fill="#7D7D7D"/>
<path d="M51.1808 1.0852L51.1371 2.17368L52.5075 2.23284L52.4857 2.87173L51.1153 2.81257L51.0716 3.94246L52.6058 4.01345L52.5785 4.68192L50.2744 4.58135L50.4328 0.393066L52.7368 0.493631L52.7095 1.15619L51.1808 1.0852Z" fill="#7D7D7D"/>
<path d="M96.0238 37.963C95.8109 37.963 95.6089 37.821 95.5379 37.5844C90.422 21.4349 78.3392 8.93527 63.2207 4.15548C62.9477 4.06675 62.7893 3.75914 62.8712 3.46336C62.9531 3.16758 63.2371 3.00195 63.5101 3.08476C78.9507 7.96512 91.2846 20.7309 96.5098 37.2236C96.6026 37.5134 96.4606 37.8329 96.1931 37.9334C96.1385 37.9512 96.0784 37.963 96.0238 37.963Z" fill="#7D7D7D"/>
<path d="M23.3301 39.5063C23.2319 39.6838 23.0844 39.8317 22.8933 39.9382C22.7022 40.0447 22.462 40.1038 22.189 40.1038C21.916 40.1038 21.6703 40.0506 21.4574 39.95C21.239 39.8494 21.0697 39.7016 20.9387 39.5123C20.8076 39.323 20.7367 39.0982 20.7148 38.8497H21.5393C21.5557 39.0213 21.6212 39.1632 21.7304 39.2756C21.8396 39.388 21.9815 39.4472 22.1617 39.4472C22.32 39.4472 22.4456 39.3999 22.533 39.3052C22.6203 39.2106 22.664 39.0923 22.664 38.9444C22.664 38.8142 22.6313 38.7077 22.5603 38.619C22.4893 38.5362 22.4019 38.4652 22.2982 38.412C22.1945 38.3587 22.0471 38.2996 21.8614 38.2345C21.6212 38.1458 21.4246 38.063 21.2717 37.9742C21.1189 37.8914 20.9878 37.7672 20.8786 37.6015C20.7694 37.4418 20.7148 37.2289 20.7148 36.9686C20.7148 36.6077 20.8349 36.3238 21.0752 36.1167C21.3154 35.9097 21.6321 35.8032 22.0252 35.8032C22.4347 35.8032 22.7623 35.9097 23.0026 36.1227C23.2482 36.3356 23.3848 36.6196 23.4175 36.9804H22.5821C22.5603 36.8325 22.5002 36.7083 22.4074 36.6077C22.3146 36.5131 22.1835 36.4598 22.0197 36.4598C21.8778 36.4598 21.7632 36.5013 21.6758 36.5841C21.5884 36.6669 21.5447 36.7852 21.5447 36.939C21.5447 37.0632 21.5775 37.1638 21.6485 37.2466C21.714 37.3294 21.8014 37.3945 21.9051 37.4477C22.0088 37.501 22.1508 37.5542 22.331 37.6193C22.5821 37.7139 22.7787 37.8027 22.937 37.8855C23.0899 37.9683 23.2264 38.0925 23.3356 38.2582C23.4448 38.4238 23.4994 38.6427 23.4994 38.9089C23.483 39.1277 23.4284 39.323 23.3301 39.5063Z" fill="#7D7D7D"/>
<path d="M30.7338 35.8687V36.5312H29.6636V40.0568H28.8938V36.5312H27.8291V35.8687H30.7338Z" fill="#7D7D7D"/>
<path d="M38.3331 35.8687L37.0228 38.5957V40.0628H36.2475V38.5957L34.9316 35.8687H35.8216L36.646 37.7025L37.4705 35.8687H38.3331Z" fill="#7D7D7D"/>
<path d="M43.5804 39.418H44.8799V40.0569H42.8105V35.8628H43.5858V39.418H43.5804Z" fill="#7D7D7D"/>
<path d="M50.1663 36.5312V37.6197H51.5368V38.2586H50.1663V39.3885H51.7006V40.0569H49.3965V35.8628H51.7006V36.5253H50.1663V36.5312Z" fill="#7D7D7D"/>
<path d="M30.9739 59.7737C30.6518 59.5666 30.3242 59.2472 29.9911 58.8153L23.5703 51.4327C23.4938 51.3144 23.4337 51.2552 23.3901 51.2552C23.3136 51.2552 23.2754 51.3676 23.2754 51.5924C23.2754 52.462 23.2918 53.444 23.3246 54.5443C23.3355 54.9761 23.3464 55.4612 23.3573 56.0114C23.3682 56.5615 23.3737 57.1294 23.3737 57.7269C23.3737 58.1232 23.4884 58.4249 23.7122 58.6379C23.9361 58.8508 24.2801 59.0224 24.7442 59.1407C25.039 59.2235 25.1919 59.3477 25.1919 59.5193C25.1919 59.6021 25.1482 59.6672 25.0663 59.7145C24.9844 59.7618 24.8916 59.7855 24.7933 59.7855C24.4384 59.7855 24.078 59.7737 23.7068 59.75L22.8987 59.7323C22.582 59.7323 22.2653 59.7382 21.9596 59.7618C21.6538 59.7796 21.4518 59.7973 21.3645 59.8092C21.288 59.8092 21.2061 59.7796 21.1188 59.7263C21.0314 59.6731 20.9877 59.608 20.9877 59.537C20.9877 59.4424 21.0205 59.3655 21.086 59.3123C21.1515 59.259 21.2498 59.1999 21.3808 59.1407C21.8777 58.9277 22.1507 58.4427 22.2053 57.6914C22.4346 55.0471 22.5493 52.7046 22.5493 50.6637C22.5493 50.1017 22.4237 49.6817 22.178 49.3918C21.9323 49.1079 21.5665 48.8594 21.0805 48.6583C20.7857 48.5755 20.6328 48.4454 20.6328 48.262C20.6328 48.0727 20.7748 47.978 21.0641 47.978L22.3199 48.0135C23.6412 48.049 24.3401 48.0668 24.4165 48.0668C24.5585 48.0668 24.6677 48.1259 24.7442 48.2442L30.832 55.5559C30.9412 55.6978 31.0176 55.7688 31.0613 55.7688C31.1487 55.7688 31.1923 55.686 31.1923 55.5204V53.6451C31.1923 51.7877 31.1759 50.5217 31.1432 49.8533C31.1323 49.522 31.0285 49.2735 30.832 49.1197C30.6354 48.9659 30.3078 48.824 29.8601 48.6879C29.6089 48.6169 29.4779 48.4927 29.4779 48.3152C29.4779 48.2442 29.5107 48.1792 29.5871 48.1259C29.6581 48.0727 29.74 48.0431 29.8273 48.0431L30.8975 48.0608C31.0394 48.0727 31.2687 48.0786 31.5745 48.0786L32.3334 48.0608C32.6829 48.0372 33.0159 48.0254 33.3217 48.0254C33.4418 48.0254 33.5401 48.049 33.6111 48.0963C33.682 48.1437 33.7203 48.2087 33.7203 48.2916C33.7203 48.4808 33.5838 48.6051 33.3053 48.6642C32.9067 48.7471 32.6283 48.8713 32.4645 49.031C32.3007 49.1907 32.2188 49.4451 32.2188 49.7882C32.2188 50.504 32.1806 51.8646 32.1041 53.864C32.0495 55.0294 32.0222 55.9759 32.0222 56.6917C32.0222 56.9638 32.0386 57.301 32.0823 57.7032C32.1205 58.1055 32.1478 58.3599 32.1587 58.4782C32.2024 58.9337 32.2242 59.1703 32.2242 59.1939C32.2242 59.7796 32.0659 60.0695 31.7438 60.0695C31.5581 60.0872 31.3015 59.9807 30.9739 59.7737Z" fill="#7D7D7D"/>
<path d="M36.8594 59.5306C36.8594 59.4241 36.8921 59.3413 36.9522 59.2881C37.0122 59.2348 37.1051 59.1816 37.2252 59.1343C37.5528 59.0396 37.8367 58.8917 38.0769 58.6847C38.3117 58.4836 38.4864 58.2469 38.5956 57.9866C39.6385 55.3542 40.583 52.7632 41.4184 50.2254C41.5494 49.8291 41.6532 49.4801 41.7296 49.1606C41.806 48.8471 41.8552 48.6874 41.877 48.6874C42.352 48.5691 42.7615 48.4448 43.1164 48.3147C43.302 48.2437 43.4822 48.149 43.646 48.0307C43.8098 47.9124 43.9354 47.8 44.0282 47.6936C44.1156 47.6462 44.1702 47.6226 44.192 47.6226C44.2466 47.6226 44.2903 47.664 44.3231 47.7468C44.3995 47.9243 44.4596 48.0899 44.5032 48.2496C45.1857 50.6573 45.9392 53.2187 46.7636 55.9399L47.3751 57.9985C47.528 58.5486 47.9703 58.9272 48.6965 59.1402C48.8166 59.1875 48.9094 59.2348 48.9694 59.2822C49.0295 59.3295 49.0623 59.4064 49.0623 59.5129C49.0623 59.5957 49.0295 59.6608 48.9694 59.7081C48.9094 59.7554 48.8329 59.7791 48.7456 59.7791C48.5272 59.7791 48.0849 59.7672 47.4243 59.7436C46.7418 59.7199 46.2668 59.7081 46.0047 59.7081C45.7863 59.7081 45.3659 59.7199 44.7489 59.7436C44.2411 59.7791 43.7825 59.7968 43.3621 59.7968C43.2638 59.7968 43.1819 59.7732 43.1164 59.7258C43.0509 59.6785 43.0181 59.6134 43.0181 59.5306C43.0181 59.3295 43.1382 59.1993 43.3839 59.1343C43.7716 59.0515 44.05 58.945 44.2357 58.8207C44.4159 58.6965 44.5087 58.5191 44.5087 58.2943C44.5087 58.1759 44.4978 58.0813 44.4759 58.0103L43.9627 55.9339C43.9408 55.8275 43.9081 55.7506 43.8699 55.7032C43.8317 55.6559 43.7716 55.6323 43.6952 55.6323H40.8232C40.7359 55.6323 40.6758 55.6559 40.6431 55.7032C40.6103 55.7506 40.5776 55.8275 40.5448 55.9339L40.3155 56.703C40.2827 56.8331 40.2336 57.0047 40.1681 57.2235C40.1026 57.4365 40.0479 57.6317 40.0043 57.7974C39.9606 57.9512 39.9387 58.105 39.9387 58.2647C39.9387 58.4895 40.0206 58.6669 40.179 58.7912C40.3373 58.9154 40.6212 59.0337 41.0307 59.1402C41.271 59.1993 41.3966 59.3295 41.3966 59.5365C41.3966 59.7022 41.2819 59.785 41.0471 59.785C40.796 59.785 40.4683 59.7731 40.0752 59.7495L39.1853 59.7317C38.8795 59.7317 38.5738 59.7495 38.2789 59.785C38.1807 59.7968 38.0332 59.8086 37.8312 59.8205C37.6347 59.8323 37.4545 59.8382 37.3016 59.8382C37.0013 59.8323 36.8594 59.7317 36.8594 59.5306ZM43.3457 54.597C43.5095 54.597 43.5914 54.5556 43.5914 54.4728C43.5914 54.461 43.5805 54.3959 43.5587 54.2776L42.5049 50.326C42.4721 50.2077 42.4394 50.1485 42.4066 50.1485C42.3848 50.1485 42.352 50.2077 42.3084 50.326L41.0362 54.2776C41.0143 54.3249 41.0034 54.3722 41.0034 54.4196C41.0034 54.4787 41.0307 54.526 41.0853 54.5556C41.1399 54.5852 41.2054 54.6029 41.2819 54.6029H43.3457V54.597Z" fill="#7D7D7D"/>
<path d="M95.1553 59.5306C95.1553 59.4241 95.1881 59.3413 95.2481 59.2881C95.3082 59.2348 95.401 59.1816 95.5211 59.1343C95.8487 59.0396 96.1326 58.8917 96.3729 58.6847C96.6076 58.4836 96.7823 58.2469 96.8915 57.9866C97.9344 55.3542 98.879 52.7632 99.7143 50.2254C99.8454 49.8291 99.9491 49.4801 100.026 49.1606C100.102 48.8471 100.151 48.6874 100.173 48.6874C100.648 48.5691 101.057 48.4448 101.412 48.3147C101.598 48.2437 101.778 48.149 101.942 48.0307C102.106 47.9124 102.231 47.8 102.324 47.6936C102.412 47.6462 102.466 47.6226 102.488 47.6226C102.543 47.6226 102.586 47.664 102.619 47.7468C102.695 47.9243 102.755 48.0899 102.799 48.2496C103.482 50.6573 104.235 53.2187 105.06 55.9399L105.671 57.9985C105.824 58.5486 106.266 58.9272 106.992 59.1402C107.112 59.1875 107.205 59.2348 107.265 59.2822C107.325 59.3295 107.358 59.4064 107.358 59.5129C107.358 59.5957 107.325 59.6608 107.265 59.7081C107.205 59.7554 107.129 59.7791 107.042 59.7791C106.823 59.7791 106.381 59.7672 105.72 59.7436C105.038 59.7199 104.563 59.7081 104.301 59.7081C104.082 59.7081 103.662 59.7199 103.045 59.7436C102.537 59.7791 102.078 59.7968 101.658 59.7968C101.56 59.7968 101.478 59.7732 101.412 59.7258C101.347 59.6785 101.314 59.6134 101.314 59.5306C101.314 59.3295 101.434 59.1993 101.68 59.1343C102.068 59.0515 102.346 58.945 102.532 58.8207C102.712 58.6965 102.805 58.5191 102.805 58.2943C102.805 58.1759 102.794 58.0813 102.772 58.0103L102.259 55.9339C102.237 55.8275 102.204 55.7506 102.166 55.7032C102.128 55.6559 102.068 55.6323 101.991 55.6323H99.1192C99.0318 55.6323 98.9718 55.6559 98.939 55.7032C98.9062 55.7506 98.8735 55.8275 98.8407 55.9339L98.6114 56.703C98.5787 56.8331 98.5295 57.0047 98.464 57.2235C98.3985 57.4365 98.3439 57.6317 98.3002 57.7974C98.2565 57.9512 98.2347 58.105 98.2347 58.2647C98.2347 58.4895 98.3166 58.6669 98.4749 58.7912C98.6333 58.9154 98.9172 59.0337 99.3267 59.1402C99.5669 59.1993 99.6925 59.3295 99.6925 59.5365C99.6925 59.7022 99.5778 59.785 99.3431 59.785C99.0919 59.785 98.7643 59.7731 98.3712 59.7495L97.4812 59.7317C97.1754 59.7317 96.8697 59.7495 96.5749 59.785C96.4766 59.7968 96.3292 59.8086 96.1272 59.8205C95.9306 59.8323 95.7504 59.8382 95.5975 59.8382C95.2972 59.8323 95.1553 59.7317 95.1553 59.5306ZM101.636 54.597C101.8 54.597 101.882 54.5556 101.882 54.4728C101.882 54.461 101.871 54.3959 101.849 54.2776L100.795 50.326C100.763 50.2077 100.73 50.1485 100.697 50.1485C100.675 50.1485 100.643 50.2077 100.599 50.326L99.3267 54.2776C99.3048 54.3249 99.2939 54.3722 99.2939 54.4196C99.2939 54.4787 99.3212 54.526 99.3758 54.5556C99.4304 54.5852 99.4959 54.6029 99.5724 54.6029H101.636V54.597Z" fill="#7D7D7D"/>
<path d="M53.7907 59.7197C53.7143 59.6665 53.6761 59.6014 53.6761 59.5304C53.6761 59.3293 53.7962 59.1992 54.0419 59.1341C54.4841 59.0276 54.7844 58.8975 54.9592 58.7496C55.1284 58.6017 55.2158 58.3532 55.2158 58.0101V50.5388C55.2158 49.9177 55.1939 49.5213 55.1557 49.3498C55.1175 49.1782 55.052 49.0599 54.9646 49.0007C54.8336 48.9179 54.6097 48.8765 54.2876 48.8765H54.0091C53.6597 48.8765 53.3157 48.9771 52.9881 49.1723C52.6605 49.3675 52.3876 49.616 52.1801 49.9117C51.9944 50.1839 51.8252 50.4146 51.6668 50.592C51.514 50.7695 51.3665 50.8582 51.2191 50.8582C51.0444 50.8582 50.957 50.7518 50.957 50.5388C50.957 50.385 50.9953 50.2253 51.0717 50.0537C51.301 49.5509 51.4703 49.1368 51.5686 48.8114C51.6668 48.4861 51.7324 48.1134 51.7651 47.6934C51.7979 47.3858 51.9398 47.2261 52.1964 47.2261C52.262 47.2261 52.3603 47.3207 52.4913 47.51C52.5787 47.652 52.666 47.7585 52.7534 47.8295C52.8516 47.9123 53.0318 47.9833 53.2884 48.0365C53.545 48.0898 53.7634 48.1193 53.9382 48.1193L60.2443 48.1016C60.4737 48.1016 60.6866 48.072 60.8722 48.0188C61.0579 47.9655 61.1944 47.9064 61.2872 47.8472C61.3527 47.8117 61.4783 47.7052 61.6694 47.5278C61.8441 47.3385 61.9915 47.2438 62.1171 47.2438C62.2481 47.2438 62.3137 47.3385 62.3137 47.5278C62.3137 47.5869 62.3027 47.6993 62.2809 47.865C62.2591 47.9478 62.2099 48.1371 62.1335 48.4388C62.057 48.7345 61.997 49.0067 61.9588 49.2433C61.9205 49.4799 61.8987 49.6988 61.8987 49.8881V50.2608C61.8987 50.4855 61.8769 50.6571 61.8332 50.7636C61.7895 50.8701 61.7185 50.9233 61.6202 50.9233C61.511 50.9233 61.4182 50.8701 61.3472 50.7636C61.2763 50.6571 61.1998 50.4796 61.1234 50.2253C60.9814 49.7343 60.7849 49.3853 60.5392 49.1782C60.2935 48.9712 59.9386 48.8647 59.4745 48.8647H58.7975C58.6009 48.8647 58.448 48.912 58.3443 49.0067C58.2406 49.1013 58.1587 49.2847 58.1041 49.5627C58.0495 49.8348 58.0221 50.2312 58.0221 50.7458V57.9865C58.0221 58.3059 58.104 58.5425 58.2624 58.6904C58.4207 58.8383 58.7265 58.9862 59.1797 59.1282C59.2998 59.1755 59.3926 59.2228 59.4527 59.2702C59.5127 59.3175 59.5455 59.3944 59.5455 59.5009C59.5455 59.5837 59.5127 59.6487 59.4527 59.6961C59.3926 59.7434 59.3162 59.7671 59.2288 59.7671C58.9995 59.7671 58.5408 59.7552 57.8584 59.7316L56.5862 59.6961C56.3897 59.6961 55.9801 59.7079 55.3632 59.7316C54.8882 59.7671 54.4459 59.7848 54.0255 59.7848C53.9436 59.7966 53.8672 59.773 53.7907 59.7197Z" fill="#7D7D7D"/>
<path d="M68.1723 58.6965C67.3642 57.8328 66.9602 56.6556 66.9602 55.1649V50.1603C66.9602 49.829 66.8837 49.5214 66.7363 49.2375C66.5889 48.9594 66.376 48.7761 66.103 48.6932C65.8082 48.6104 65.6553 48.4803 65.6553 48.3028C65.6553 48.22 65.6989 48.1549 65.7808 48.1076C65.8627 48.0603 65.9665 48.0366 66.0866 48.0366C66.4688 48.0366 66.8674 48.0544 67.2769 48.0899C67.7846 48.1135 68.1395 48.1254 68.347 48.1254C68.5545 48.1254 68.9476 48.1135 69.5209 48.0899C70.116 48.0662 70.531 48.0544 70.7767 48.0544C71.0606 48.0544 71.208 48.1431 71.208 48.3206C71.208 48.4152 71.1643 48.4921 71.077 48.5513C70.9896 48.6104 70.875 48.6696 70.7385 48.7228C70.602 48.7761 70.4873 48.8293 70.3999 48.8766C69.9905 49.0896 69.7884 49.5569 69.7884 50.2727V54.8868C69.7884 56.0049 70.0232 56.8567 70.4982 57.4365C70.9732 58.0162 71.5684 58.306 72.2945 58.306C73.2718 58.306 74.0035 58.0043 74.4785 57.395C74.959 56.7857 75.1992 55.8392 75.1992 54.5497C75.1992 54.0468 75.2047 53.6623 75.2156 53.3902L75.232 52.0474C75.232 51.6688 75.2265 51.3907 75.2156 51.2251C75.2047 50.6513 75.1665 50.2135 75.1064 49.9119C75.0463 49.6102 74.9535 49.3735 74.8334 49.2138C74.7133 49.0541 74.5331 48.9062 74.2874 48.7761C74.211 48.7287 74.1127 48.6814 73.9925 48.64C73.8724 48.5986 73.7796 48.5513 73.7141 48.5039C73.6486 48.4566 73.6158 48.3975 73.6158 48.3265C73.6158 48.149 73.7796 48.0603 74.1127 48.0603C74.4512 48.0603 74.8006 48.0721 75.1501 48.0958L75.778 48.1135C75.9745 48.1135 76.2202 48.1017 76.5041 48.078C76.788 48.0544 77.0556 48.0425 77.2958 48.0425C77.5688 48.0425 77.7108 48.1313 77.7108 48.3087C77.7108 48.4744 77.5688 48.6045 77.2794 48.6992C76.9027 48.8175 76.6406 49.0009 76.4877 49.2552C76.3349 49.5037 76.2475 49.8645 76.2257 50.3259C76.1711 51.7693 76.1438 53.331 76.1438 55.0111C76.1438 55.9753 75.9472 56.839 75.5486 57.5962C75.1501 58.3534 74.615 58.9449 73.938 59.3649C73.2609 59.7849 72.5129 59.9979 71.683 59.9979C70.1488 59.9979 68.9804 59.566 68.1723 58.6965Z" fill="#7D7D7D"/>
<path d="M89.8159 59.6552C89.3299 59.3476 88.8931 58.9039 88.4945 58.3301C88.096 57.7444 87.7465 57.1884 87.4408 56.6501C87.135 56.1117 86.8347 55.5084 86.5508 54.8281C86.4416 54.5678 86.3106 54.3903 86.1523 54.2898C86.0321 54.2069 85.9011 54.1655 85.7537 54.1655C85.6445 54.1655 85.5899 54.2838 85.5899 54.5205V57.987C85.5899 58.3419 85.6827 58.5963 85.8629 58.7383C86.0431 58.8802 86.3816 59.0104 86.8784 59.1287C86.9876 59.1523 87.0695 59.1937 87.1187 59.2529C87.1678 59.3121 87.1951 59.3949 87.1951 59.5014C87.1951 59.6788 87.1077 59.7676 86.933 59.7676L85.4971 59.7321L84.1594 59.6966C83.9628 59.6966 83.5642 59.7084 82.9691 59.7321C82.5268 59.7676 82.101 59.7853 81.6806 59.7853C81.615 59.7853 81.5495 59.7557 81.484 59.7025C81.4185 59.6492 81.3857 59.5842 81.3857 59.5132C81.3857 59.3121 81.4895 59.1819 81.697 59.1168C82.1283 59.0222 82.4122 58.898 82.5651 58.7501C82.7125 58.6022 82.7889 58.3478 82.7889 57.9929V49.8945C82.7889 49.5159 82.7234 49.2438 82.5924 49.0782C82.4613 48.9184 82.1938 48.7883 81.8007 48.6936C81.5714 48.6345 81.4513 48.5103 81.4513 48.321C81.4513 48.2381 81.484 48.1672 81.5441 48.1139C81.6041 48.0607 81.686 48.0311 81.7843 48.0311C82.1829 48.0311 82.6197 48.0548 83.1056 48.1021C83.5479 48.1494 83.8918 48.1731 84.143 48.1731C84.3505 48.1731 84.6562 48.1494 85.0493 48.1021C85.5353 48.0311 86.0212 47.9956 86.5181 47.9956C87.8394 47.9956 88.8495 48.2322 89.5483 48.7114C90.2472 49.1906 90.5966 49.9004 90.5966 50.8587C90.5966 51.5863 90.3892 52.172 89.9687 52.6216C89.5483 53.0712 89.0405 53.3847 88.4345 53.5799C88.4017 53.5917 88.3854 53.6213 88.3854 53.6686C88.3854 53.7159 88.3963 53.7574 88.4181 53.7928C88.9696 54.6861 89.4719 55.461 89.936 56.1177C90.4001 56.7743 90.8478 57.3303 91.2901 57.7799C91.6286 58.123 91.9834 58.3478 92.3547 58.4425C92.726 58.5371 93.1682 58.5844 93.6815 58.5844C93.8453 58.5844 93.9272 58.6968 93.9272 58.9216C93.9272 59.7202 93.2229 60.1225 91.8142 60.1225C90.9624 60.1225 90.2963 59.9628 89.8159 59.6552ZM87.4626 52.9528C87.752 52.5506 87.8994 51.9945 87.8994 51.2906C87.8994 50.4565 87.7575 49.8413 87.4681 49.439C87.1842 49.0367 86.7692 48.8415 86.2287 48.8415C85.9994 48.8415 85.8301 48.9539 85.7318 49.1728C85.6335 49.3917 85.5844 49.8294 85.5844 50.4861V52.8818C85.5844 53.3373 85.7755 53.5621 86.1632 53.5621C86.7365 53.5562 87.1733 53.3551 87.4626 52.9528Z" fill="#7D7D7D"/>
<path d="M110.377 59.7437C110.323 59.6845 110.296 59.6194 110.296 59.5485C110.296 59.4775 110.328 59.4065 110.388 59.3355C110.448 59.2645 110.53 59.2113 110.629 59.1758C111.016 59.0575 111.273 58.9273 111.415 58.7853C111.551 58.6434 111.622 58.4008 111.622 58.0518V49.8942C111.622 49.5156 111.551 49.2435 111.409 49.0897C111.267 48.9359 110.973 48.8057 110.536 48.6933C110.328 48.6342 110.225 48.504 110.225 48.3029C110.225 48.2319 110.257 48.1668 110.323 48.1136C110.388 48.0603 110.454 48.0308 110.519 48.0308C110.929 48.0308 111.355 48.0485 111.808 48.084C112.403 48.1077 112.796 48.1195 112.998 48.1195C113.206 48.1195 113.621 48.1077 114.238 48.084C114.876 48.0603 115.313 48.0485 115.559 48.0485C115.734 48.0485 115.821 48.1372 115.821 48.3147C115.821 48.4212 115.794 48.504 115.745 48.5573C115.695 48.6105 115.614 48.6578 115.504 48.6933C115.051 48.8353 114.762 48.9832 114.631 49.1429C114.5 49.2967 114.434 49.557 114.434 49.9119V57.8684C114.434 58.1879 114.5 58.4245 114.625 58.5665C114.751 58.7084 114.958 58.7794 115.242 58.7794H116.842C117.262 58.7794 117.639 58.6138 117.983 58.2766C118.289 57.969 118.589 57.4839 118.873 56.8273C118.982 56.5788 119.07 56.4191 119.13 56.354C119.19 56.289 119.261 56.2535 119.337 56.2535C119.414 56.2535 119.474 56.2949 119.512 56.3718C119.55 56.4487 119.572 56.5374 119.572 56.6321C119.572 56.6676 119.561 56.7267 119.545 56.8036C119.528 56.8805 119.512 56.9633 119.501 57.0462C119.337 57.6791 119.223 58.1405 119.152 58.4422C119.086 58.738 119.037 59.093 119.004 59.4952C118.982 59.72 118.889 59.8324 118.726 59.8324L117.29 59.8147C115.619 59.7673 114.188 59.7437 112.998 59.7437C112.627 59.7437 112.223 59.7614 111.792 59.7969C111.218 59.8206 110.831 59.8324 110.618 59.8324C110.509 59.8324 110.432 59.8028 110.377 59.7437Z" fill="#7D7D7D"/>
<path d="M23.6187 68.2384C23.9135 68.4218 24.1428 68.6762 24.3121 69.0015C24.4814 69.3269 24.5687 69.6996 24.5687 70.1078C24.5687 70.5219 24.4814 70.8886 24.3121 71.2199C24.1428 71.5512 23.9081 71.8056 23.6187 71.983C23.3239 72.1664 22.9963 72.2552 22.6359 72.2552C22.2756 72.2552 21.948 72.1664 21.6531 71.983C21.3583 71.7997 21.129 71.5453 20.9598 71.2199C20.7905 70.8946 20.7031 70.5219 20.7031 70.1078C20.7031 69.6937 20.7905 69.3269 20.9598 69.0015C21.129 68.6762 21.3638 68.4218 21.6531 68.2384C21.948 68.055 22.2756 67.9663 22.6359 67.9663C22.9963 67.9663 23.3239 68.055 23.6187 68.2384ZM22.0408 68.901C21.8715 69.0134 21.7351 69.1731 21.6368 69.3802C21.5385 69.5872 21.4893 69.8297 21.4893 70.1078C21.4893 70.3858 21.5385 70.6284 21.6368 70.8354C21.7351 71.0425 21.8661 71.2022 22.0408 71.3146C22.2101 71.427 22.4121 71.4802 22.6359 71.4802C22.8598 71.4802 23.0618 71.427 23.231 71.3146C23.4003 71.2022 23.5368 71.0425 23.6351 70.8354C23.7334 70.6284 23.7825 70.3858 23.7825 70.1078C23.7825 69.8297 23.7334 69.5872 23.6351 69.3802C23.5368 69.1731 23.4058 69.0134 23.231 68.901C23.0618 68.7886 22.8598 68.7353 22.6359 68.7353C22.4066 68.7353 22.2101 68.7886 22.0408 68.901Z" fill="#7D7D7D"/>
<path d="M31.0011 72.2142L30.0947 70.5815H29.7562V72.2142H28.9863V68.02H30.4605C30.9082 68.02 31.2522 68.1383 31.487 68.3749C31.7218 68.6116 31.8419 68.9251 31.8419 69.3155C31.8419 69.635 31.76 69.8953 31.5962 70.1082C31.4324 70.3212 31.1976 70.4631 30.8919 70.5341L31.8583 72.2082H31.0011V72.2142ZM29.7617 70.0076H30.395C30.8373 70.0076 31.0557 69.7947 31.0557 69.3747C31.0557 69.1736 31.0011 69.0138 30.8919 68.9014C30.7827 68.789 30.6189 68.7299 30.3895 68.7299H29.7562V70.0076H29.7617Z" fill="#7D7D7D"/>
<path d="M39.163 68.3571C39.4742 68.6056 39.6708 68.9487 39.7582 69.3746H38.9446C38.8682 69.1853 38.748 69.0315 38.5788 68.9191C38.415 68.8067 38.2184 68.7475 37.9891 68.7475C37.7652 68.7475 37.5687 68.8008 37.3995 68.9132C37.2302 69.0256 37.0937 69.1853 37.0009 69.3864C36.908 69.5935 36.8589 69.836 36.8589 70.1081C36.8589 70.5459 36.9681 70.889 37.1865 71.1374C37.4049 71.3799 37.6997 71.5042 38.0765 71.5042C38.3549 71.5042 38.5952 71.4154 38.7917 71.238C38.9938 71.0605 39.1193 70.8121 39.1794 70.4985H37.869V69.9011H39.8237V70.7056C39.7691 70.9836 39.6599 71.238 39.5015 71.4687C39.3432 71.7053 39.1357 71.8887 38.8791 72.0307C38.6225 72.1726 38.3276 72.2436 37.9946 72.2436C37.6124 72.2436 37.2793 72.1549 36.99 71.9715C36.7006 71.794 36.4767 71.5397 36.3184 71.2202C36.16 70.8949 36.0781 70.5281 36.0781 70.114C36.0781 69.6999 36.16 69.3273 36.3184 69.0078C36.4767 68.6884 36.7006 68.434 36.99 68.2506C37.2793 68.0673 37.6124 67.9785 37.9946 67.9785C38.4587 67.9844 38.8518 68.1087 39.163 68.3571Z" fill="#7D7D7D"/>
<path d="M46.5996 71.3737H45.049L44.776 72.2196H43.957L45.3821 68.0728H46.2666L47.6862 72.2196H46.8672L46.5996 71.3737ZM46.3922 70.7348L45.8243 68.966L45.2565 70.7348H46.3922Z" fill="#7D7D7D"/>
<path d="M55.21 72.2141H54.4401L52.7093 69.3628V72.2141H51.9395V68.02H52.7093L54.4401 70.8949V68.02H55.21V72.2141Z" fill="#7D7D7D"/>
<path d="M60.5223 68.0249V72.2191H59.7471V68.0249H60.5223Z" fill="#7D7D7D"/>
<path d="M68.0079 68.3863C68.3246 68.6584 68.5375 69.0192 68.6358 69.4865H67.8223C67.7404 69.2617 67.6094 69.0843 67.4292 68.9541C67.2545 68.824 67.0415 68.7589 66.7903 68.7589C66.5883 68.7589 66.4027 68.8122 66.2389 68.9246C66.0751 69.037 65.9441 69.1967 65.8567 69.3978C65.7639 69.6049 65.7202 69.8474 65.7202 70.1195C65.7202 70.3916 65.7639 70.6341 65.8567 70.8353C65.9495 71.0423 66.0751 71.202 66.2389 71.3085C66.4027 71.4209 66.5883 71.4741 66.7903 71.4741C67.0415 71.4741 67.249 71.4091 67.4292 71.2789C67.6039 71.1488 67.7349 70.9713 67.8223 70.7465H68.6358C68.5321 71.208 68.3246 71.5747 68.0079 71.8468C67.6913 72.1189 67.2927 72.2491 66.8067 72.2491C66.4355 72.2491 66.1133 72.1603 65.8294 71.977C65.5455 71.7995 65.3271 71.5451 65.1742 71.2198C65.0213 70.8944 64.9395 70.5277 64.9395 70.1136C64.9395 69.6995 65.0159 69.3268 65.1742 69.0015C65.3271 68.6761 65.5455 68.4217 65.8294 68.2443C66.1133 68.0668 66.4355 67.9722 66.8122 67.9722C67.2872 67.984 67.6913 68.1141 68.0079 68.3863Z" fill="#7D7D7D"/>
<path d="M80.806 70.4148C80.9479 70.6041 81.0189 70.823 81.0189 71.0774C81.0189 71.4323 80.9097 71.7104 80.6913 71.9115C80.4729 72.1126 80.1562 72.2191 79.7468 72.2191H78.0869V68.0249H79.714C80.1071 68.0249 80.4074 68.1196 80.6149 68.3029C80.8223 68.4863 80.9315 68.7525 80.9315 69.0838C80.9315 69.3441 80.866 69.5571 80.7405 69.7227C80.6149 69.8883 80.4511 69.9948 80.2436 70.0481C80.4784 70.1072 80.664 70.2255 80.806 70.4148ZM78.8568 69.7819H79.5502C79.7413 69.7819 79.8887 69.7345 79.9925 69.6399C80.0907 69.5452 80.1453 69.4151 80.1453 69.2376C80.1453 69.0661 80.0962 68.93 79.9979 68.8353C79.8996 68.7407 79.7468 68.6934 79.5447 68.6934H78.8622V69.7819H78.8568ZM80.0634 71.385C80.1726 71.2903 80.2272 71.1484 80.2272 70.9591C80.2272 70.7757 80.1726 70.6278 80.058 70.5272C79.9488 70.4267 79.7904 70.3734 79.583 70.3734H78.8568V71.527H79.5884C79.7959 71.5329 79.9542 71.4856 80.0634 71.385Z" fill="#7D7D7D"/>
<path d="M86.1683 68.6885V69.7769H87.5387V70.4158H86.1683V71.5457H87.7025V72.2142H85.3984V68.02H87.7025V68.6826H86.1683V68.6885Z" fill="#7D7D7D"/>
<path d="M94.461 71.3737H92.9103L92.6373 72.2196H91.8184L93.2434 68.0728H94.1279L95.5475 72.2196H94.7285L94.461 71.3737ZM94.2535 70.7348L93.6856 68.966L93.1178 70.7348H94.2535Z" fill="#7D7D7D"/>
<path d="M100.544 68.0249V70.4799C100.544 70.8111 100.61 71.0537 100.746 71.2193C100.877 71.3849 101.074 71.4678 101.325 71.4678C101.576 71.4678 101.762 71.3849 101.898 71.2193C102.029 71.0537 102.1 70.8111 102.1 70.4799V68.0249H102.87V70.4799C102.87 70.8703 102.804 71.1956 102.668 71.4618C102.537 71.728 102.351 71.9292 102.117 72.0593C101.882 72.1895 101.614 72.2545 101.314 72.2545C100.85 72.2545 100.479 72.1066 100.2 71.8049C99.9216 71.5032 99.7852 71.0655 99.7852 70.4799V68.0249H100.544Z" fill="#7D7D7D"/>
<path d="M110.012 68.0249V68.6874H108.942V72.2131H108.166V68.6874H107.102V68.0249H110.012Z" fill="#7D7D7D"/>
<path d="M117.393 68.0249L116.082 70.752V72.2191H115.307V70.752L113.991 68.0249H114.881L115.706 69.8588L116.53 68.0249H117.393Z" fill="#7D7D7D"/>
<path d="M84.3066 94.1661C86.6107 92.3441 87.7354 90.5103 87.7409 88.5523C87.7409 88.2683 87.5498 88.0317 87.2877 87.9962C85.8791 87.8069 84.5032 88.4576 83.4712 89.0433C79.4418 91.3326 76.1822 94.805 73.0373 98.1769C73.0319 98.1828 73.0209 98.1828 73.0155 98.1947C71.514 99.8155 69.8651 101.129 68.178 102.205C72.2566 97.7155 74.8719 90.9776 74.85 86.3103C74.8446 85.7601 74.779 85.0798 74.2713 84.6657C74.0146 84.4528 73.687 84.364 73.3158 84.3877C73.3103 84.3877 73.3049 84.3818 73.2994 84.3818C73.283 84.3818 73.2666 84.3936 73.2503 84.3936C73.1301 84.4054 73.01 84.4232 72.8845 84.4587C71.2629 84.9142 70.3183 86.5765 69.614 88.1382C67.2553 93.3616 65.59 98.9637 63.9903 104.388C61.7189 105.347 59.5295 105.95 57.6731 106.323C57.0835 106.441 56.4938 106.542 55.9041 106.636C57.2527 105.891 58.4866 104.927 59.2292 104.122C60.6051 102.637 61.6861 100.685 62.6362 97.9876C63.2149 96.3431 63.9466 93.8644 63.6353 91.3858C63.5207 90.4689 63.133 89.8833 62.5488 89.7472C62.5434 89.7472 62.5434 89.7472 62.5379 89.7472C62.0738 89.6407 61.6698 89.8596 61.3367 90.0903C58.4703 92.0602 56.7777 95.4439 55.6202 98.1769C55.3254 98.869 55.0469 99.5671 54.7684 100.265C53.8403 102.572 52.8848 104.962 51.487 106.967C51.4597 107.003 51.4488 107.05 51.4324 107.092C48.0145 107.251 44.3891 107.021 40.2396 106.394C23.8653 102.927 10.4503 90.7588 4.35154 73.8461C2.14573 67.7412 1.02647 61.2874 1.02647 54.6737C1.02647 54.3661 0.797149 54.1177 0.513234 54.1177C0.229318 54.1177 0 54.3661 0 54.6737C0 61.4293 1.14111 68.0193 3.39605 74.2543C9.62036 91.5219 23.3248 103.945 40.0704 107.494C43.4446 108.003 46.4803 108.257 49.3358 108.257C51.4543 108.257 53.469 108.109 55.4509 107.831C55.8659 108.399 56.2808 108.973 56.6958 109.547C59.7206 113.735 62.8546 118.071 66.8895 121.254C67.0533 121.384 67.43 121.68 67.8613 121.68C67.976 121.68 68.1016 121.656 68.2217 121.603C68.2272 121.603 68.2326 121.603 68.2381 121.597C68.2435 121.597 68.2435 121.591 68.249 121.591C68.2544 121.585 68.2599 121.585 68.2708 121.585C68.5766 121.437 68.9424 121.07 68.9478 120.147C68.9533 117.61 67.8886 115.001 65.9503 112.806C64.2414 110.872 62.0629 109.458 59.9608 108.222C59.4094 107.896 58.8579 107.583 58.2901 107.328C60.8508 106.784 63.2477 105.974 65.459 104.938C65.4644 104.944 65.4699 104.95 65.4753 104.956C68.1507 106.689 71.2574 108.032 75.2431 109.18C77.0668 109.706 79.0869 110.174 81.1126 110.174C82.3083 110.174 83.504 110.008 84.667 109.594H84.6724H84.6779C84.6833 109.594 84.6833 109.588 84.6833 109.588C84.7598 109.558 84.8307 109.505 84.8853 109.44C84.8908 109.434 84.8963 109.428 84.9017 109.422C84.94 109.375 84.9727 109.322 84.9945 109.257C85 109.239 85 109.215 85.0055 109.198C85.0109 109.186 85.0164 109.174 85.0218 109.162C85.0218 109.144 85.0164 109.133 85.0164 109.115C85.0218 109.044 85.0164 108.979 85 108.908C84.9946 108.89 84.9945 108.872 84.9891 108.849C84.9563 108.766 84.9126 108.695 84.8471 108.636C84.8417 108.63 84.8417 108.624 84.8362 108.624C80.7031 104.992 73.8836 102.992 68.0797 103.53C70.0999 102.312 71.918 100.88 73.4905 99.2358C75.5707 98.6797 80.572 97.118 84.3066 94.1661ZM62.6744 92.5216C62.6962 93.9828 62.3741 95.5918 61.6643 97.6031C60.7689 100.153 59.7588 101.975 58.4921 103.347C57.8588 104.033 56.8541 104.826 55.7622 105.471C60.5396 101.336 62.1393 95.6155 62.6744 92.5216ZM61.6042 92.6813C61.0637 95.5859 59.5622 100.555 55.4618 104.3C56.2917 103.146 57.1763 101.673 57.9952 99.8274C59.3493 96.7749 60.6815 94.2904 61.6042 92.6813ZM55.6966 100.715C55.9751 100.023 56.2535 99.3304 56.5429 98.6501C57.4984 96.3963 58.8306 93.6811 60.8945 91.8177C59.9499 93.4504 58.5249 96.0769 57.0725 99.3423C56.1607 101.401 55.1506 102.98 54.2497 104.146C54.7739 103.016 55.238 101.856 55.6966 100.715ZM83.7006 93.267C81.8769 94.7045 79.3162 96.0591 76.4989 97.1121L86.3377 90.1968C85.8845 91.2143 85.0164 92.2318 83.7006 93.267ZM83.9463 90.0371C84.5359 89.7058 85.1857 89.3804 85.8627 89.2089L77.5472 95.0535C79.5182 93.1309 81.6039 91.3681 83.9463 90.0371ZM72.3603 87.801C71.383 92.6044 68.9042 97.2067 66.9113 100.33L72.3603 87.801ZM67.5064 101.383C69.9143 97.7037 73.1411 91.7644 73.7198 85.6655C73.8181 85.8548 73.829 86.1979 73.829 86.328C73.8454 90.741 71.3666 97.118 67.5064 101.383ZM70.5312 88.6351C70.8752 87.872 71.2847 87.0852 71.7925 86.4877L67.7303 95.8225C68.5657 93.3794 69.4775 90.9658 70.5312 88.6351ZM59.2565 111.28C62.1011 114.232 64.3615 117.018 65.8193 118.917C63.3842 116.675 61.2657 114.007 59.2565 111.28ZM59.9117 110.422C62.3905 112.433 65.5026 115.409 66.8621 118.55C65.3989 116.61 62.9856 113.605 59.9117 110.422ZM67.3699 117.201C66.1415 114.871 64.154 112.717 62.2376 110.978C63.346 111.765 64.3287 112.599 65.1914 113.575C66.1851 114.699 66.9113 115.935 67.3699 117.201ZM75.4943 108.097C72.9827 107.376 70.8315 106.577 68.9315 105.648C72.0873 106.145 77.6619 107.186 82.6249 108.937C80.228 109.286 77.7165 108.736 75.4943 108.097ZM80.6867 107.145C76.3788 105.832 71.9617 105.009 69.2263 104.572C73.0701 104.424 77.2633 105.37 80.6867 107.145Z" fill="#7D7D7D"/>
</svg>
