<svg width="72" height="91" viewBox="0 0 72 91" fill="none" xmlns="http://www.w3.org/2000/svg">
<path d="M11.5409 12.2825C10.9827 13.3822 10.1763 14.2313 9.12194 14.8423C8.06753 15.4532 6.81013 15.7586 5.35539 15.7586H0.59082V1.2373H5.35539C6.81013 1.2373 8.06753 1.53663 9.12194 2.12921C10.1763 2.7279 10.9883 3.57097 11.5409 4.65839C12.0991 5.74581 12.3754 7.02261 12.3754 8.47658C12.3754 9.91833 12.0991 11.189 11.5409 12.2825ZM8.4735 11.9343C9.2629 11.1096 9.6576 9.96109 9.6576 8.47658C9.6576 6.97985 9.2629 5.82522 8.4735 5.0005C7.68411 4.17577 6.56768 3.76644 5.12421 3.76644H3.26349V13.1684H5.12421C6.56768 13.1684 7.68411 12.759 8.4735 11.9343Z" fill="#7D7D7D"/>
<path d="M5.35028 15.954H0.405273V1.04785H5.35028C6.82758 1.04785 8.12444 1.35331 9.20141 1.96422C10.284 2.57513 11.1242 3.45481 11.6936 4.57278C12.2631 5.68463 12.5507 7.00422 12.5507 8.48262C12.5507 9.9488 12.2631 11.2623 11.6936 12.3802C11.1242 13.5043 10.284 14.3962 9.20141 15.0194C8.12444 15.6364 6.83322 15.954 5.35028 15.954ZM0.76614 15.5692H5.35592C6.77683 15.5692 8.01731 15.2698 9.04353 14.6773C10.0641 14.0847 10.8535 13.2477 11.3948 12.1908C11.9361 11.1279 12.2068 9.87549 12.2068 8.4765C12.2068 7.0653 11.9305 5.80681 11.3948 4.75604C10.8591 3.70528 10.0641 2.88057 9.04917 2.30021C8.02295 1.71985 6.78247 1.42661 5.36156 1.42661H0.77178V15.5692H0.76614ZM5.12474 13.3577H3.08922V3.57088H5.12474C6.60768 3.57088 7.77485 4.00465 8.59808 4.85993C9.42131 5.7152 9.83856 6.9309 9.83856 8.4765C9.83856 10.0038 9.42131 11.2134 8.59808 12.0687C7.77485 12.9239 6.60768 13.3577 5.12474 13.3577ZM3.43881 12.9789H5.12474C6.51182 12.9789 7.60006 12.5818 8.35562 11.7999C9.10555 11.0179 9.48897 9.89993 9.48897 8.48262C9.48897 7.04698 9.10555 5.929 8.35562 5.14704C7.60006 4.36507 6.51746 3.96798 5.12474 3.96798H3.43881V12.9789Z" fill="#7D7D7D"/>
<path d="M24.6627 3.54069V7.30392H29.4103V9.52761H24.6627V13.4375H29.9798V15.765H21.9844V1.24365H29.9798V3.5468H24.6627V3.54069Z" fill="#7D7D7D"/>
<path d="M30.1602 15.954H21.8096V1.04785H30.1602V3.73583H24.8431V7.12026H29.5908V9.72275H24.8431V13.2477H30.1602V15.954ZM22.1648 15.5692H29.805V13.6265H24.4879V9.33179H29.2355V7.49295H24.4879V3.34484H29.805V1.42661H22.1648V15.5692Z" fill="#7D7D7D"/>
<path d="M9.28767 38.5205C8.94371 39.1436 8.44188 39.6446 7.7709 40.0233C7.09991 40.4021 6.28232 40.5915 5.32377 40.5915C4.3765 40.5915 3.52508 40.4143 2.78079 40.0661C2.0365 39.7179 1.43318 39.2108 0.987733 38.551C0.536649 37.8912 0.282915 37.1276 0.220891 36.2479H3.06836C3.13038 36.8405 3.35028 37.3292 3.72242 37.7202C4.09457 38.1112 4.59076 38.3067 5.211 38.3067C5.76921 38.3067 6.19775 38.1478 6.49095 37.824C6.78979 37.5002 6.93639 37.0848 6.93639 36.5778C6.93639 36.1257 6.81799 35.753 6.57553 35.4537C6.33307 35.1605 6.02859 34.9222 5.66208 34.7451C5.29558 34.5679 4.78811 34.3602 4.14531 34.128C3.31081 33.8287 2.62855 33.5294 2.09289 33.23C1.56286 32.9368 1.10614 32.5091 0.734 31.9471C0.361856 31.3851 0.175781 30.652 0.175781 29.7478C0.175781 28.5016 0.593033 27.518 1.4219 26.7971C2.25076 26.0763 3.35028 25.7158 4.71481 25.7158C6.13008 25.7158 7.26343 26.0885 8.10357 26.8277C8.94372 27.5669 9.42299 28.5566 9.53576 29.7906H6.64883C6.57553 29.2713 6.37254 28.8437 6.03986 28.5077C5.70719 28.1717 5.26175 28.0006 4.69225 28.0006C4.19606 28.0006 3.80136 28.1412 3.49688 28.4222C3.1924 28.7032 3.04016 29.1125 3.04016 29.644C3.04016 30.0716 3.15857 30.4259 3.38975 30.7009C3.62657 30.9819 3.91978 31.214 4.28064 31.3912C4.64151 31.5683 5.13206 31.7699 5.7523 31.9899C6.61499 32.3198 7.31417 32.6252 7.84984 32.9185C8.3855 33.2056 8.84786 33.6393 9.22564 34.2136C9.60342 34.7878 9.79514 35.5454 9.79514 36.4739C9.79514 37.2193 9.62598 37.8973 9.28767 38.5205Z" fill="#7D7D7D"/>
<path d="M5.31715 40.781C4.34732 40.781 3.46771 40.5977 2.70086 40.2434C1.92838 39.8829 1.30251 39.3514 0.834507 38.6672C0.366507 37.983 0.0958539 37.1766 0.0338299 36.2663L0.0169149 36.0587H3.21397L3.23089 36.2297C3.28727 36.7795 3.48462 37.2255 3.83421 37.5859C4.17253 37.9402 4.62925 38.1174 5.20438 38.1174C5.71185 38.1174 6.10091 37.9708 6.36028 37.6898C6.62529 37.4026 6.75498 37.0422 6.75498 36.5779C6.75498 36.1686 6.65348 35.8448 6.43922 35.5821C6.21931 35.3133 5.93175 35.0873 5.5878 34.9223C5.22693 34.7452 4.71946 34.5436 4.08795 34.3114C3.2478 34.006 2.54862 33.7066 2.01296 33.4073C1.45474 33.1018 0.981109 32.6498 0.592049 32.0633C0.197351 31.4707 0 30.6949 0 29.748C0 28.4467 0.439806 27.4021 1.30814 26.6446C2.1652 25.8992 3.30983 25.5205 4.71382 25.5205C6.16857 25.5205 7.34702 25.9115 8.21536 26.6751C9.08934 27.4448 9.59681 28.4834 9.71522 29.7663L9.73213 29.974H6.50124L6.47869 29.8152C6.41103 29.3387 6.22496 28.9416 5.92611 28.6361C5.63291 28.3368 5.22129 28.1841 4.69691 28.1841C4.25146 28.1841 3.88496 28.3123 3.61431 28.5628C3.3493 28.8072 3.21961 29.1615 3.21961 29.638C3.21961 30.0168 3.3211 30.3222 3.52409 30.5666C3.73836 30.8293 4.02029 31.0431 4.3586 31.2081C4.71383 31.3852 5.20438 31.5807 5.81334 31.7945C6.68168 32.1244 7.39777 32.4421 7.93343 32.7292C8.49729 33.0285 8.9822 33.4867 9.3769 34.0854C9.77724 34.6902 9.98022 35.4905 9.98022 36.4618C9.98022 37.2316 9.79979 37.9586 9.44456 38.6061C9.08934 39.2598 8.55367 39.7852 7.85449 40.1823C7.15531 40.5855 6.30389 40.781 5.31715 40.781ZM0.400336 36.4435C0.484914 37.1949 0.721736 37.8669 1.11643 38.4412C1.54496 39.0704 2.12573 39.5591 2.83619 39.889C3.55792 40.225 4.39243 40.3961 5.31151 40.3961C6.24187 40.3961 7.03691 40.2128 7.6797 39.8524C8.31686 39.4919 8.80741 39.0154 9.12881 38.4229C9.4502 37.8303 9.61372 37.1766 9.61372 36.4741C9.61372 35.5883 9.43329 34.8613 9.07806 34.3237C8.71719 33.7738 8.27738 33.3584 7.76428 33.0896C7.23425 32.8086 6.53508 32.497 5.68366 32.1733C5.06342 31.9533 4.56158 31.7517 4.19508 31.5685C3.81166 31.3791 3.4959 31.1347 3.24216 30.8354C2.97715 30.5238 2.84747 30.1206 2.84747 29.6502C2.84747 29.0576 3.02226 28.5995 3.36621 28.2818C3.70453 27.9702 4.14433 27.8114 4.67999 27.8114C5.2946 27.8114 5.78515 28.0008 6.15166 28.3673C6.47305 28.6972 6.68731 29.1126 6.78317 29.6014H9.32052C9.17955 28.5201 8.72847 27.6403 7.9729 26.9805C7.16659 26.2719 6.06144 25.9115 4.69691 25.9115C3.37749 25.9115 2.30617 26.2597 1.51113 26.95C0.716096 27.6403 0.332676 28.5567 0.332676 29.7541C0.332676 30.6155 0.507467 31.318 0.857057 31.8434C1.21229 32.3749 1.64646 32.7903 2.15392 33.0713C2.67831 33.3645 3.36058 33.6578 4.17816 33.9571C4.82096 34.1893 5.3397 34.397 5.71185 34.5802C6.1009 34.7696 6.42794 35.0262 6.68168 35.3378C6.95233 35.6676 7.08765 36.0892 7.08765 36.584C7.08765 37.14 6.9185 37.6042 6.59146 37.9647C6.25879 38.3251 5.78515 38.5023 5.18182 38.5023C4.51648 38.5023 3.97518 38.2884 3.5692 37.8608C3.2027 37.4759 2.97151 36.9994 2.8813 36.4435H0.400336V36.4435Z" fill="#7D7D7D"/>
<path d="M25.0797 25.9233V40.4447H22.4014V25.9233H25.0797Z" fill="#7D7D7D"/>
<path d="M25.2601 40.6401H22.2266V25.7339H25.2601V40.6401ZM22.5818 40.2553H24.9049V26.1126H22.5818V40.2553Z" fill="#7D7D7D"/>
<path d="M47.2801 27.0847C48.357 27.9583 49.0449 29.1312 49.3494 30.6158H46.5414C46.2764 29.956 45.8535 29.4306 45.2784 29.0396C44.7033 28.6486 44.021 28.4531 43.2372 28.4531C42.4648 28.4531 41.7825 28.6425 41.1848 29.0274C40.5871 29.4123 40.1248 29.9621 39.7977 30.6708C39.4707 31.3855 39.3015 32.2225 39.3015 33.1816C39.3015 34.7028 39.6793 35.888 40.4293 36.7432C41.1848 37.5924 42.211 38.02 43.5135 38.02C44.4777 38.02 45.301 37.7085 45.9889 37.0915C46.6768 36.4745 47.1222 35.6192 47.3252 34.5195H42.7862V32.4424H49.5637V35.2404C49.372 36.1995 49.0055 37.0854 48.4529 37.8918C47.9003 38.6982 47.1786 39.3518 46.2877 39.8345C45.3968 40.3232 44.3706 40.5675 43.2203 40.5675C41.9009 40.5675 40.745 40.256 39.7357 39.6329C38.732 39.0097 37.9483 38.1361 37.4013 37.0181C36.8488 35.9002 36.5781 34.6234 36.5781 33.1816C36.5781 31.7399 36.8544 30.463 37.4013 29.3451C37.9539 28.2271 38.7264 27.3535 39.7301 26.7243C40.7281 26.095 41.8896 25.7773 43.2034 25.7773C44.8499 25.7773 46.2031 26.2172 47.2801 27.0847Z" fill="#7D7D7D"/>
<path d="M43.2367 40.7629C41.8947 40.7629 40.6937 40.4391 39.6619 39.8038C38.63 39.1623 37.8237 38.2582 37.2598 37.1158C36.696 35.9734 36.4141 34.6538 36.4141 33.1876C36.4141 31.7214 36.7016 30.4019 37.2598 29.2595C37.8237 28.111 38.63 27.2068 39.6506 26.5592C40.6712 25.9117 41.8722 25.5879 43.2142 25.5879C44.8775 25.5879 46.2815 26.04 47.381 26.9319C48.4862 27.8299 49.2079 29.0517 49.518 30.5729L49.5631 30.8051H46.4168L46.3717 30.689C46.1236 30.072 45.7177 29.571 45.1764 29.1984C44.6294 28.8257 43.9754 28.6424 43.2311 28.6424C42.4924 28.6424 41.8383 28.8257 41.2688 29.1922C40.705 29.5527 40.2596 30.0842 39.9494 30.7562C39.6337 31.4404 39.4758 32.2529 39.4758 33.1815C39.4758 34.6477 39.8423 35.7962 40.5584 36.6087C41.2745 37.4151 42.2669 37.8244 43.5186 37.8244C44.4321 37.8244 45.2271 37.5251 45.8812 36.9447C46.4845 36.401 46.9018 35.6496 47.1104 34.7149H42.6165V32.2529H49.7492V35.2403C49.5519 36.2605 49.1685 37.183 48.6046 38.0077C48.0407 38.8386 47.2908 39.5105 46.3774 40.0115C45.4696 40.5063 44.4095 40.7629 43.2367 40.7629ZM43.2142 25.9728C41.9342 25.9728 40.7952 26.2843 39.8254 26.8952C38.8612 27.5062 38.1 28.3614 37.5643 29.4427C37.0287 30.5302 36.758 31.7886 36.758 33.1876C36.758 34.5866 37.0287 35.8512 37.5643 36.9325C38.0944 38.0138 38.8612 38.863 39.831 39.4678C40.8065 40.0726 41.9455 40.378 43.2254 40.378C44.3475 40.378 45.3512 40.1398 46.2139 39.6694C47.0765 39.199 47.7814 38.5636 48.317 37.7816C48.8527 36.9997 49.2136 36.1322 49.3996 35.2036L49.394 32.6378H42.9717V34.33H47.5502L47.5107 34.5561C47.3021 35.6923 46.8285 36.5965 46.1124 37.238C45.3906 37.8794 44.5223 38.2093 43.5243 38.2093C42.1767 38.2093 41.0941 37.7572 40.3103 36.8775C39.5265 35.9917 39.1318 34.7516 39.1318 33.1876C39.1318 32.2041 39.3066 31.3305 39.645 30.5913C39.9889 29.8459 40.4795 29.2656 41.0997 28.8685C41.7199 28.4653 42.4417 28.2637 43.2423 28.2637C44.0599 28.2637 44.776 28.4714 45.3794 28.8807C45.9488 29.2656 46.383 29.7848 46.6593 30.4263H49.129C48.8132 29.1067 48.1592 28.0376 47.178 27.2434C46.1349 26.3943 44.8042 25.9728 43.2142 25.9728Z" fill="#7D7D7D"/>
<path d="M70.1588 40.4447H67.4805L61.481 30.5724V40.4447H58.8027V25.9233H61.481L67.4805 35.8812V25.9233H70.1588V40.4447Z" fill="#7D7D7D"/>
<path d="M70.3343 40.6401H67.3853L61.6566 31.2137V40.6401H58.623V25.7339H61.572L67.3008 35.2397V25.7339H70.3343V40.6401ZM67.5771 40.2553H69.9847V26.1126H67.6616V36.5226L61.3916 26.1126H58.9896V40.2553H61.3126V29.9308L67.5771 40.2553Z" fill="#7D7D7D"/>
<path d="M9.28767 63.2076C8.94371 63.8307 8.44188 64.3316 7.7709 64.7104C7.09991 65.0892 6.28232 65.2785 5.32377 65.2785C4.3765 65.2785 3.52508 65.1014 2.78079 64.7532C2.0365 64.4049 1.43318 63.8979 0.987733 63.2381C0.536649 62.5783 0.282915 61.8147 0.220891 60.935H3.06836C3.13038 61.5275 3.35028 62.0163 3.72242 62.4072C4.09457 62.7982 4.59076 62.9937 5.211 62.9937C5.76921 62.9937 6.19775 62.8349 6.49095 62.5111C6.78979 62.1873 6.93639 61.7719 6.93639 61.2648C6.93639 60.8128 6.81799 60.4401 6.57553 60.1408C6.33307 59.8475 6.02859 59.6093 5.66208 59.4321C5.29558 59.2549 4.78811 59.0473 4.14531 58.8151C3.31081 58.5158 2.62855 58.2164 2.09289 57.917C1.56286 57.6238 1.10614 57.1962 0.734 56.6341C0.361856 56.0721 0.175781 55.339 0.175781 54.4348C0.175781 53.1886 0.593033 52.205 1.4219 51.4842C2.25076 50.7633 3.35028 50.4028 4.71481 50.4028C6.13008 50.4028 7.26343 50.7755 8.10357 51.5147C8.94372 52.2539 9.42299 53.2436 9.53576 54.4776H6.64883C6.57553 53.9583 6.37254 53.5307 6.03986 53.1947C5.71283 52.8587 5.26175 52.6876 4.69225 52.6876C4.19606 52.6876 3.80136 52.8282 3.49688 53.1092C3.1924 53.3902 3.04016 53.7995 3.04016 54.331C3.04016 54.7586 3.15857 55.113 3.38975 55.3879C3.62657 55.6689 3.91978 55.901 4.28064 56.0782C4.64151 56.2554 5.13206 56.457 5.7523 56.6769C6.61499 57.0068 7.31417 57.3122 7.84984 57.6055C8.3855 57.8926 8.84786 58.3264 9.22564 58.9006C9.60342 59.4749 9.79514 60.2324 9.79514 61.161C9.79514 61.9063 9.62598 62.5844 9.28767 63.2076Z" fill="#7D7D7D"/>
<path d="M5.31715 65.4682C4.34732 65.4682 3.46771 65.2849 2.70086 64.9306C1.92838 64.5701 1.30251 64.0386 0.834507 63.3544C0.366507 62.6702 0.0958539 61.8638 0.0338299 60.9535L0.0169149 60.7458H3.21397L3.23089 60.9169C3.28727 61.4667 3.48462 61.9127 3.83421 62.2731C4.17253 62.6274 4.62925 62.8046 5.20438 62.8046C5.71185 62.8046 6.10091 62.658 6.36028 62.3769C6.62529 62.0898 6.75498 61.7294 6.75498 61.2651C6.75498 60.8558 6.65348 60.532 6.43922 60.2693C6.21931 60.0005 5.93175 59.7745 5.5878 59.6095C5.22693 59.4323 4.71946 59.2307 4.08795 58.9986C3.2478 58.6931 2.54862 58.3938 2.01296 58.0944C1.45474 57.789 0.981109 57.3369 0.592049 56.7504C0.197351 56.1578 0 55.382 0 54.435C0 53.1338 0.439806 52.0892 1.30814 51.3316C2.1652 50.5863 3.30983 50.2075 4.71382 50.2075C6.16857 50.2075 7.34702 50.5985 8.21536 51.3622C9.08934 52.1319 9.59681 53.1705 9.71522 54.4534L9.73213 54.6611H6.50124L6.47869 54.5023C6.41103 54.0258 6.22496 53.6286 5.92611 53.3232C5.63291 53.0238 5.22129 52.8711 4.69691 52.8711C4.25146 52.8711 3.88496 52.9994 3.61431 53.2499C3.3493 53.4942 3.21961 53.8486 3.21961 54.3251C3.21961 54.7038 3.3211 55.0093 3.52409 55.2537C3.73836 55.5164 4.02029 55.7302 4.3586 55.8951C4.71383 56.0723 5.20438 56.2678 5.81334 56.4816C6.68168 56.8115 7.39777 57.1292 7.93343 57.4163C8.49729 57.7157 8.9822 58.1739 9.3769 58.7726C9.77724 59.3774 9.98022 60.1776 9.98022 61.149C9.98022 61.9187 9.79979 62.6457 9.44456 63.2933C9.08934 63.947 8.55367 64.4724 7.85449 64.8695C7.15531 65.2727 6.30389 65.4682 5.31715 65.4682ZM0.400336 61.1307C0.484914 61.8821 0.721736 62.5541 1.11643 63.1284C1.54496 63.7576 2.12573 64.2464 2.83619 64.5763C3.55792 64.9123 4.39243 65.0833 5.31151 65.0833C6.24187 65.0833 7.03691 64.9 7.6797 64.5396C8.31686 64.1792 8.80741 63.7026 9.12881 63.11C9.4502 62.5175 9.61372 61.8638 9.61372 61.1612C9.61372 60.2754 9.43329 59.5484 9.07806 59.0108C8.71719 58.461 8.27738 58.0456 7.76428 57.7768C7.23425 57.4957 6.53508 57.1842 5.68366 56.8604C5.06342 56.6405 4.56158 56.4389 4.19508 56.2556C3.81166 56.0662 3.4959 55.8218 3.24216 55.5225C2.97715 55.2109 2.84747 54.8077 2.84747 54.3373C2.84747 53.7447 3.02226 53.2865 3.36621 52.9689C3.70453 52.6573 4.14433 52.4985 4.67999 52.4985C5.2946 52.4985 5.78515 52.6878 6.15166 53.0544C6.47305 53.3843 6.68731 53.7997 6.78317 54.2884H9.32052C9.17955 53.2071 8.72847 52.3274 7.9729 51.6676C7.16659 50.959 6.06144 50.5985 4.69691 50.5985C3.37749 50.5985 2.30617 50.9467 1.51113 51.6371C0.716096 52.3274 0.332676 53.2438 0.332676 54.4412C0.332676 55.3025 0.507467 56.0051 0.857057 56.5305C1.21229 57.062 1.64646 57.4774 2.15392 57.7584C2.67831 58.0517 3.36058 58.3449 4.17816 58.6443C4.82096 58.8764 5.3397 59.0841 5.71185 59.2674C6.1009 59.4568 6.42794 59.7134 6.68168 60.0249C6.95233 60.3548 7.08765 60.7763 7.08765 61.2712C7.08765 61.8271 6.9185 62.2914 6.59146 62.6519C6.25879 63.0123 5.78515 63.1895 5.18182 63.1895C4.51648 63.1895 3.97518 62.9757 3.5692 62.548C3.2027 62.1631 2.97151 61.6866 2.8813 61.1307H0.400336V61.1307Z" fill="#7D7D7D"/>
<path d="M28.4808 50.6108V52.914H24.7763V65.1322H22.098V52.914H18.416V50.6108H28.4808Z" fill="#7D7D7D"/>
<path d="M24.9567 65.3277H21.9232V53.1094H18.2412V50.4214H28.6556V53.1094H24.9511V65.3277H24.9567ZM22.2784 64.9428H24.6015V52.7245H28.306V50.8063H18.5964V52.7245H22.2784V64.9428Z" fill="#7D7D7D"/>
<path d="M40.1419 50.6113V59.1274C40.1419 60.2637 40.3731 61.119 40.8354 61.6872C41.2978 62.2553 41.9631 62.5424 42.8371 62.5424C43.6998 62.5424 44.3595 62.2553 44.8219 61.6872C45.2842 61.119 45.5154 60.2637 45.5154 59.1274V50.6113H48.1712V59.1274C48.1712 60.4714 47.94 61.6077 47.4776 62.5302C47.0153 63.4588 46.3781 64.143 45.5605 64.6012C44.7429 65.0533 43.8182 65.2793 42.7807 65.2793C41.1737 65.2793 39.8881 64.76 38.9239 63.7154C37.9598 62.6707 37.4805 61.1434 37.4805 59.1274V50.6113H40.1419V50.6113Z" fill="#7D7D7D"/>
<path d="M42.7797 65.4683C41.1333 65.4683 39.7913 64.9246 38.7989 63.8494C37.8065 62.7742 37.3047 61.1858 37.3047 59.1271V50.4155H40.3157V59.1271C40.3157 60.2145 40.5356 61.0331 40.9641 61.5646C41.3926 62.0961 42.0072 62.3527 42.8361 62.3527C43.6537 62.3527 44.257 62.0961 44.6855 61.5646C45.1141 61.0331 45.334 60.2145 45.334 59.1271V50.4155H48.345V59.1271C48.345 60.4955 48.1025 61.6746 47.6289 62.6215C47.1496 63.5806 46.4786 64.3015 45.6385 64.7658C44.8039 65.2362 43.8398 65.4683 42.7797 65.4683ZM37.6599 50.8004V59.1271C37.6599 61.082 38.1279 62.5787 39.0526 63.5806C39.9774 64.5825 41.2291 65.0896 42.7797 65.0896C43.7834 65.0896 44.6912 64.8697 45.4806 64.4298C46.2587 63.9961 46.8789 63.3302 47.3244 62.4382C47.7698 61.5463 47.9954 60.4283 47.9954 59.1271V50.8004H45.6892V59.1271C45.6892 60.3061 45.4411 61.2103 44.9506 61.8151C44.4544 62.426 43.7439 62.7315 42.8361 62.7315C41.9114 62.7315 41.1953 62.4199 40.6991 61.8151C40.2085 61.2164 39.9604 60.3122 39.9604 59.1271V50.8004H37.6599Z" fill="#7D7D7D"/>
<path d="M11.5409 86.3432C10.9827 87.4428 10.1763 88.292 9.12194 88.9029C8.06753 89.5138 6.81013 89.8193 5.35539 89.8193H0.59082V75.2979H5.35539C6.81013 75.2979 8.06753 75.5972 9.12194 76.1898C10.1763 76.7885 10.9883 77.6315 11.5409 78.719C12.0991 79.8125 12.3754 81.0832 12.3754 82.5372C12.3754 83.9789 12.0991 85.2497 11.5409 86.3432ZM8.4735 85.995C9.2629 85.1702 9.6576 84.0217 9.6576 82.5372C9.6576 81.0404 9.2629 79.8858 8.4735 79.0611C7.68411 78.2363 6.56768 77.827 5.12421 77.827H3.26349V87.229H5.12421C6.56768 87.229 7.68411 86.8197 8.4735 85.995Z" fill="#7D7D7D"/>
<path d="M5.35028 90.0147H0.405273V75.1084H5.35028C6.82758 75.1084 8.12444 75.4139 9.20141 76.0248C10.284 76.6357 11.1242 77.5154 11.6936 78.6334C12.2631 79.7452 12.5507 81.0648 12.5507 82.5432C12.5507 84.0094 12.2631 85.3229 11.6936 86.4408C11.1242 87.5649 10.284 88.4568 9.20141 89.08C8.12444 89.697 6.83322 90.0147 5.35028 90.0147ZM0.76614 89.6298H5.35592C6.77683 89.6298 8.01731 89.3305 9.04353 88.7379C10.0641 88.1453 10.8535 87.3083 11.3948 86.2514C11.9361 85.1885 12.2068 83.9361 12.2068 82.5371C12.2068 81.1259 11.9305 79.8674 11.3948 78.8105C10.8591 77.7598 10.0641 76.935 9.04917 76.3546C8.02295 75.7743 6.78247 75.481 5.36156 75.481H0.77178V89.6298H0.76614ZM5.12474 87.4183H3.08922V77.6376H5.12474C6.60768 77.6376 7.77485 78.0713 8.59808 78.9266C9.42131 79.7819 9.83856 80.9976 9.83856 82.5432C9.83856 84.0705 9.42131 85.2801 8.59808 86.1354C7.77485 86.9845 6.60768 87.4183 5.12474 87.4183ZM3.43881 87.0395H5.12474C6.51182 87.0395 7.60006 86.6424 8.35562 85.8605C9.10555 85.0785 9.48897 83.9605 9.48897 82.5432C9.48897 81.1076 9.10555 79.9896 8.35562 79.2076C7.60006 78.4256 6.51746 78.0285 5.12474 78.0285H3.43881V87.0395Z" fill="#7D7D7D"/>
<path d="M24.6627 75.2979V89.8193H21.9844V75.2979H24.6627Z" fill="#7D7D7D"/>
<path d="M24.8431 90.0147H21.8096V75.1084H24.8431V90.0147ZM22.1648 89.6298H24.4879V75.4872H22.1648V89.6298Z" fill="#7D7D7D"/>
<path d="M46.2798 76.0368C47.3004 76.666 48.1011 77.5518 48.6931 78.682C49.2795 79.8122 49.5784 81.0951 49.5784 82.5186C49.5784 83.9481 49.2852 85.2249 48.6931 86.3673C48.1067 87.5036 47.3004 88.3895 46.2798 89.0187C45.2593 89.6479 44.1259 89.9656 42.8742 89.9656C41.6224 89.9656 40.4834 89.6479 39.4685 89.0187C38.4479 88.3895 37.6472 87.5036 37.0552 86.3673C36.4688 85.231 36.1699 83.9481 36.1699 82.5186C36.1699 81.0951 36.4631 79.8122 37.0552 78.682C37.6416 77.5518 38.4479 76.6721 39.4685 76.0368C40.4891 75.4075 41.6224 75.0898 42.8742 75.0898C44.1259 75.0898 45.2593 75.4075 46.2798 76.0368ZM40.8048 78.3399C40.2071 78.7248 39.7448 79.2746 39.4065 79.9955C39.0738 80.7164 38.9046 81.5533 38.9046 82.5186C38.9046 83.4777 39.0738 84.3208 39.4065 85.0417C39.7391 85.7625 40.2071 86.3123 40.8048 86.6972C41.3969 87.0821 42.0904 87.2715 42.8742 87.2715C43.6579 87.2715 44.3515 87.0821 44.9435 86.6972C45.5355 86.3123 46.0035 85.7625 46.3419 85.0417C46.6745 84.3208 46.8437 83.4838 46.8437 82.5186C46.8437 81.5594 46.6745 80.7164 46.3419 79.9955C46.0035 79.2746 45.5412 78.7248 44.9435 78.3399C44.3458 77.955 43.6579 77.7656 42.8742 77.7656C42.0848 77.7656 41.3969 77.955 40.8048 78.3399Z" fill="#7D7D7D"/>
<path d="M42.8749 90.1549C41.595 90.1549 40.4221 89.825 39.379 89.1835C38.3359 88.536 37.5014 87.6196 36.898 86.4589C36.2947 85.2982 35.9902 83.9725 35.9902 82.5185C35.9902 81.0645 36.2947 79.7449 36.898 78.5842C37.5014 77.4296 38.3359 76.5132 39.3734 75.8718C40.4165 75.2303 41.5893 74.9004 42.8693 74.9004C44.1492 74.9004 45.322 75.2303 46.3652 75.8718C47.4083 76.5193 48.2428 77.4296 48.8405 78.5842C49.4438 79.7388 49.7483 81.0645 49.7483 82.5185C49.7483 83.9725 49.4438 85.2982 48.8405 86.4589C48.2372 87.6257 47.4027 88.5421 46.3595 89.1835C45.3277 89.8311 44.1492 90.1549 42.8749 90.1549ZM42.8749 75.2853C41.657 75.2853 40.5405 75.5968 39.5538 76.2078C38.5671 76.8187 37.7777 77.6801 37.2082 78.7797C36.6387 79.8794 36.3455 81.1378 36.3455 82.5246C36.3455 83.9114 36.633 85.1759 37.2082 86.2756C37.7777 87.3752 38.5671 88.2489 39.5538 88.8598C40.5405 89.4707 41.657 89.7823 42.8749 89.7823C44.0928 89.7823 45.2093 89.4707 46.196 88.8598C47.1828 88.2489 47.9721 87.3813 48.5416 86.2756C49.1111 85.1698 49.4043 83.9053 49.4043 82.5246C49.4043 81.1378 49.1168 79.8794 48.5416 78.7797C47.9721 77.6862 47.1828 76.8187 46.196 76.2078C45.2036 75.5907 44.0872 75.2853 42.8749 75.2853ZM42.8749 87.4608C42.063 87.4608 41.3356 87.2592 40.7153 86.856C40.0951 86.4528 39.5989 85.8724 39.255 85.121C38.911 84.3757 38.7306 83.5021 38.7306 82.5124C38.7306 81.5288 38.9054 80.6491 39.255 79.9038C39.6045 79.1523 40.0951 78.572 40.7153 78.1688C41.3356 77.7656 42.063 77.564 42.8749 77.564C43.6869 77.564 44.4142 77.7656 45.0345 78.1688C45.6547 78.572 46.1453 79.1523 46.4948 79.9038C46.8388 80.6491 47.0192 81.5227 47.0192 82.5124C47.0192 83.4959 46.8444 84.3757 46.4948 85.121C46.1453 85.8724 45.6547 86.4528 45.0345 86.856C44.4142 87.2592 43.6869 87.4608 42.8749 87.4608ZM42.8749 77.955C42.125 77.955 41.4596 78.1382 40.8958 78.5048C40.3319 78.8652 39.8865 79.3967 39.5651 80.081C39.2437 80.7713 39.0802 81.5899 39.0802 82.5124C39.0802 83.4349 39.2437 84.2535 39.5651 84.9438C39.8808 85.628 40.3319 86.1595 40.8958 86.52C41.4596 86.8865 42.125 87.0698 42.8749 87.0698C43.6248 87.0698 44.2902 86.8865 44.854 86.52C45.4179 86.1595 45.8633 85.628 46.1847 84.9438C46.5061 84.2535 46.6696 83.4349 46.6696 82.5124C46.6696 81.5899 46.5061 80.7713 46.1847 80.081C45.8633 79.3967 45.4179 78.8652 44.854 78.5048C44.2845 78.1444 43.6192 77.955 42.8749 77.955Z" fill="#7D7D7D"/>
<path d="M70.8983 66.079L64.9271 48.7413C64.8482 48.5153 64.6508 48.3687 64.4309 48.3687C64.211 48.3687 64.0137 48.5153 63.9347 48.7413L57.9635 66.079C57.9579 66.0912 57.9635 66.1034 57.9579 66.1095C57.9522 66.1401 57.9466 66.1706 57.941 66.2012C57.9353 66.2256 57.9297 66.25 57.9297 66.2806V89.7579C57.9297 90.0756 58.1665 90.3321 58.4597 90.3321C58.7529 90.3321 58.9897 90.0756 58.9897 89.7579V67.4352L61.0985 69.158V89.7579C61.0985 90.0756 61.3354 90.3321 61.6286 90.3321C61.9218 90.3321 62.1586 90.0756 62.1586 89.7579V69.1213L64.4027 66.8732L66.6469 69.1274V89.7579C66.6469 90.0756 66.8837 90.3321 67.1769 90.3321C67.4701 90.3321 67.7069 90.0756 67.7069 89.7579V69.1457L69.8609 67.1908V89.764C69.8609 90.0817 70.0977 90.3383 70.3909 90.3383C70.6841 90.3383 70.9209 90.0817 70.9209 89.764V66.2867C70.9322 66.2134 70.9209 66.1401 70.8983 66.079ZM64.4309 50.5863L65.7842 54.5205H63.0777L64.4309 50.5863ZM64.0475 65.6697L61.6004 68.1255L59.0969 66.079L62.683 55.669H66.1845L69.6917 65.8529L67.2051 68.1133L64.7692 65.6697C64.5663 65.462 64.2505 65.462 64.0475 65.6697Z" fill="#7D7D7D"/>
<path d="M53.7851 1.62771V3.03284H55.5556V3.85755H53.7851V5.31764H55.7643V6.18512H52.7871V0.772461H55.7643V1.63383H53.7851V1.62771Z" fill="#7D7D7D"/>
<path d="M63.2862 5.46407C63.1565 5.69621 62.9705 5.88559 62.7224 6.02609C62.4743 6.1666 62.1698 6.23994 61.8089 6.23994C61.4537 6.23994 61.1379 6.17273 60.8616 6.04444C60.5854 5.91615 60.3598 5.72674 60.1907 5.48238C60.0215 5.23801 59.9257 4.9509 59.9031 4.62101H60.9631C60.9857 4.84094 61.0703 5.02423 61.2056 5.17084C61.3466 5.31746 61.527 5.39076 61.7638 5.39076C61.9724 5.39076 62.1303 5.32968 62.2431 5.2075C62.3559 5.08532 62.4122 4.93258 62.4122 4.7432C62.4122 4.57215 62.3671 4.43775 62.2769 4.32779C62.1867 4.21782 62.0739 4.13226 61.9386 4.06506C61.8033 3.99786 61.6116 3.92459 61.3748 3.83295C61.0646 3.72299 60.8109 3.60689 60.6136 3.49692C60.4162 3.38696 60.247 3.22814 60.1061 3.01432C59.9651 2.80661 59.8975 2.53168 59.8975 2.19568C59.8975 1.73139 60.0497 1.36485 60.3598 1.09605C60.6699 0.827255 61.0759 0.692871 61.589 0.692871C62.119 0.692871 62.5363 0.833376 62.8521 1.10828C63.1678 1.38319 63.3426 1.74974 63.3877 2.21403H62.3108C62.2826 2.01854 62.2093 1.85968 62.0852 1.7375C61.9612 1.60921 61.7976 1.54812 61.5834 1.54812C61.3973 1.54812 61.2507 1.60311 61.1379 1.70696C61.0252 1.81082 60.9688 1.96355 60.9688 2.16515C60.9688 2.32398 61.0139 2.4584 61.0985 2.56225C61.183 2.66611 61.2958 2.75162 61.4311 2.81882C61.5665 2.88602 61.7469 2.95932 61.9781 3.03874C62.2995 3.16092 62.5589 3.27699 62.7618 3.38085C62.9648 3.49081 63.134 3.64967 63.2749 3.86349C63.4159 4.07731 63.4892 4.35833 63.4892 4.70655C63.4779 4.97535 63.4103 5.23192 63.2862 5.46407Z" fill="#7D7D7D"/>
<path d="M71.1469 0.766602V1.62796H69.7654V6.17919H68.7674V1.62796H67.3916V0.766602H71.1469Z" fill="#7D7D7D"/>
<path d="M46.3371 11.5423C46.3371 11.3041 46.2864 11.1147 46.1792 10.9742C46.0721 10.8337 45.9086 10.7665 45.6774 10.7665C45.2094 10.7665 44.9613 11.1086 44.9331 11.7989H43.9633C43.9915 11.1636 44.1719 10.6748 44.499 10.3449C44.8316 10.015 45.2489 9.8501 45.7507 9.8501C46.2638 9.8501 46.6585 9.99673 46.9348 10.2839C47.2111 10.571 47.3464 10.9558 47.3464 11.4384C47.3464 11.8172 47.2449 12.196 47.0363 12.5748C46.8333 12.9535 46.5683 13.3078 46.2525 13.6255C45.9368 13.9432 45.6041 14.2181 45.2545 14.4502H47.4423V15.3299H43.9238V14.5236C45.5364 13.3262 46.3371 12.3304 46.3371 11.5423Z" fill="#7D7D7D"/>
<path d="M51.5527 12.6307C51.5527 10.798 52.1899 9.8877 53.4642 9.8877C54.1408 9.8877 54.6257 10.1321 54.9246 10.6269C55.2234 11.1157 55.37 11.7877 55.37 12.6368C55.37 13.4921 55.2234 14.1641 54.9246 14.6529C54.6257 15.1416 54.1408 15.386 53.4642 15.386C52.1899 15.3799 51.5527 14.4635 51.5527 12.6307ZM54.3833 12.6307C54.3833 12.0809 54.3213 11.6533 54.1972 11.3539C54.0732 11.0546 53.8307 10.9079 53.4642 10.9079C53.0977 10.9079 52.8496 11.0546 52.7256 11.3539C52.6015 11.6533 52.5395 12.0809 52.5395 12.6307C52.5395 13.1867 52.6015 13.6143 52.7256 13.9137C52.8496 14.213 53.0977 14.3597 53.4642 14.3597C53.8251 14.3597 54.0732 14.213 54.1972 13.9137C54.3213 13.6143 54.3833 13.1867 54.3833 12.6307Z" fill="#7D7D7D"/>
<path d="M61.894 11.5423C61.894 11.3041 61.8432 11.1147 61.7361 10.9742C61.629 10.8337 61.4654 10.7664 61.2399 10.7664C60.7719 10.7664 60.5238 11.1086 60.4956 11.7989H59.5258C59.554 11.1635 59.7344 10.6748 60.0615 10.3449C60.3941 10.015 60.8114 9.8501 61.3132 9.8501C61.8263 9.8501 62.221 9.99673 62.4973 10.2839C62.7736 10.571 62.9089 10.9558 62.9089 11.4384C62.9089 11.8172 62.8074 12.196 62.5988 12.5747C62.3958 12.9535 62.1308 13.3078 61.815 13.6255C61.4993 13.9431 61.1666 14.218 60.817 14.4502H63.0048V15.3299H59.4863V14.5235C61.0933 13.3261 61.894 12.3304 61.894 11.5423Z" fill="#7D7D7D"/>
<path d="M67.1035 12.6307C67.1035 10.798 67.7407 9.8877 69.015 9.8877C69.6916 9.8877 70.1765 10.1321 70.4754 10.6269C70.7742 11.1157 70.9208 11.7877 70.9208 12.6368C70.9208 13.4921 70.7742 14.1641 70.4754 14.6529C70.1765 15.1416 69.6916 15.386 69.015 15.386C67.7407 15.3799 67.1035 14.4635 67.1035 12.6307ZM69.9341 12.6307C69.9341 12.0809 69.872 11.6533 69.748 11.3539C69.6239 11.0546 69.3758 10.9079 69.015 10.9079C68.6485 10.9079 68.4004 11.0546 68.2763 11.3539C68.1523 11.6533 68.0903 12.0809 68.0903 12.6307C68.0903 13.1867 68.1523 13.6143 68.2763 13.9137C68.4004 14.213 68.6485 14.3597 69.015 14.3597C69.3758 14.3597 69.6239 14.213 69.748 13.9137C69.872 13.6143 69.9341 13.1867 69.9341 12.6307Z" fill="#7D7D7D"/>
</svg>
